<mxfile host="app.diagrams.net" agent="Mozilla/5.0 (X11; Linux x86_64) AppleWebKit/537.36 (KHTML, like Gecko) Chrome/128.0.0.0 Safari/537.36" version="24.7.8" pages="2">
  <diagram name="Page-1" id="wwYXpn9sqxcFCk8sIPvT">
    <mxGraphModel dx="1426" dy="900" grid="1" gridSize="10" guides="1" tooltips="1" connect="1" arrows="1" fold="1" page="1" pageScale="1" pageWidth="850" pageHeight="1100" math="0" shadow="0">
      <root>
        <mxCell id="0" />
        <mxCell id="1" parent="0" />
        <mxCell id="Eh2Yhkekkg4GdTQa8Hme-13" style="edgeStyle=orthogonalEdgeStyle;rounded=0;orthogonalLoop=1;jettySize=auto;html=1;entryX=0.5;entryY=1;entryDx=0;entryDy=0;fontSize=20;" parent="1" source="Eh2Yhkekkg4GdTQa8Hme-1" target="Eh2Yhkekkg4GdTQa8Hme-8" edge="1">
          <mxGeometry relative="1" as="geometry" />
        </mxCell>
        <mxCell id="Eh2Yhkekkg4GdTQa8Hme-1" value="" style="dashed=0;outlineConnect=0;html=1;align=center;labelPosition=center;verticalLabelPosition=bottom;verticalAlign=top;shape=mxgraph.weblogos.github;fontSize=20;" parent="1" vertex="1">
          <mxGeometry x="302.25" y="605" width="75" height="75" as="geometry" />
        </mxCell>
        <mxCell id="Eh2Yhkekkg4GdTQa8Hme-9" style="edgeStyle=orthogonalEdgeStyle;rounded=0;orthogonalLoop=1;jettySize=auto;html=1;fontSize=20;" parent="1" source="Eh2Yhkekkg4GdTQa8Hme-2" target="Eh2Yhkekkg4GdTQa8Hme-5" edge="1">
          <mxGeometry relative="1" as="geometry" />
        </mxCell>
        <mxCell id="Eh2Yhkekkg4GdTQa8Hme-10" value="Error Logs" style="edgeLabel;html=1;align=center;verticalAlign=middle;resizable=0;points=[];fontSize=20;" parent="Eh2Yhkekkg4GdTQa8Hme-9" connectable="0" vertex="1">
          <mxGeometry x="-0.0155" relative="1" as="geometry">
            <mxPoint as="offset" />
          </mxGeometry>
        </mxCell>
        <mxCell id="3dYvVGt50_ZWRxu6sO9N-1" value="" style="edgeStyle=orthogonalEdgeStyle;rounded=0;orthogonalLoop=1;jettySize=auto;html=1;" parent="1" source="Eh2Yhkekkg4GdTQa8Hme-2" target="Eh2Yhkekkg4GdTQa8Hme-8" edge="1">
          <mxGeometry relative="1" as="geometry" />
        </mxCell>
        <mxCell id="Eh2Yhkekkg4GdTQa8Hme-2" value="" style="sketch=0;points=[[0,0,0],[0.25,0,0],[0.5,0,0],[0.75,0,0],[1,0,0],[0,1,0],[0.25,1,0],[0.5,1,0],[0.75,1,0],[1,1,0],[0,0.25,0],[0,0.5,0],[0,0.75,0],[1,0.25,0],[1,0.5,0],[1,0.75,0]];outlineConnect=0;fontColor=#232F3E;fillColor=#ED7100;strokeColor=#ffffff;dashed=0;verticalLabelPosition=bottom;verticalAlign=top;align=center;html=1;fontSize=20;fontStyle=0;aspect=fixed;shape=mxgraph.aws4.resourceIcon;resIcon=mxgraph.aws4.lambda;" parent="1" vertex="1">
          <mxGeometry x="300.25" y="360" width="78" height="78" as="geometry" />
        </mxCell>
        <mxCell id="Eh2Yhkekkg4GdTQa8Hme-18" style="edgeStyle=orthogonalEdgeStyle;rounded=0;orthogonalLoop=1;jettySize=auto;html=1;fontSize=20;" parent="1" source="Eh2Yhkekkg4GdTQa8Hme-3" target="Eh2Yhkekkg4GdTQa8Hme-2" edge="1">
          <mxGeometry relative="1" as="geometry" />
        </mxCell>
        <mxCell id="VffMNteqpkUg2hFZ3gxO-1" value="" style="edgeStyle=orthogonalEdgeStyle;rounded=0;orthogonalLoop=1;jettySize=auto;html=1;fontSize=20;" parent="1" source="Eh2Yhkekkg4GdTQa8Hme-3" target="Eh2Yhkekkg4GdTQa8Hme-2" edge="1">
          <mxGeometry relative="1" as="geometry" />
        </mxCell>
        <mxCell id="Eh2Yhkekkg4GdTQa8Hme-3" value="API Gateway" style="sketch=0;points=[[0,0,0],[0.25,0,0],[0.5,0,0],[0.75,0,0],[1,0,0],[0,1,0],[0.25,1,0],[0.5,1,0],[0.75,1,0],[1,1,0],[0,0.25,0],[0,0.5,0],[0,0.75,0],[1,0.25,0],[1,0.5,0],[1,0.75,0]];outlineConnect=0;fontColor=#232F3E;fillColor=#E7157B;strokeColor=#ffffff;dashed=0;verticalLabelPosition=top;verticalAlign=bottom;align=center;html=1;fontSize=20;fontStyle=0;aspect=fixed;shape=mxgraph.aws4.resourceIcon;resIcon=mxgraph.aws4.api_gateway;labelPosition=center;" parent="1" vertex="1">
          <mxGeometry x="300.75" y="240" width="78" height="78" as="geometry" />
        </mxCell>
        <mxCell id="Eh2Yhkekkg4GdTQa8Hme-5" value="CloudWatch Log&lt;br style=&quot;font-size: 20px;&quot;&gt;Subscription Filter" style="sketch=0;points=[[0,0,0],[0.25,0,0],[0.5,0,0],[0.75,0,0],[1,0,0],[0,1,0],[0.25,1,0],[0.5,1,0],[0.75,1,0],[1,1,0],[0,0.25,0],[0,0.5,0],[0,0.75,0],[1,0.25,0],[1,0.5,0],[1,0.75,0]];points=[[0,0,0],[0.25,0,0],[0.5,0,0],[0.75,0,0],[1,0,0],[0,1,0],[0.25,1,0],[0.5,1,0],[0.75,1,0],[1,1,0],[0,0.25,0],[0,0.5,0],[0,0.75,0],[1,0.25,0],[1,0.5,0],[1,0.75,0]];outlineConnect=0;fontColor=#232F3E;fillColor=#E7157B;strokeColor=#ffffff;dashed=0;verticalLabelPosition=bottom;verticalAlign=top;align=center;html=1;fontSize=20;fontStyle=0;aspect=fixed;shape=mxgraph.aws4.resourceIcon;resIcon=mxgraph.aws4.cloudwatch_2;" parent="1" vertex="1">
          <mxGeometry x="510" y="360" width="78" height="78" as="geometry" />
        </mxCell>
        <mxCell id="Eh2Yhkekkg4GdTQa8Hme-12" style="edgeStyle=orthogonalEdgeStyle;rounded=0;orthogonalLoop=1;jettySize=auto;html=1;fontSize=20;" parent="1" target="Eh2Yhkekkg4GdTQa8Hme-1" edge="1">
          <mxGeometry relative="1" as="geometry">
            <mxPoint x="718" y="404" as="sourcePoint" />
            <mxPoint x="400" y="800" as="targetPoint" />
            <Array as="points">
              <mxPoint x="760" y="404" />
              <mxPoint x="760" y="643" />
            </Array>
          </mxGeometry>
        </mxCell>
        <mxCell id="Eh2Yhkekkg4GdTQa8Hme-15" value="&lt;font style=&quot;font-size: 20px;&quot;&gt;Create Issue&lt;/font&gt;" style="edgeLabel;html=1;align=center;verticalAlign=middle;resizable=0;points=[];fontSize=20;" parent="Eh2Yhkekkg4GdTQa8Hme-12" connectable="0" vertex="1">
          <mxGeometry x="-0.3404" y="3" relative="1" as="geometry">
            <mxPoint as="offset" />
          </mxGeometry>
        </mxCell>
        <mxCell id="MJfNLC3vNXRit5m4k24Z-3" style="edgeStyle=orthogonalEdgeStyle;rounded=0;orthogonalLoop=1;jettySize=auto;html=1;" parent="1" source="Eh2Yhkekkg4GdTQa8Hme-6" target="MJfNLC3vNXRit5m4k24Z-1" edge="1">
          <mxGeometry relative="1" as="geometry" />
        </mxCell>
        <mxCell id="Eh2Yhkekkg4GdTQa8Hme-6" value="GitHub Issue&lt;br style=&quot;font-size: 20px;&quot;&gt;Creator" style="sketch=0;points=[[0,0,0],[0.25,0,0],[0.5,0,0],[0.75,0,0],[1,0,0],[0,1,0],[0.25,1,0],[0.5,1,0],[0.75,1,0],[1,1,0],[0,0.25,0],[0,0.5,0],[0,0.75,0],[1,0.25,0],[1,0.5,0],[1,0.75,0]];outlineConnect=0;fontColor=#232F3E;fillColor=#ED7100;strokeColor=#ffffff;dashed=0;verticalLabelPosition=bottom;verticalAlign=top;align=center;html=1;fontSize=20;fontStyle=0;aspect=fixed;shape=mxgraph.aws4.resourceIcon;resIcon=mxgraph.aws4.lambda;" parent="1" vertex="1">
          <mxGeometry x="656" y="360" width="78" height="78" as="geometry" />
        </mxCell>
        <mxCell id="Eh2Yhkekkg4GdTQa8Hme-14" style="edgeStyle=orthogonalEdgeStyle;rounded=0;orthogonalLoop=1;jettySize=auto;html=1;fontSize=20;" parent="1" source="Eh2Yhkekkg4GdTQa8Hme-8" target="Eh2Yhkekkg4GdTQa8Hme-2" edge="1">
          <mxGeometry relative="1" as="geometry" />
        </mxCell>
        <mxCell id="Eh2Yhkekkg4GdTQa8Hme-8" value="" style="shape=image;verticalLabelPosition=bottom;labelBackgroundColor=default;verticalAlign=top;aspect=fixed;imageAspect=0;image=data:image/png,iVBORw0KGgoAAAANSUhEUgAAAgAAAAIACAYAAAD0eNT6AAAAAXNSR0IArs4c6QAAIABJREFUeAHsvQ2oJdWVL35pzEMywX8j+XC676na6RERJwRJMsEnkjFBMpIwSSY4wckTEckTkSD9Mkn31RE5MvbZVaeTNDaDj2bEMTgkOCIo4tx7HYORYBpxRBrGF5okjI1xmk4jTiOhkdD8/r3qnrpd99w659TH3rt2Vf0amlO3PtZe67dW7bVqf6y1tMR/ThFQQ1ysxrg6jPF1NcI+FSEOR3hYRfjRIMJTKsK6ivCS0jgWxvi1inEy0HhPxYDSOBvEOK1ivBlEeGOgcTSM8cJ5ek8HER5XMY6EEX4QjHF/MMatYYRrP3YQH3UqIBsjAkSACBABItB3BMIxPhVq3B5EODxx6qcSRy7O3OF/CSCCGK9KkKFi7FUa1186xCV91w/lJwJEgAgQASJQC4FdQ3wwiHBdMMLdSuMxFeN1lw6+aluBxm9k1GEQ4V6lcSNHC2qZAR8mAkSACBCBriMgw/iDCF+VoftA442qDtjH54IYb0tQICMXu76PD3ddl5SPCBABIkAEiMBcBAYxdg1i3BVoPOej47bFU6DxchjhvmCEq+YCxItEgAgQASJABLqCwOWHcclkDv+FQOOcLSfbGroax2ThogRDXdEx5SACRIAIEAEisImAivE1WVnfGsfscEHhJiYRXgo07pDpkE3geEAEiAARIAJEoG0IyHy3irCiNE5sOrkmHGvL2gxGeCfZeqixp206J79EgAgQASLQYwRkr/xkD73TrXldDDLO74R4QfIb9NicKDoRIAJEgAj4jIAMW0/m9l/roiP2QKY3kyRHh7DTZzsgb0SACBABItATBNQQO0ONB2XY2gMn2ZcRhyPncyOonpgYxSQCRIAIEAGfEEjS70ra3Rjv0vG7zUKY4K3xvqwTkADMJ7sgL0SACBABItBVBIbYoTRuC2K8RcffgOOfXtAY4UygsZ87B7r6wlEuIkAEiIAHCAwifK5rWfo6E8RonAgi3LI0xA4PTIUsEAEiQASIQBcQ2D3CFWGM1c44y+mv6G79/fpyjM92we4oAxEgAkSACDSEQJK1T8rqdstB9mKhYBDjyd0xlhsyHTZLBIgAESACbUVARbhZaTRSapcBh5m1BVKyWMW4m9MCbX0LyTcRIAJEwCECkpNeRVinEzbjhH3AMYjx6uAAPuHQjNgUESACRIAItAkBpXFnoPF7H5wWeTAfgARj3N8meySvRIAIEAEiYBkBmetXGs/Q6Zp3ur5hGkb4OdcGWH6hSJ4IEAEi0AYEzueav07FOOmboyI/FoORCGcGEb7aBvskj0SACBABImABATXCA111tGGMX4cxXggjPDmI8EhSXW+M+1WMvcEYtybliTWuDyN8OYzwzUGMu5LKhRFiFeOIGuEJ2foYjvCq0jjbUZyOWDArkiQCRIAIEAFfEdg1xAe7sK8/1DgdaLwcxng0yYYX42tqhCuXhrjINPYybB4cxA1JoKDxUIKfJN/RONfy4OColG02jRfpEQEiQASIgGcIBBp7VITjbXRagcZvEmcvX/CeFMP5yBAfCkf4kpKRgwivBBp/aBu2gcbJcIxPeWaqZIcIEAEiQARMITDQ+KLSONMWByXD+DIcLylu1RiXmcLBJh0ZXVEaNwYj6IHG0bZgLXwmqYRtgkPaRIAIEAEi4B6BZO67BV+nUmtAtqsta1zuHiXzLSbZFDVuP7/Y8oVWjA6MoZk4yLwdkCIRIAJEwD0CQ+yQYXPPv0TflC9mNcbV7gFy1+LHDuKjoca3Zd2Cz2sHAo3nWF3QnV2wJSJABIiAcQSS/f0RXvLR+QcjvBNEOBxGuNa44C0guCtCIAsXgwhv+KgfFeP1tky7tEDdZJEIEAEi4A6B5R/iUqVxzDfnEmr8dhDhOzJX7g4Nv1uSRYSSoMc3XSmNE0wa5LftkDsiQASIwBYE5MvNu5X+EY6HGrd/+gg+sIVZ/rGJgIpxTajxrE/TA0GMt7uyHmMTaB4QASJABLqIgGyPky83X74mpRBNEOMmLiwrbm3BCFcFER73ZdGg5FtYPoBPFpeAdxIBIkAEiIBTBHaPcIU3JXyllHCEm50C0LHGJKmR8mUNh8YZ5gromIFRHCJABLqBQJKpTjef01++WiXtriTI6QayzUshqYp9qNcgIwF7RriieUTIAREgAkSACCQISCpXyZLX9LC/bG9LUvFSL8YRuHSYVGx8qOlpAVkTwIWBxtVLgkSACBCB8giIY5DkOY06f41TzCJXXndVnpC5eEk53KS+k2CzJZkZq2DMZ4gAESAC3iMgyVpkkV2TziAc4WHJN+A9WB1jUHZUSC6FpnQvQSf13jGjojhEgAi0BIGNDH+rjTmAGKelOl5L0Ookm8l2z7i5egOSu4DbOjtpWhSKCBABnxGQbWJNOX/p+CWtrc/49IY3CQQ1Hmwsd4DGM73BmoISASJABJpGQIrlNOX8pe2m5Wf72xGQ0ZimtoDKro/tHPEMESACRIAIGEUgKekbA84DAI1Tfc3bb1SBFoklxYaaSyn8NYuikTQRIAJEoN8IDGLsUjHede78I6xLbYF+o98S6WVKIMJ9zrcLapyRAkctQYlsEgEiQARahIB07CP3K/5llX+LUCKrEwSUxo1K46zjYPF1LgqkCRIBIkAEDCOgxtAuO/NkUdkI+wyLQXIOEZDUvc63Cmo85FBENkUEiAAR6DYCSuN6p6u8Nd5PCvh0G9ZeSBdo7HFeHErjxl6ASyGJABEgAjYRSBZ2aZx29fUfaPx+EOFzNmUibbcIJKmiI6fZIt+V9SpupWRrRIAIEIEuIbCxoOvnrpy/bCNj2dcuGdAFWaQ4k9PKghFeYQnoC/jziAgQASJQCgE1wgOunL/MFQeHsKcUg7y5dQiEGs86tCndOoDIMBEgAkSgaQSSBVwa55x01hpn+OXftMbdtC/1I1wWExI7diMZWyECRIAIdAQBZxX+NN5XMa7pCGwUowACUsRHRTjuKLg8xqmAAkrhLUSACBABQSAY4W4XnbPsLAgjfJmo9w8BKSQUxHjbhZ0NInynfwhTYiJABIhASQRk1X+g8Z6LjjkY49aS7PH2DiGwe4QrXGSWlJ0lLB7VIcOhKESACNhBQI3whAvnLwsM7UhgjupyjM+qGHuTxZAbCyL3yohFMMJV5lrpNyWZ/nFhb0GMJ/uNNKUnAkSACMxBIKno5qDQzyDCU3PYaOxS4vBH2KcirBcZBUmGsCOsqwg3N8Z0BxoOI3zTSRBwEDd0AC6KQASIABEwjMAQFwUav3HQEb8pe8INc1+d3BA7lMZttbPVaZxQI+yTBW7Vmenvk2GMR23bntj30hAX9RdlSk4EiAARyEFAKrjZ7oCFvnxl5zTfyCkZzlcavzQpt8w3BxEOqyF2NiJUSxtNtgca1kWeXgcR7m0pRGSbCBABImAegd0xlh1VbttrnvvyFC8d4hLbax1CjdMytF2eu/4+IWsrJIDKc9zGzmmcFXvvL8qUnAgQASKQQWAQ4RFjHeyMNQSSAS7TZGOHknDI0VQHEkwjrLNOfXF1hxq327ZFsffiHPFOIkAEiEBHEVAaynaHG8R4Sx1qfkg8jPF1RyMdG84/DYY0zqoIKx01IeNihTF+bNsmGZQZVxsJEgEi0DYEzgcAj9nsbCXZzyDGZ5rG5eMxvhJo/MGmrAtpaxxjatrFlpCsB4jx5kI80wCr2u+RxZzwDiJABIhARxFw8fUfxniwafjUAVxt2Zls/eJf5JA0Hto1xAebxsXn9l3ojKMAPlsAeSMCRMAqAtbn/jVOWBWgAHHZlud0zn+R859cDzV+G47wpQIi9PaWcISHbQZuQr+34FJwIkAE+ovAJOWv7SHxrzWNsMvys1WclWSoY5rafCtJigbFeLcKroWekbUZ3K6ZDz7PEgEi0F0EQo0HC3WSBb9op2mFMVabRk9qDUzz5eXfEc4MYtzVNF4+tm97V4Dkv/BRbvJEBIgAEbCCgCyyCkZ4x5ozlBK/GsoK80WJbmT4O2FNxoqB0QJ+jqoRriwqYl/uC0d4dQFu5dZgZHWncerTR/CBvmBJOYkAEeg5AvK1aa1Dlc7Vg0I/wQg3WZUx60RMH3uAn0+viOycsKlLGWXwSV7yQgSIABGwhkAY49fWOlTJiT/ExdaYL0g4iPCCNRlNO/w8ehGODyJ8rqC4nb9NxThiS59BhDc6DyAFJAJEgAjYrvgn8+5No5ykNs5zqi08Jzs1WGBoaUkWStoKACZ0r2nabtk+ESACRMAqAmGEJ611pLLtb4gdVgUoQFxp3GlNxiaCCI1TLDm8tJQUWbKFv8ZjBUyLtxABIkAE2omA9a8ojTt9QMZ2oZ+mggvZWdHnQjZWR3ZkS6AH6ap9eH/IAxEgAh1EQEqh2nJeQYzTvqymDjTesCVn03QDjfdUjL0+jLQ08YqEMR61qIO7m5CJbRIBIkAErCNgMyPeIMJ3rAtQsAGLDqL6djPDQ9fJ1rgxri4ISWdu2zPCFbb0G8R4tTNAURAiQASIQIqAGlvNh/+uDyv/N2U17GxtOZy6dKW40SDCQZ+wT3Vg89fmFE+fp1hs6oy0iQARaBABm5n/ZGqhQdG2NV3XseY+r3Em97wPwYbGCdndsQ2Ijp4YHMAnrOlihH0dhY1iEQEi0FcElOzPt+CsZE7at21qNuQMI3wzWUMhi8Us4GiCZhjjx7u+jw/3wcaVxjMmMJumIVMrfcCPMhIBItATBGxmUgs0/tE3GKc7dRN/S2ZBkVNSHIdjvGiCpg0akuK5D5ntBhpftIGf0OQ0gG9vNPkhAkSgMgKWh/+9y1ZnwzEEEb6RVUAQ4RbZ+WCjLSM0I7zUeD2GLGCmjzdqPZwygtX2EZ29ptklPSJABIhAIwgEEV6z0VEGMd5qRKAFjVqRdSoAEBaklOx5J/uYjfaM0NQ4K9XufNmeuUBtpS8HEQ4ZwWkqAJA00qWZ4QNEgAgQAd8QWP4hLrXRSSY0x9C+ySv82JB3egQgK/d5h3GdinDcRrsmaEpehOUYn83y3IXjQYzPmMBnmobsrtg1xAe7gBFlIAJEoMcIWK2n7mnp2ukO3cTf8wIAMS/5ypYqiEpKIU99Ufrwd6BxLhzhYd8WbNZ9NQONX9nAdxDhq3V54/NEgAgQgUYRGER4ykYHqTSONSrYnMZtyLsoAEjZWda4XMn8u4dBgPAUxHg7jPH1lN+2/wZj3G8J6yNtx4b8EwEi0HMElKX96+EI3/UVWhsOoWgAkGIiIy+yIt8GLyZohhrPqjEuS/lt629wCHtM4LGNRoTjbcWEfBMBIkAEloIRrtrWsRn4MpXhZCks5CvEVmTOWQS4SH7Zky97823wY4SmxplQ49ttryugYhw1gsfUuyHrZxbpmNeJABEgAl4iEGjcYaNj9D1nuhWZKwQAqVEojettJWIyIavoU7Lrpfy27ddWkauPx/hK27Agv0SACBCBBAFbW9Qk/7zPEJtwitM0yk4BTOMj+frVGFpWmE/T9uJvjfeDEXQb6wqEEa61gqGnu1ymbYt/EwEiQAS2IWBra1oY4cvbGvPohA1nUDcASOGRL2354rbBowmaScVIjetTflvxu5EUyHyK5ggvtUJ+MkkEiAARyCJgc///pUNckm3Lt2MTjnCaRpoK2JSsgxh3SR2F6Xa8+VsSHA2x05S8tumoCOumsQs0fm+bb9InAkSACBhHIIzxedMdotCTrILGmTVM0JLcW1IBm2BZVuEHMZ60wa8JmpLqWFIem5DVNg3JeGhC5mkae0a4wjbvpE8EiAARMIqAirF3ujMz8XcY4QdGGbVAzISc0zRMTQHkiRuO8CVJqzzdpi9/S/GjXRGCPN59OZdkY5xaxW8Cvy7lTPBFV+SDCBABywiEMR410QFO02hDhrRpnk38bTMAEFOQ1LMSXPm6SFCGw9UI+7zdMmhrHcAID1h+VUmeCBABImAWAalrbsLxZWnI/v825EjP8mzq2HYAkGp/+QA+qWK8bopv43QivDKIsSvl16dfKeJjXN4xnvZJRvJCBIgAEViIgNIwvipaVogvbNiDG4w7AVn7MMJNLkWTKZzkq9vCsHZdfCTDoawxcYlHkbZUhLiubNueZ0bAItDzHiJABHxBYHeM5W0dmQlHEmHdFxnn8WFDdlcjAFm55Es7SdlrQneGachURRjhm1l+mz62kfhK5GxaLrZPBIgAESiMgK0FUUGEw4WZaPDGrgQAKYQSfKgYJ23IVZdmkko4ZbTh30GEz9WVJ+953xdANgw7mycCRMAnBIIxbs3ryOqeC0a42yc5Z/FSV86855sYAcjKJ2V8JQCTdRh5/DV1TvhZjvHZLK9NHcuIiQ0cJLBoSia2SwSIABEohUBSl97wkK90rAONL5ZipKGbbTgB12sAZkEnzjbQeMOGjFVpyhZGCVBm8ezyvI3kShJQu5SBbREBIkAEKiOgIvyoamc+77lAY09lphw+OE+Gqtd8CQBSGAON/TYWelbGx5PpIRs7KIIx7k9x5y8RIAJEwGsELKVFbc1iqKpObN5zTU8B5BmczE3b0PU8HGZdS6YCDuCTeXy6PGcjs2I4wsMuZWBbRIAIEIHKCEi63lkddeXzGr+szJDjByvLOGfaxMcAIIVVRbhZaZyyIXcZmrJjIeWpqd+kouEcPZaRZ/PeEZ5oSh62SwSIABEohYCN2vOSDrYUEw3evNlxG3QEPgcAArXMwasYR5pcJChtyxbUBlW/pGLcbVr/YYwXmpSJbRMBIkAECiNgYyGU0nimMAMN32jaAQg93wOAFPJkC6jGL21gUIRmqPFgyksTv5Z2wLzehCxskwgQASJQGoEiHXXZe4IIj5dmpKEHyspW5P62BAAC+aeP4ANJdTwL2SAXYSU7FBpSe9KsFO9ZxGPp6xonmpSJbRMBIkAECiNQuoMrMFTepoVQNuT3bRdAEWOQUrYydWMDj3k0m9wtEhzEDfN4q3JNRtSK4M17iAARIAKNI1Clk1v0zCDCwcYFK8jAIlmqXG/TCMA0TDIsHmqcriJ3pWc0bpvmwdXfKsY1lXheFAQPcbErGdgOESACRKAyAjY6QBlSrsyQ4wdtyN/mAEDg3/V9fNhWfohpvKWssWOVbzY3qaaIaZ5q/z3GZZuN8IAIEAEi4CsCtTu7/K+hvb7KO82XDfnbHgCkGEkVP6nqaAOjlGag8VzanuvfJDdCvv3WCgqCEa5yLQvbIwJEgAiURiDtiE3+hhq3l2akoQdMyp3S6koAICpRQ1wcxnhQabyfymfyd6BxtCHVLy3/EJealCWlxXoATWmU7RIBIlAKgbTTMvob4eZSTDR4s1G5J1+TbVwEuEgFaoQrA42XTePV9E4A0/IIvUGEry7Ck9eJABEgAo0jIDXMTXeCbSqIYlp2odelEYDUQHePcEXXAgAZ3bChf9lemOLGXyJABIiAtwjYKBIziHGXtwJPMWbDAXQpAEic5Bja1hSABBVTKnH258cO4qM29B+O8CVnQrAhIkAEiEBVBJTGGeOd4Aj7qvLj+jnjsssIwAg3uZbDRntK40YbqaK3YN5g1kilobbwYmhBoOQXsKEP0iQCRIAIGEUgGOEd453gCA8YZdIiMeOyd2AKQI1xWRjhSRvYTNPs4jZASbFs0WRJmggQASJgBoEgxtvTnXLdv5vs1MuiUlfWvOfbPAWgYuy1Uh9ixtd1EOGWsjozdX8Y4do8/dU9txzjs6Z4JB0iQASIgDUEZBV23Q4v5/kj1hg2TDiH91p7wIVeG6cAxGkpjWM28JhLU0MZVmlhcgONL87lbUbQsugZ5gEorALeSASIQJMI2FjZHcb4cZMylWl7UWde5XqbRgAuHeKSIMLhJkoDN70FMIhxUxX9LnyGmQDLvIK8lwgQgaYQCDWeXdihlf0SanBhV1kcjcveohEAGalQMU7awKAITUkwVFZfJu+3VA4YJnkkLSJABIiANQSkdG+RzrrMPUGMV60xbJhwGbmK3uv7CICkwD2/UO2FovLYuE9GHAYxdhlWZylyKsKKBdneLcUEbyYCRIAINIVAEOGQ6U6wTSVRTcsu9HxeAxCMcb8NmUvTHOPppmw+bTeM8WhpvheNhkU4ntLnLxEgAkTAawTCEb5rvBOMAUmy4rXgE+ZsyO5jACD56VWE4zbkrUIzHONTTdtHGOHnVXif94zQbFoutk8EiAARKISAinDzvA6t6rW27IWuKt+853yaAkgK3kT40Tx+G7jmxS6RIMZp07LLlFqhF483EQEiQASaRkActelOUOi1pSKgDdl9CQACjTtUZCHT46Jh8DnXQ43fqkPY2bTdCw82dK9alASraR2wfSJABBpGwFo61BF0w6IVat6GE2g6AJDKfSrCKzZkq0NTFv5J8p1CirF8U5L3YE6gUllOjdsss07yRIAIEAFzCFTu7OZ0oIMIT5nj0B4lG7I3tQZACvcEI2gbMhmh6VGNiDDCN43INPUOyFoLe9ZKykSACBABwwjYyAbYdJKXohDZcAJNBABSgc564Z4pZ1cSu71FdeLiPhmqL8l/oQyRu2Msu+CfbRABIkAEjCBgrfDLEBcbYdAiERtOwGUAIHvpZbTFhhxGaGqcHUT4qkUVViJtBTONM5WY4UNEgAgQgaYQCDUeNNLZT30hhjE+35RMRdu1IbeTNQBD7HBduKc0VhonfM2Lb6MKpqTVLmp3vI8IEAEi4AUCtrYCtmFFdGmnNhXk5D1vewSgscI9BWRP8RhEeMSH1f55L9jgAD6R8mnyNxzh4bz2eI4IEAEi4C0C8pVmsiPcpBXhJW+FnjC2yWsJ57boGVsjAFK4R5xME4V7FsmcXg9j/FrFuMZnvYca3075Nfk7iHGXz3KTNyJABIjAdgSG2BFo/N5kZyi0Ao0/LA2xY3uD/pwxLXMid4RvmJZwMkrTWOGehThpnA0j3PfpI/iAadlN07O15qUtya9M40l6RIAItBwBFePowk6+wley79uibMhscgRACveoCC/Z4NMUTSksJHy25RWwNP9/TrZhtgUD8kkEiAAR2ERAhpZNOYQsHSk+s9mIhwdZXk0dmwgA5Es6KdyjcdYUX6bpBBonZWTCQ7XOZMnW/L+K8frMRnmBCBABIuAzArZqo8vXoc9ym3aKQq/uIkDZPeFT4Z48jCRglDUJPus2jzdb8/9BhMN57fEcESACRMB7BGylBFYa7/u6GlyUkufc6p6rOgIghXukmEzd9q0+r3FMHcDV3hv0DAZVhHUb+EhmwRlN8jQRIAJEwH8Eghhv2+gcpSiNr9JbkbfsIsCNRZh32JibNiafTooK7fV9Uec8O5MS1bIw1Rgm2TUxGmpe27xGBIgAEfAaAWWpbGw4xou+Cm7DGZSZApAtmJJAxgYfBmn+RI1xma86LMqXinG3QUw2UwMHMd4qygPvIwJEgAh4iYDSuM1GByk0JWWtj0LbkLdIALBriA8OIhy00b4xmhonlMaNPuqtCk+2drqoGEeq8MNniAARIALeICBfecacR3Z4VAKACN/xRtAMIzbkXbQGYKDxRVvTLUbkkXUbY+gubWuTANQINlN2PaH5tYxJ8ZAIEAEi0E4Eghiv2ugogwiv+YiIJVlzEwElTmiMp220aYqmTEfsHuEKH3VVhydJUmQKoyydZE0B9//XUQ2fJQJEwBcEbHWU0mkGh7DHFzlTPrKduanjbSMAQ+yQEZBA4z1TbZimE2qcDjVuT3Hp2m+g8RvTmAk937e5dk2PlIcIEAGLCCwfwCdtdJQJzREesMh6JdI2ZM2uAZC8+IHGGzbaMUVTCvfIFsRKALbgIZs2HYxwdwsgIItEgAgQgWII2PpaUhoninHg7i5TTjRLRwKAtHBP9rx3xxGO+56q2YQlSJIeW9j7urjVBG6kQQSIQA8RCEbQtjpMyTjoE6RW5JTtlBqnrNDOX4S2uSWtcJsRVnzSgy1edn0fH7ZR6EpwDiP83BbfpEsEiAARaASBpN68KUczTSfC8UaEmtGoLedQ2BFP42P577YV7pmhtsKnwxgPWtTF3sKM8EYiQASIQFsQkOF6ix2nN9umvP9SNxQQyLbD7NqEtthhHT4l14KthZeBxjnJLFiHPz5LBIgAEfASAavTADFe9UVo2Z5oMdApPzRvyOFnZQoiHGpj4Z66NhKO8N0sDiaPfc5uWRc3Pk8EiEDPEdgzwhUmO8xttDSu9wHiMMaPt/FmwQk30obGMVkB7wPOrnlIyinHOG0N95aVQXaNP9sjAkSg5QjIIidbHWgYY9UHeGR/vi0Zm6I7Gfbu9fY0KUBlC3/JmeCD7ZIHIkAEiIA1BGzWBpDOWQrhWGO+IGHhwZajaITuCE90oXBPQfXl3zbEDptrWKSGQ37DPEsEiAAR6AgCkgve1iIqcY5hjBd8gEpFON6IszY41SC5G4KDuMEHPJvmYRDjLpv6XNa4vGkZ2T4RIAJEwDoCtivW+bAyPdDYb9NhWKWt8X6o8WCXCvfUMWrJaKhivGsLc1+mrupgxGeJABEgAoUQsFxFDaHGb2W7ViFmLN1kM1mMLUeU0I3wkhrhSkuwtJKs0njMJuYcZWmlWZBpIkAEqiIQRHjcZqfqw5zqIMK9NmU0STuQ1e0at1XVZ1efk7oLJnHeRsuzJFZd1SPlIgJEwCMEbBZT2exkPfiSbcNaAAnGuly4p47ZK41jm/ZkcH3FJk0GXXXUw2eJABFoKwLKdh37CC81jU0Y4drNzt6GA6lBUyoKCn9NY+Rr+yrGXqu60zjlq+zkiwgQASJgFYHzAcDVVjvYjdrqt1gVogBxNcIDtuUsQz+pVSCFe4a4qAD7vbxFUvIqjTNlcC17L8v+9tK0KDQRIAIpAg5GAc7sjrGcttfUr4qwXtZB2LhfVpz7gEdTeijabqDxnA38U5pBjLeK8sL7iAARIAKdRMDFKIDyYCpAttQJH6kDcP0baJz0YXtkG4zYRSbHUOP2NmBBHokAESACVhFQMX5i2yHKvnaCs3JAAAAgAElEQVSrQhQgLrnklWTVqzFvX/bZQOMPUrjnI0N8qACLvb9lEOMzgllZnMvcLwmWlobY0XuwCQARIAJE4Pw+a1WmA616ry/7rZXGnVVlKPNcEONVGWGhhRVDQB3CTpvpflPdhTG+Xowj3kUEiAAR6AECSuOhtIO09SsFV3zJaS/bIMMRXrUhq6RaltS1PTAboyJaX48ii1I1XjbKNIkRASJABNqOgGTOs73qWpytL7UCUn0FEW4ZaBw1EQiI4w9G0NzTn6Jb/FfFuNuEDhbRkCmG4lzxTiJABIhATxBwsfhKOmjJ0OcbpDIiIHP1Kqq09ex1cWCXH8YlvsnVBn7UAfvbUcXuJOFSG/Agj0SACBCBRhBwlTlvEOGrjQhYoFFJPyvFhAKNf0y2D0Y4nuzdl33pEY6HY7woUyZSn96H8scFRPL2lqQuhcaJRV/uda+L/qQtb4EgY0SACBCBphGQhXp1O9tCz0vFO2bBa1rdjbYvIyauAk7JKtiosGycCBABItAGBEKNZws58brb6WS43YN6AW3QSdd4lLwMsiDPkZ290jX8KA8RIAJEwAoCMlQqC9pcdM5BjLd92RlgBUwS3Y7AEDuUxjNO7EtyCjDI3K4DniECRIAIzEJA5rdddNBJGxGOcwHdLE107/wgwiPObGuEB7qHICUiAkSACFhGIIzwc2cddYRXZFjYskgk3zACTgszaRxjxr+GFc7miQARaCcCuyIErqYCJNBIAo5D2NlOtMj1IgQkHbSzgFLWp3Dof5FKeJ0IEAEiMBsB2a7ntNPW+CXXBMzWRyuvDLHD6bD/xuJUrvpvpbGQaSJABLxCwEWa4C1BhsaJ4BD2eAUCmamEgBRgkhLIW/Rbd/fIouc9qD5ZCSw+RASIABHwEQFbefNnOYZghHeWY3zWRyzIUzEEJvv8nZZgFrvZHWO5GIe8iwgQASJABBYiIJ2qdK6zHLaN85K9zZcKggsB4g1bEPjYQXw0iPCGDbuYRTPQOBdEuG4LI/yDCBABIkAE6iMgnat0srM6YBvnk9rwEW6uzz0puEIg0NgTxHjLhj3MpTnCPlcysh0iQASIQO8QcFUwKNvRS9AxiHBwaYiLegd4ywQOR/hSxYJKyOq87LFkr2wZVGSXCBABItA+BFSMn5TtoE3cL6ljWdDFX3tJqikuWqBn47rGsV1DfNBfZMgZESACRKAjCCQru0d41YRTL0sjWYegcWNHoOyEGLI+xPUi0dRuJJW0rDfoBJAUgggQASLQBgR2fR8fDjROph2xy99ksdcImlnemreUpHqkFHWy8WW/mOa7u0e4onkUyAERIAJEoGcILB/AJ2WlfkOdP2RKQLIV9gx2b8SVdRlN6V5pnFUxrvEGDDJCBIgAEegbAvIFmKzUX/y1VmuR1yxHIwHIIMK9Mi3RN+ybkjfU+EKg8ZtZOrF9XuwtjPDlpuRnu0SACBABIjBBIIzxddfbA6edTBjj1wONL1Ip9hCQuX5XZXyn9Zv+ndgZt4XaUzIpEwEiQATKIhCMcWvaSTf6O8bTzARXVnvz75cqjcEY9zc53ZPalJSpns8trxIBIkAEiIBzBAYx7ko76qZ/xWE5B6CDDSqNG5sc7s/akUz1dBBiikQEiAAR6AYCXgUBMd5WI+y7dIhLuoGuIymG2DGZ1nk564AbPmZ1P0fqZzNEgAgQgcoINJEtcK5z0jgjK9aZRGi+SpOhfo07VITjc/F0uOAzmfPXuHM+57xKBIgAESAC3iAgX96+OJEtfET4UTDCVd4A5QEjaoidyRy/42JPW/QyI6iQtSUeQEQWiAARIAJEoAwCSuO2Ip18E/dIjXoZ5i4jT9fuHcT4TBDh8GRPvZVtmnV023f9dM3eKA8RIAI9Q0AWkfnqYMQ5TUocHxlE+FwfMgtK4qQwwn1K45d1nLPNZye5HT7Xs1eF4hIBIkAEuoeAZGwLYpy26TRM0JbUxsEIWo1wZZe0sPxDXBpqfFvFOGoCJ5s0koDsAK7uEv6UhQgQASLQawRkAV4QN1NAqJLDinA8HOHhj8f4ShsrzUnQpUZ4IIzw80ryz5iTt0lLthsGh7Cn1y8KhScCRIAIdBEBSdcbRHjcphOxQlvj/XCMF1WEFTU+/3U6xA7f9KPGuCzUuF2N8MRkWsO7Of15ugk1nuV2Td+sivwQASJABAwjoDTunOcMfL8mDnYSyNwt6YddFyQSRxlGuFYWWSYFeTSO+Y7ZPP6CEe42bGIkRwSIABEgAr4iEI7xKaVxYp5jaNu1IMJr8gUexngwiHCLLCxcjvFZqZq4Z4QrJFCQL3V1CDtlz32qm8sP4xKpaS8pjOW+wQF8YrJC/zopehNo7A9jPCrD+aH2fy1FCb29KXaQ4sBfIkAEiAAR6AkCsv9ctuOVcBitGtamXJiprzDGj/s+5J+U045xUzK1pPGYTDPJOpkgwhvJegiNkyrCmdSOZHdEMvoU460kWZPGsYHG0WRLa4QfyEJPGZFSGqonXQjFbDECpe1/hHek6FuylizCunxsqRhH1BhaxbhbPpa6toC7xeotzvpkhfpMZ5F2gPyd7VDbgk2g8V7fkvvICI84Zkm2pKTjcjTyFWi8IZ1kkp6bOyuKd0i80ygCTdh/EOMtCagHER4JR/iujMQaFYrEzCKwrHG5fM20xZGRzwrBSIRX+vB1mmy7jPBN2UWiPFqfIcFXEoCM8EBwEDeYfYNJjQhsIOCr/Us+Ghktk6JiQYTrqC8PEfA2hXAD2+I6E2RonFUxOl3MR7aKyrqPNk1pyXqSJBNkjGs87ArIUosQaKP9J/1rhHV5b1sEdfdZ3S0L4Tga0IkpERmGc71LwtkbMsRFMu8o6xmSr+sWB4kytyp5I2Qkzhl+bKjdCHTI/pXGKUkC19m+qo2W5l1VwRZ38K5HE5JcBBq3tdHuFvEsuzVCjQel03CNq4v2kt0mEb65CAde7ycCnbf/GC+oCDf3U7ueSZ1sndtY7dmJL2IXHXiTbUj5Xll4I1sdPTOleuwMsWNS1+KZQOMPTWLsrO3JV5F0+PXA49OtR6CH9h9q/FYWEH5kiA+1Xn9tF0D21Pu0oMpZJ9ymUQdJnxzh2rbb2jT/sn5BtuX1WudjPM2V1NOW0Y+/e2//GmeSGjFjXNYPjXss5aTE8Ju97oz9CwpOylZOj82mEmvBCDclc+P+4d3YaJisd+CIQCVzat1DtP/tO51kdJPrZJo25SEukkCAnfN2A3UaGMl+do07pcZD0yZhsn1JUMJFqHNsS7ZTaTzYxiJZJu2kq7Ro/3NsX0rIa5xLEhB1bZqzjQYtSWUCjV85dXw9/yKU4fDz82PfaqO9zOM5SdMc4Ue0pfkd4CY+skZA4455mPJaexCg/Re0+0n/n5S47+hC5/ZYrXAqC1Qi3CwpVDc7p547aRs4SGa5ZM+sh9UQaxnsEDvEkWXT7trAr8M0j3JYtJYFNvsw7b/WlFqg8TJTEDdrwputhzG+fj7L0wsd7mxrGWsVXMIRXlUxvrYJcocOJOeEbHurgguf2frFFEa4r0Om0QtRaP9bbbjOO51UZs0UeeuFAfkqpFTVUxoP8auuooFL9j6Nx9QYV/uq4zp8yboFcViSHrTOS89nt9qXjBKxwmMdy3TzLO1/q90ae48jHJegyo0W2cpCBJIUlTK8G+N1Y0ru8PTCZBplb+f28WcsJckt4VGO/k7a5QgPZCDnoUcI0P4tOf+MX+DaGI8MPmVFxbgmiPC40hdKrHay880YYiH5IrwkWReDQ9iTYtXVX7EByYFfCJeyOPL+rdNTYzzNnQJ+vUm0f/vOf7NvGeGJvpc898v6M9xINagkuUMfRwYkABrhCVnQJ6U6M7B0+nCSQ2Krk6LTtopHEOG1QYxdnTaslghH+3fo/Cf9SrJjaoxPtcRE+snmxw7io7KdMHGKI7yzGcF1yDlMVvAfCjW+0EcthxF+0EW9tkImjVPMItjsW0f7d+/8s++mFA1r1gLYemEEpLOaFCL6SWtTwGock5dedkVIfe7CwnfsRjXExW0q0ZvtNLp2HMS4qWPm5b04tP9mHf+Wd5gFhrx/X3IZVEPs9HproSxo03gsGOFumdpg8YoNNcr8W7JHt0MjOVs6lDbKxcQpuX2MjZO0f4+c/+Rd7WICNRu26x1NmR5orPOVsrPyRR9jNYhwWBy9VKbjdpPZZiKjHjL/3JjO2uicXfGscedszfGKCQRo//45/0xftNeEjknDIQLWAoCNr/frlcbW/wdwtaTmdChiZ5pK1nTodmWFlLoWEuDJtM0gwr0qToK826Qgy6QM8fUfj/GVJOOlxh3Jro0x7g9jPJokMpIg0ZUDN9HOCPs6Y3CeCUL799r5J4tuwxgPemY2ZGceArYCgEDjvXnt8lo5BGSPs++1ISYLMg/L+gxJWFVOwtl3y9RPsn4lxl1BjCeV50GBFBSaLQ2vVEGA9o/PDtpi/8ycWcXEm3nGVgAgX21cIW1Gp7JWw8sKkRt5J47IIjjh0Yy0xagEI1yVdIiepscONPYXk4R3LUKA9r8dId/tX6qpbueaZ7xDwGYAIMO53gncMoYktamKcdSbYXApmRvhSfnK96VcclLtLcZen9ZGSGlVwahl5uYdu7T/xSrx1f65O2ax7hq/w2YAcD7f/tONC9hyBpIhbxNz0zVpBDHeki9u3xMsSfWypKZ5TXmNBFwb9RiuabkJNso+7b8c/F7ZfwwEB3FDOQl4t1MEbAYAgcbvZb+uU4E61JiKEBtxRDWcoczrS6a1pSEuahO0yYKxEXTT6bGDEd6R+es2YecLr7T/6prwxv413utq4bXq2vHoSZsBQOK8mCSikrZlX22jzn9ji+ZtlZj36KHJtrHDjWIZ4bjrNRIeqaASK7T/SrBte8gH+5cgeHeM5W3M8UTzCFgPADgNUFrJgxifCTT+0IjT0jgrtSS6VuxGdiWEMV5oBNMYkLZLG0JPH6D9m1d80/avIryyNMQO85KRYi0ErAcAGu8zg19xFckc+/mvn9824ahkvrXrw9XhCF9S8kVeY1qk8rPMEbDwRaD9L4So1g1N2r98WNRing+bR8B6ABADsnjMPOfdpNhEfn8ZopOOoZuIbpdKVpYHEQ5VduQVgwcZ1eHW2O36yJ6h/WfRsHPcoP2f62vRNjuaNEDVRQAge9gNsNp5Ekkq5IrOpYYzO9rXzIyyQlmCnxrYlS45LLspOCKW/yrT/vNxsXW2Ifs/LQsUbclEuiURcBEASAfL7SDzFbN8AJ9UGu+7ckaTfeoP9n1eToKfJOWww8BrEOGp+dbQv6u0/2Z03oT9y/vW936nGW3ntOoqAFAaz+Q0z1MTBBqYl/4awb+AgIrwI1fBVxIQj3HrhdZ5RPtv1gZc27+KwcJBzap8o3VnAYB8YY1wpQ8y+8aDGuEBZ85HVvkzOUeuCUhFSld6SPIDfB8fzmWkZydp/34o3Kn9b+QHYFG4plXvNADglsBt6pbSx862/Gmc4SK0bSrYcsKxM3psS+M9/IP275fSXdp/EOFxv6TvITdOAwDZDz3Gp3oI80yRA42XXXx1hhqnBwfwiZmM8MImAjI86UInkzZ6nSqY9r9pdt4cuLT/MMK13gjeR0acBwCyAIT/EgRCjdudOBqNM1I9jLAXR8BZJxjheNvSLBdHcf6dtP/5+DR51Zn9a/ySCwIb1LTrAEAcHqukLS0lKTpdbEFjQZrKb9cgwkEXAdogwr2VmWzpg7R//xXnyv5l+6f/aHSUwyYCABXjpO9V5WyrW42hXTiXMMKXbcvSZfoyT2lbT4EsiBpiZ5dxnJaN9j+NiJ9/u7B/KdjVd3/QmPYbCgDQ5wUgYuxJp2977zkLMdV/r4bY4SI7XTDG/fWZbQcF2n879JRw6cj+wwj3tQiV7rDaVACQTAVofKE7SBaXxMVKW0l1W5wj3jkPASlprWK8aXkk4N2uFWCahSntfxYyfp53Yf9JRk6WjndvAE0GAEpKzo7Rq72g0slb//rXONbXhWW23iAnmeoirNji3xe6tH9fNFGODxf2P4jwnXJc8e7aCDQaAEiK4Aiv9clZyVCXzS/JQOP3Xa/oV9voKxKwvTI6iHFavrYqsteKx2j/rVBTLpO27V8+CKVQUW7jPGkHgaYDgIkzPGJHOr+oJl8/tlf+c97fqtJDjWdtBnDSyVoVoEHitP8GwTfUtG37Z+VYQ4oqSsaTAACBxh1FeW7rfbb3PbPIjH3LkEpmsmrZVhAQaPzKvhTNtED7bwZ3k63atn+lccIkv6S1AAGPAoBzXc8PoGIcteU4lMbZ3TGWF6iblw0gYLts7SDC5wyw6R0J2r93KqnEkG37/3iMr1RijA+VR8CXAEAco+TE72qhmj0jXGHN+cdAH5PJlLd2Q08MsUNpHLOmT43O1Qig/RuyPR/IWLb/MMKTPojZCx58CgAmQcDvu5gfOozwA1sOI4zx614Yq0dCio3a0qcs5PzIEB/ySNzarND+a0PoFQGb9p+8V4f6lRirMeX6FgBkgoBOZbCTYjzWHAbL+y4ta1wu60iSkqZjPC2LlcIRHpZFRbbqICiNx6zptGNrYmj/drv4rtm/0rjTLmKkniDgYwAwCQLOBWPc2gU1BTFusuUowjFe7AJGVWWQ/clhhJ8XwPd10yNLgxi7bJVyHmgcrYqJb8/R/u1ppKv2H8R41R5qpLyJgK8BQNqhd2FuO4jxZCqP8V+NGzeV2bODKhnlZITAJEw2RwG6sqiT9m/S4i7Q6rr9qxGuvCAtj6wg4HsAkDjMEZ6QPcRWAHBA1Nq2Mcn419N/tfYjR3jJFGzSSRkP6tIaER0ZBqX9m7K2C3T6YP+hxoMXJOaRFQRaEQBIhxjhuMxzWQHBIlHZ1WDLQYQRvmmRdS9JS6YwI8V5NB4yJWCtzjh19jm/IqcpHpuiQ/s3i3yv7H/EaQCz1pNDrTUBwMY2wfdCjW/liOHtKSnKYyUA0DjlrdAWGTPpbE2tCbDp5No88iVmQPs3+zL0zf4vHeISswiS2hYE2hQApI5UFkipMa7eIoinfwQav0n5Nvnbx2p/Jjs/0UWg8bIpszkfmP7WpH5TWmGEVu+Gof2bsrClJdq/OSxJaYJAGwOAtHNUMY4s/xCX+qpMm/PD4Rif8lVuG3wpjWcyeoep4+AQ9pjgdxDhoCmepui0tk4G7d+EZW3Q6Kv9S/4IcyiS0jYEWh4AiCN419cykrIHfaozN+O4IhzfpsgOn7DV+YluJK2pCeiScqk58/h19S9f0Cb4a4IG7d8M6r22f6kWy3/2EOhAAJA4VSmiomJ8zR5S5SnLCEVdB5D3vJRULc9N+54wtuBpjmOWZEGmkJnYoJkgL8NzW+dBaf/1LIv2n0zTnVNDZgWsZ0lznu5KALDpKDWOSUY4H+qqyxzzJl+ZDr3uOfnanKPSzlyy+eWT6sBkBcVgBJ3SNfrb0lwPtP96ryLtH0kwPYjw1XpI8umZCHQuAEgdrcYZSfrSpLO0sf85iHF6pjI7dMFF5ydOOojwuCnYbO0GaOuID+2/umXR/jecf/KOjnF/dST55FwEOhsApIGAdPIx3pLhSCk37KrIyvkMccroV+BEHpNfrHMNo6mLG5XGrCz4y9OHyUVGMupkJTWwxjNNqaNqu7T/isjR/vOm0H5SEU0+tgiBPgQA2Y4/KTkc4TUZHQgi3GJqFfg0zjJslW3X1HGo8e3ptjrzt+POT3QSRPiGSfysDHu3MOcD7b+CVdH+85y/nHu9App8pAgCNgKAQOO5ggVaZinc7XmZLtB4OYzxqBphn+y9Xo7xWakiJ/nYLz9cPhmF1DAw5fSzdGxVtitiK7bvOZ/b4emsrLaPpeyu6bUikr7UCt9jXGYbf5P0af/l0aT9Xxj2z75D8p6WR5NPFELARgAgNF2sYM0aSS+ONc4WUmrbbmrgy0fsxUYyJZlm6oUtZqbYnMlL+zf6YdQm+98VIWhbt9YKfm0FAKnwssjKWQfRRKfkss2OFv9x/eWTOH/5+rfwVS0jNLT3/C+52rjQ/o0FAMnoV4vsXxbYpj6FvwYRsB0ACKuy17r2y+/S0fra1ghPGFT9JqlwhC/J14BM2wQaJxNdaZwIY7wgJUcHMT6zebPhgyac/0Q+a2WUaeuWAgDav7EAQFncWmrD/ju99slwn1qKnIsAQBgKY0tzo746awt8CYallLvg5iDCdbLAptALK6l4NdQCkqUuN+b8I9xcitGSN9vKf19ITxbszpd2af+GAqs22v8YuuRryNuLIOAqABBeVISbk6GnDndSNjvLYIxbi+h04T1D7AjGuD/QOFeKX40zH4/xlYX0F93Q1Jy/xh9kjn4Re3WvqwjrpXDl+1Doy5b2Xy8AkB1QLbb/1tbEqNufWH3eZQAggkiBEH4hVXuRTc2D1c5Yp3FnZaPsuPNPbFzjMQYA1Wx8Hm60/+qYunL+1uzf0vRP5X6sKw+6DgAEN8lt7irT1bwOpW3XZGtiXbsztT9bCr1U4UUSGTWCu+VhzywWSuOhRmTs+EgC7b96ACCjr1kbtXlsw/7DGKs2ee4t7SYCgBTscITvWsmc1tGOsG4OANmaGcR425hz0rgt1eXC3x58+acYWMsF0FG7LmqPtP/yAYDLL3+r9h/hlZQ+fw0i0GQAIGIMInxO8tsX7QT6fJ8kJaqjeimbbBq/UOP2Ijx1dcFfnuyBxn7TOJMeQPsvHwC4/PJP3wUr9t+zEugpltZ/mw4ARMDlH+LSQYRHSi9K69sX0aF6ZTFtpKkVnYURvjnTUHv05Z9iINMjdNgVnNWi95n2X2ixpNheE1/+Vu2/hemwUzy8/vUhAEgBCiNcG2i8wc4zv/NMcaryu2uID9rEdVYQEEZ40ma7M2k7nPOc1ofUmJjJ1yInx+szndw0zmX+pv2XQavevVbsv6tZIOtBXf9pnwKARBr5Yoyx10Yp0dZ3ykNcXFXje0a4wqb82744evjln+pGadxmE+ve0qb9zwyOUpvY9h6mRunw14b9sx6AJQV6FwBM5JQ0rUHc0Nejp19hMlVS1QxUjGvSTsLmb7rPuI9f/qluOAWQP4JV1+5o/wVwbXDky7L9n0zp89cgAr4GAKmI4RifUjF+Urfz6MLzdQpiLB/AJ11h0FQlSNOlfVMbLPsrFSVdYd2ndmj/8wOATts/FwGW7YaK3e97AJBKEWjsUTGOKI2zfer0srLW2QYlIypZWl069mHYM7VT+eU2wPmOqqrt0f7zce2D/QcRXsu+Yzw2hEBbAoBU3I8dxEeTTHYaZ6p2JG19rm4iFBVPCv14OsVRRS++dX5ip1JYqYosfCbfwaW40P6349Mb+4/wUuoD+GsQgbYFAKnoaoiLZcgr1Hg27SC6/itZ/FL5q/wOIhzsHEYezHlO64JTVtsdlQm7o/3n4NoX+9d4Zvo9498GEGhrAJAVXQ2xUxLSnK9u90KXcwlIIp+s3GWPZQ5VvhhMdMZN0/DxyyfVhwxXNo1PF9un/V8IAPpm/2GMH6fvF38NItCFACALx+WHcUkY4cvytWsj8U2THWs4wsNZWascC40mZTDWtodfPqk+Ao33jMnZoemaupjQ/i8EAE1k+Evte9GvDfuXabVF7fJ6BQS6FgBMQyBTBWGMz6sRHkjKtGqcqtsRNfV8OMaL0/KV/TuZOtF4uSkZjLTrsfOXNSpGZKTj37bnnfY/CQB6aP9Vi4+V7R97d3/XA4A8hcp+4iQokIRDMY5Mtq29633HrXEiT56y55JRkhFe9V7eHCfoy1anWZifn4a6ro24toJn2j/6av+mSkHPem97e76PAcA8ZUupYvmKk/lyyZ432T9/jRQtUhrXF/0vtQ1sdKrC2zz+i16TICCI2xUE+N75CfZJFsucwKWuLUiq5aK258N9tP/McL0he+iz/dctBFW0X+zdfQwA7KhcMuLV7fTzng9i3GSK47aMBPi84GlaF1aqHmq8vzTEjum2fP6b9m8uAKD946zPtt5q3hgA2FFfcChJXLRtHjPPqZc5F0Q4bJJjKZISejwd0KbOT/QSjPBOGX0WureFtdBp/2YCANp/guPrJvs80sogwAAgA4bhQylgUaiDLzNEqHHMMJtLvgYB0vmZHPEwjds0PYvplo9Mt9WGv2n/9YIA2v8EvxGeaIO9t5JHBgD21KYivGQ8AIiBOkVRZkn7kSE+1FQO/5kYebzaOQ9HW0WAAo078trz/Rztv14A4PNWvzzbs2b/Y9yf1x7PGUCAAYABEGeQkOH6mc6tzFf/1L3BGLfOaLLWaV+2CLZt2DMFPdlmOqUrE/qvmwI35c/1L+2/WgBA+9+K20Dji65ttzftMQCwp2rJTmjCAUzTkIyHtrhuOghoa+e36/v4sI0slEJzaYiLbOnbJl3a/1ZHNv0e5/1N+9+KmeDx6SP4gE077TVtBgD21D+pYGh+IaDGOVPbAfOkbyoIkJe9TXP+WewkTW1eh1733EDjaLadNh3T/rc6s0W2QPvfjpdMS7bJ5lvHKwMAuypTEY4vevErXR9hn03OJQiQzGuVeKswDN7WL59UB0rjmA2swgj3pW208Zf2v92p5dkJ7X8GTiM80Ea7bw3PDADsqiqM8IO8F77uuUDjDbucLy3J0JuLIKDNXz6iA0kYVVefM58f42rberZJn/Y/w7FlgmTa/xyMNK63aZ+9p80AwK4JhBpfmNm5ZzqBSvc4eDlsBwFt//IR67FVYCnQOGnXOu1Tp/3PcW4xQPufg48+nwCoZQmw7L9RhltgAGAY0GlyQ+ywUR1LAoYwxup0czb+liDAxgr3tn/5CNayJVNpvF8pgFscALZy//8WG6T9z1wDRPuf4/w3+jdri5232Gif/2AAYF/7QYwnLTkIBCNcZV+C8y0McZHJIKALXz6Cu4oQ29KtlLV2olvLjdD+tzs62v92TKbfo1Dj25ZNk+QZANi3AUnoMW3cxv52nCUr1HjWBHE3o0oAACAASURBVO9tKGyyyDLUIey0NbqjIpyRhZiLeGjDddr/dmdH+9+OyXS/YiPhWRveF6c8MgCwD7d05CqGlXLDsk9cKhfal2LSQs2RgK58+Qgagwj3Tndapv6WdQXOdGq5Idr/BWdH+7+Axbx3JYzwpGWzJHlBgAGAGzuwtVBMXiIZYnUjxaSVIXYMIhyc9wLnXtM41ZW63pO5/zO5ci6e2585L5zSC8f4lFOdWm6M9g8o2v9Cu9+0/45Mf1l+reqTZwBQH8MiFNQBXJ0at41fWW1dhA+T90iKzsL7vDUeU2NcZrL9JmmFMR61oceEpoWCT01iJW3T/mn/hd8XjVNN22tv2mcA4E7VtpLFJC9WhOPuJNnakszxSnribS+4xhn58pMqeVufaPdfKsY122Q18NWf0uzq4ifaf7vtPuXetv3L6GLaFn8tI8AAwDLAGfLSsaedvI3fQGN/prlGDtUIV0oHsTvGciMMOGhUxXjdhv42aR7CTgdiOG+C9u8ccisN2rZ/ZzubrKDTMqIMANwpTA2xU2mc3ezoDX41pjT58tjVp6TmTbG28RtEeNyuBM1Rp/03h72plq3bv8ZzpnglnQIIMAAoAJLBW2ylRt10RlJ7oCPbxwzCboRUGOFaGxX/Ut0ltEe40giznhKh/XuqmAJs2bZ/eQ/aWvq6AHx+3sIAwK1eZCGcxcxxySrbQYRH3ErV/dYuP4xLZBV36qxt/PZh6xPtv53vihP7H+PFdqLTYq4ZALhXns0tURnH9DX3knW3RUm7nMG28HamUs90/Os/tQ7af4pEe35d2H8Y4/PtQaQjnDIAcK9I+QqShCClnEPJ9QKSoa5rq+/da2qjxWCM+23qKqGt8UxT8rlul/bvGvF67Tmx/xhH63HJpyshwACgEmy1Hwo0/tG6U4lx8mMH8dHazPaYQBjj6w70BNXysr9lTYT2XxaxZu53Zv8aNzYjYc9bZQDQjAFI+l4njiXG67uG+GAzUra7VVn05ERHPfr6Ty2C9p8i4e+vK/sPI/zcXxQ6zhkDgOYU7GhoDVLFj3W1y+lZHFQwwju2A4BA4/eDGLvKcdeNu2n//urRof3/YXAAn/AXiY5zxgCgWQUHGr+y7WQm9NtfW96RqmTapHCK45JrM7bpeoR9jsTyshnav39qcWn/QYTD/iHQI44YADSrbKVx/TanUNepzHh+EOGppSEualZiv1sPNPYojRMudBJovNH3kRnav1/vg1P7j3H6I0N8yC8EesYNA4DmFa4i/MiFw5E2wjFe5JqAfJ3LrgkXw/6iB0n607WKf/moLj5L+1+MkYs7XNp/8g6McasLudjGHAQYAMwBx9GlpLRsjHddBQFBhNekTUfitaIZKVMs8/GudCB74VsBjAMmaf8OQF7QhGv7D2K8uoAlXnaBAAMAFygvbsPZdpt0emBjmPuaxZx1/w4VYcWV45d2whi/5ijMVrui/W/Fw+Vfru1f3gHmKHGp4TltMQCYA47jS44ypG1msZNkRIMI33EspjfNqUPYKTskXDp/SQPNzi/fBGj/+bjYOtuI/UsArPFtWzKRbkkEGACUBMzi7VLEJ4jwhlOHtPFFuiqV2iyK5h1pKToSaJx0jjU7v5m2QPufCY3xC03Z//mEV08bF4YEqyPAAKA6djaeXNa43OVc9KYD1DgV9GBRjnz1yJemzap+m5im0y2TX8mnbsNmukST9m9Xm03av4rxJlf929VvaeoMAEpDZv0BpXHbLCdi+3yg8XInh6iH2BFq3G67ot8s/YQav5WKataNpwMN0P4tKLFh++fUlwWdmiDJAMAEiuZpOMqVvrkeYJvj0njo0mE3HFayvUnj5W0yTn2hW7uucZZb/sq9I7T/cnjNu7tx++e8/zz1NHuNAUCz+M9r3fkCtSmHKHviQ40HpXrbPD59vRZEuE6SH1lz7FN4zWrn4zG+4itGPvNF+6+nHV/sX2k8Vk8SPm0NAQYA1qCtTViGjCVb3CzH4uy8xvvyEgcjXFVbKNsEhtgRxLhJxTjqDJ/5gcBe2yJ3lT7tv4JmfbN/1iGpoESHjzAAcAh2haakUIyK3a9Wn+U8BzpxrHfv+j4+XEEca4+oA7h6EOFgEOPtWbw3cJ71F2pqnPZfDEAf7V/WE8nOjmIS8K5GEGAA0AjspRqdzOE5y1JX1FHKqnYV4eamsgoKLmGE+5TGL4vy7Oy+Hpb4LWXUJW6m/eeD5bn9H+vKGqJ89DtylgFAOxQ50PiiM+c1f0g7f+GgxjGp7BWMcJNUE7OBqpQNHcS4S+b1XeXsr4R5hJeY6c+sBdD+l5baYv+S6dJWH2DWqkhtiQFAe4xgEOFzgcZ7lZxSFade75mTKsJLgwiPBBr7BxG+Gka4Vr5azq8nUEnJ0cnwoMz1ykLDPSNcIavlEznHuFWN8MDEPl9vi9zc62/vfaL9Iz/4rveemqUpKcY1lD0rIGWjCDAAMAqndWLiIJXGmZYEAWY7F586ujxeJMvZEDusG0GPG6D9+xsESBZTfvm37OVkANAyhS0tLSVzfxqnGQT40xkGER6n83fzLtH+/bH7zT4owkvM8ufG/o22wgDAKJzOiMlwuWcr3vv1tZ8ZAWBpX2dmv9kQ7d+fICCM8eNNxfCgXQgwAGiXvrLcynBbEOG1zSg845R4zn4HKdUUVQzu888apcNj2r99G1/Uj4QRfuBQ5WzKNAIMAEwj6pae7LOVCHzRi8rrhjtLjTPBQdzgVttsbRoB2r9huy7xERFo3DGtD/7dMgQYALRMYTPYHUS4t4kKd30MLAKNXwWHsGeGKni6AQRo/04DgZNSTrgBNbNJ0wgwADCNaHP0ZKtdI6WES3w1tD5giPASq/o1Z+PzWqb92w8CJLufb1lA59kEry1AgAHAAoBadln24HqUB78zCwMlsBpE+A5X+vv9QtD+7QUBkmqb9u+3/ZfmjgFAacha8cD5+vPfUhHzBZgYcThfVe2FXRGCViieTCYI0P6NBgLvhjG+TtPqIAIMADqo1IlIkl0v1HjWhBPsI41Q43Qwxq3dtZBuS0b7rx8ESH4LJvfp8HvCAKDDyp2IFkT4xvkvot/20YlXlTmM8SjnOrvxbtD+KwQCEY5L6uVuWAClmIkAA4CZ0HTqgmyXUhFWmEZ4fmcYRvh5MMJVnVI+hVmi/c+3+zRQTmpujLBvaYiLaDY9QIABQA+UnBFRhvNUjCPpC8/fSceocUIqGWag4mEHEaD9zwkENB4bxNjVQbVTpFkIMACYhUy3z0tp0UDjud4HABqnpMRwt7VN6aYRoP1vBALyxR9EOETHP20hPfmbAUBPFD1DzCSneoRDKsa7vQoGIrykItz86SP4wAxoeLoHCPTV/gMNKde9cukQl/RAzRRxFgIMAGYh06/zMkcqqT2VxrGuBgKTr53DnOPvl20XkbYP9j95r48yhW8Ri+jJPQwAeqLoEmIOYnxGaTwk2+C6EAzIPv5Q4/ZdQ3ywBAy8tacIdM3+lcYJNcIDTF/dU4OeJzYDgHno9PzaEDuUxo2yFzhZHdyilL9SJVEy98le8J5rkeJXRaDN9j/CO7LYN4xwbVXx+VwPEGAA0AMlGxAxGSKNcMskGPiNbyMDk+H9F4Ix7l/WuNyAyCRBBDYR8N3+J+/j68EIWmlcv8k4D4jAPAQYAMxDh9dmISDbqSQ9qOQHlwIhSuN9x0HBm1IGWVbwqzGuZo7yWZrieRsIeGD/CGKclncgiHCL8GNDTtLsOAIMADquYFfiDXHR7hGuCCN8WcXYG47wsMy9BzHeqlymWOOMDOWrGD9J5jAj3CJlSLly2ZVS2U5hBGzYv0y5aZySAFtG3pJ3YIxbZVifU1uFNcMb5yHAAGAeOrxmCoGPDPEh+UqRojqy9Uq+2lWMayTdqDj1ZF/2IeyRjk0dwk5T7ZIOEfABgUX2v3wAn5T3YneMZUlBLff7wDd56DgCDAA6rmCKRwSIABEgAkQgDwEGAHmo8BwRIAJEgAgQgY4jwACg4wqmeESACBABIkAE8hBgAJCHCs8RASJABIgAEeg4AgwAOq5gikcEiAARIAJEIA8BBgB5qPAcESACRIAIEIGOI8AAoOMKpnhEgAgQASJABPIQYACQhwrPEQEiQASIABHoOAIMADquYIpHBIgAESACRCAPAQYAeajwHBEgAkSACBCBjiPAAKDjCqZ4RIAIEAEiQATyEGAAkIcKzxEBIkAEiAAR6DgCDAA6rmCKRwSIABEgAkQgDwEGAHmo8BwRIAJEgAgQgY4jwACg4wqmeESACBABIkAE8hBgAJCHCs8RASJABIgAEeg4AgwAOq5gikcEiAARIAJEIA8BBgB5qPAcESACRIAIEIGOI8AAoOMKpnhEgAgQASJABPIQYACQhwrPEQEiQASIABHoOAIMADquYE/E2zXEB3d9Hx/eHWN59whXqDGuVjGuCSJct3wAn5Tzco8n7JINImAUge+u44/+9kV8eN+/Yvme53DFvc/j6ntW8T/3r+K6/Wv4Uzkv9xhtlMSIwCIEggiPqxgw+l/jmUXt8nr3EAg09iiNG4MR7g4iHFYR1lWMN0vblsYpFeG4inF0EOEpFSFWGncGB3FDcAh7uoccJeoCAt/7Kf5k/7/hL/at4+57VvEPK6tYX1nFf66sA6X+r+F3K6s4vrKGX+x/Hk/tX0O8soY771vDDdJGF7CiDJ4gMIjwSOkOekHAEI7xoifikQ1LCKghdoYRvhxqPCj6VhpnTdvRPHqBxm8CjefUCPtkJMGSmCRLBHIR+D9ruHT/Ov7ynnX8/co6flbKwZcNCPLu3wgsnltZw34ZSchlkieJwCIEVIwj8zraKteCGK8uapfX24dAGOPrib1o/LKKXdh8JtD4/fnphBcGEe4dRPhc+9Alx74jcP6r/G9W1vBPydd5nlNu8twa3tu/hhdW1vF333sef+47luTPEwSSodoFX/SlO+4Ixz0Rj2zUQWCIHUrj+kDjH4MR3iltB6btqgw9jTPhCA8HI1xVBwI+22MEhtixso4vJE5/Df/t/Cu/TkAh/D6P/yvrC3qsQYq+CAE1hjbdsQcx3l7ULq/7i4A4zUGEg0GMt0zbRhP0BhpHgzFuVUNc7C/q5MwXBGSB3v41HFpZw3+1yunPCBjuWccrK8/jtuGLtH9fbMwbPsIRvmu8U9Y4442AZKQwAmGEbwYaLxu3hzJf7hbvDTTeS6YwRriyMCi8sTcIiJNMnOUaznXB8W+TYQ3vraziyD3rtP/eGPUiQZXGbVY6fH5tLYLei+u7IgTBCFrJynuLztc72hrPyPSGF0ogE40hkKzcX0N8zzreWemq458eGdiQ8zmuFWjM7Pxp+OMxvmKjc+bcqz86zuNEttMlW+z65PRzZA1HeDWI8I08jHiuuwjIXvyVNTyz7St52ll2/O/J9MBfd1fTlGwuAssxPmsjAJAV43Mb5sVGEFj+IS4NI/zAhs7bTHOyrfCORpTCRp0hIMl4ZBi8744/R/5f3bOG/+1MEWzIDwTUGJdZ6bgjrPghIbkQBD59BB9QMfa2bjV/zle7FXudtBNovMG8At17Z4Zv4H/InvmVtq3mdz0CsYb/YF6B7tn/XIlsJHEJYzw6t1FedIZAOMKXlMYJm46za7QlQZaMljhTEhuyhoAk7FlZx4mcr95yGfpcO+MG29u/jkck2ZE1pZCwPwgoC4ldZDW5PxL2kxPJva9i/KRrztmVPMloicadS0Ps6KcFtVvq/f+G/y/Zw591pOlCP/5u7HSYhYNgJqMla7T/dr8FBbhPUqoaHmoNNU4XaJq3WEJgsrvjXVfOssvtyELBPSNcYUlVJGsBgUkCn637+FNnlwYE03/z/IUREcFmgo8sFJRFkxbURJI+ICBJX2x04Ow03WtXtvUlufkNB3Q27KNNNCXVsARV7jXKFssgIMlukkI8qXOf/t34sr2wz3/6evp39r555+Zdy6PRtvtTGdZwVvIklNEF720JAkmWNAsOYxDjrpZA0Ak2k0p8G8luzFZ3tGAbbXL+W3gd4QlmFPTzdZG0t5MqehccfOrA5Hfe8fS16b/zHPcimtlnpulN/529N3tc9b6qz2XbTo/TX6G5in9m2WI/7b8yV+pAUpvdvNMY4+nKTPHBUgioCCuBxrktzoqO27xNx0AY49fLB/DJUgrizVYRWFnFX51f5X92c6Ff6rTS36IOMb0//S373Kz7q9Jz/ZzwPy3D9r9/JemSrSqUxN0iYMVxMCWwEyWqCD+yoj8GEHMDiFDj204UzEbmIpDk7c86qazTzHNo2euzjqs+Z5peVT6yeJQ9niVDev7CL+1/rmW26KKK8boNJyKJhloEQ6tY/dhBfFQWqNnQG2lirvNP8QkiHGqV0XSI2eE6PppkskudZPb3gpO6MB2QniviEGfdW+TZWffMorno/KLrs9qrcl6emffc1HUJvjpkUv0VRWk8lHZqJn+lPnt/UbUn+bLG5dzbX8xJm7TnPFpSdtiepkk5D4Fkvn8Nv9virFJHmf5OOast985zctnnTRxnaVRpt8oz2Tazx0VoZe/PO86eE3qrOJKnI55rEQLBCDfldW51z0lmtRbB0ApW1QhXyjbLurrh8wYDiBGeYL4AN6+PzD9P9qjnf91nnVzWWTV17BM/RTDI8lv0eB3/Qvt3Y/9WWpGsZ7YcAhdMmVNZOManVAzu7/dxfYIseh3iInPaJqVpBCRN7YqUtRXHNMs5ZZ3cvPtmPW/y/DSt6b+zvJY9rkKryDNl+UjvX8Mzwxdp/9M225q/gyjJg15o7rNMsCB5BloDgseMhhGundS0N66jMvoseO9JFeElSakbaOwfRPiq8C/BoNJQsn4h3U53+WFcIjUpJG+EBDiDCJ+TramhxoNqhCeSin2yD99Hpz/FU5KDgaWwrbxF+/8Nf7G50j91OtMOLft3ek/6m71m+3gNkoToZ5JSN6lBsIq/kuBFRi/+7qcIZf1Cup1OMhbeu4Y/lmQ7yejGOr6wso7/dc86/n5lHf+ysop/X1nF+2linpmBTxGZimAxj868axu0fya5GKwYAInaRUBFiG10skGMt+1y3n3qwUHckCSjmXI4NvRViabGMZkLlyqQtnLoS4lpyS0hQUEQ+zsFEmo8232LdCvhJJ+/pKfNH/ZPz6e/4qiy/7PnTR8LvY0iOv8g2xFt5dCfrHv4dhIUyPqHInJMO+zpv/No5J0r99xzbq2DrRlBQGlcX6nzL+CUxIEZYbKHROSr2EfnH8ZYDSLcoobY2YRaBgfwiTDCfSrCcVt2W5VuEOHxJjDpYpvJsH8RZ57ekzqw6d8iTqzMPatYly91Ww5/kS4lINi/hvuT5EfTss+TY9G1eddTTKfvkb+z51bxz4v453UPEbA2xBzhRx6K6z1Lu2Msqxgnqzoi089JkSelcacUGvIJvEGMz4QRfiCjTaZlrkqPWwTrW8j3foo/2SzhO8v5pOfT36wjmnZMZa7l0Eu2Ha7h2zKEX186cxRk6iDJh7Ax9bB4pGQah1TW9HfW9Vnnc56TlMzmJCQlJwjYqh4XaPxB5nmdCNGRRpK5cQuVGss6tER3Muw+wlXeQzvEDhXhZlt5LcpiJxkavcfMUwaTan6r+M8tX5azHFD2fI4zmkmj+L3/Il/cnkK1ha3zIwJ/s38drxeaIsjKXxVDeS77bPr3xrn9W5jjH34jIHO4pTu5AlMAQpP7pUvofsORvWRLF4XoapxVMY5IgaESnHtzq9RGkIWIhWQtaMNVaIUat3sDSksYkdXkK2v4ReJYtjqU+WsA0nuzji17vOGULtDIuz+9RxbereKILNprCWxb2EwWTa7jZ5sYZnHIO86ey8Mle33RcfY6iwht0Yv3f1ibBoiBQYxd3gPgAYOyer6KszH1TBjhSZl+8ACK2izI+pOm1wkEEa6rLUiPCCQL3VJHnP2dPp7+O+t48o4Lntv/PJ7a96/dsP/71nDD5jqBPPkFw/R/ej39nT5fFO+p+/av0v5b8/qGMX5sypFM0wkiHG4NEA0xGmp8axo3V3/LVlDZrteQ6PaaHeIiFWOvinDGFZZT7Zy0tTvCHmjNUL5nFd/JHVLOOqX0OP2dcjgzh7/zHFr22Y3V/P+zGcnttTp8A/8jwXUN/70N2xTD9Hcao+z5qsdr+K+mFkvaQ7WjlJOhU1tDohrvcy3AbMORLH9qY+jd6V7/JLOgxp1dz+YlixcDjX9sonJiGOOF2ZrnFUEg2QcvQ+9FnVDWeRc5znNgck4c4xru7HoiG1m8KNMamwFSFo8sfrPOT+sl+8y843Vg/xrtvzVveRDjrakvGJMOibmjcyxBEuNI6mSLuOfqUByTJObJYamzp8IYn28kl8AI+zoLak3BJDHOiiz6S51P+jvP6WTvKXKc76R+1rev0+89jz9fmVVLYRrvIrguuie9vgYuCqz5njh5PMnCZmkUQL6+ZG+7E0Fa1IjreX/RQzDG/V3/6p9lAkk2QseLBGVHBStk5mtkZQ3PbH75F3VC0w59+u/U8eSdX8M52Uefz033zyajAekiwVk4TeshD8dF92SvSzur+LPuo9tyCQONPTa/RIMIr7UcIqPsT7au5X6hW9GDxilJuWtUiJYSUyM8YAXjGQF0Mrp2qJnkSb6q6J41/O9tX/5Zp5R1IvOOs8/MO17D7+Qr2Fc8XPI1STm8fStfil/6K7hXPc4+t44TssXTpYxsqwICkunNZscYjHB3BbY694h8idrceTGtQ1no17ch/0VGk6x7cbv2gtNgE6XIavvcHP9Zh7PVgcx2RNlnZh2v4T98S+SzyD5tX0+2DKZrL7JYmzqe1gVLCNtWaX36ocYXpp2H0b81ztARLS1JbnujuM748pQ2JJPfR4b4UH3r6B6FpNKio10CMv3CKpkbNrQiKXXzHE32XNaBZM+XP/5FWoSnexZcTyIZmt/MupjF28bxxvRLKxIr1UO15U/LUL1V5yQlVHv8z+qOi6lAQPb29xjqQqLLLozz2zB/a9XmJ3oJYrxaiKkO37TyPP56c94/68zF6WQdz/S17N/Fj5+T7XAdhrO2aFKRcEXSCRfHdKuesjrLHmfppbpdxb/XZpgE7CIQRPiG7c4w0LjDrhR+UpdV/0rjhG18J/Q55FzQDGSbqqvdGH3OEpis+p/lbFKHkf6mTiP7d5ljDjkXtP6lpclWweNbArCsM69yPK2/VHfMElhYL83cOMSOQONXVp2UxtlW5Jk3rIFBhINWcZ18afLLv7zikiDAQWEh2YooNR/Kc9j+J6RYTKGv/yoOJ3Uwsv/8eTzVfrTcSnDvGv44GQmYxn767wzOC0cN8u5dw++4INCtbku35mSFeoTju4b4YGnmWvpAkvBnaojeRjDA5DPVDUSCUheZA/uYHTNJ+DPLmeQ5iln3LjjP5DPV7V+KH1lfE7AOsGpgdR05e9LJkKjGY84EarghW1UXtwQRGsdkmqFhUVvdvOzZt52ZURYEtrXgUlXlyld57te/Qee/Iqv9X6T9V9WRPJcsDJTdAale0t/pwGv671n35Z1fw7m2Flyqg22rnrVZJTDrtIIxbm0VMBWY3T3CFVmZbRwHI7zDlMsVlJPziIsRMElPnNN0J0/ds44r584v13Em8uzG87/jVj8z5rNloeYs3eQ59ln35pzfv45HzHBLKtYQcFFaVTKlDTS+aE0IDwgHER634fRTmvJFySQ/ZhUtZZFTfG38it33JWDbrPSX4wjmBgZFnczGfV8wawH9ppbUD5ilLzk/fW3670W6W8X7su6g3yh7Lr3MWycdle25a42znaxIt7S0JCV2xUHbcCIpzTDCfZ6bUuvYc1GnoQ9rAb73U/yJ7eHkPqf3tfViyVSKTKkkjr6Ic1/k8KdpcC2ALdWZpas0HkodjdVfjTNd3BlgO99/OMaLZjVOaikCwSHsUdpiOWGN96VaYdpeF39XVvHP274WyzqLWfeLU1nHz7qImw8yTYK39zYDuGknntXL9LXpv7P3psereP9vX+y2/fugx1o8SBa5wMH2qCS40DglNQlqMezRw4MYu2wGTZLAhjXn7Src+lqYCLFdCZqjvuXrv4hDmHdP3jXWnLeu3M31AKnTztPDrHMFzu9f6679W1eOqwYGEb5q05FlaQcaJ/eMcIUr2Wy2I0PzWdlMH388xlds8k/aGwgEMZ40rbuUntSEuHTYzbwAm0VnFjmPAo4i7yt0/zr+kjZqH4GFazhEf0V0mHfPGs4yL4B9HdZuYRDhqbTTsv0bapzuQt50m1n/uN+/tkkXJiDrOGxuDexqZszNxDJ5Hf8ipzH9zNT93O9f2Hxr3yhb9lbSwkHTekmDu/R31vU556UyZG0mScAuArJi2UWSlM3gQuNMmxcGBgdxw6YsNhZRjnClXY2TehYBmyWEwwg/z7bVheOk2tycTj/vi37LV2SeQ0nPcR+5cxORhZZb9DOt2+m/U13J+XnX5L41/MK5QGywPAIuC9mI8ww0fi9tlue0+SfCGD+2FgBoPNS8hP3i4NNH8AGZnrKoU9UlREsn/pl2EtN/ZxzK/jUc6hJWbZBFiipVHtHJ6G5L4JfRMRMDtcEKlpaWnO0K2PrVvLcl8CRsqiF2WnMUMdD1leO+6lqG6q3pdYQHfJW7LF//Zw2XbhkyznT0M78GZzmJ6fOreF/ol+WJ99dHYGUNd85y4DP1Krqfpf+MbmW9SH0OScEJAirG69Y6wq2OH5vtRFj/2EF81ImANRsZxLhrk+9Z8lQ/zyp/NfVT9fFJNcdTVnSrcaIqX749t28ddyed/qyOP88pzLs34ygkQY1v8vaFn0lugN/NdOizdJjVX/Y4e/8q/rMvOLZezmRRVGRxf/QM5yiLA9uQNVD25ttwEklCIY1ODRW37WUIxrjfhm6FZqjRiWx2sjd/y5dittNPj9PfrBNYdMy5/8Zfl821AIt0Jdez//P0nT23cW8nvHMEowAAIABJREFU7L9xJblgQByxrY5wEV3JoOZrJUHJm7CI/8rXx3jahW7ZxmwEZPolWZsyI0itrNsNeq3/upUtXQudf+oYsg6g2PEzszXDKy4QkHoLpfU7S7diB+k1+eXojgsVmmvD5tfQoo5UkhP5OBpgs5BMEOE6c9ojpaoIhCM8vMg+q1wPNH5VlSdfnltZxV9tfvmlnXu2o69xvH+V9u+DnpM6AYt0m70+T+dy7cL/1tu/D/pxyoMa4YkqnZ2xZ8Z4WjLuORV6TmPWCv9o/HJOs7zkEAFJWW3MfqdGEtqyzmUW3FLlrfQc8TwHkTqSVRyf1SbPu0Vg/xr+dNNpp/qZ1mHq1GddT89P/bKio1td1m9tiB3nv0xfsNUhFqEr2dQGEb6zNMSO+gLVo2Atd3yElXqc8WmTCCiNY0Vss+w9QYRbTPLpmtbKGjYWiU07hLSjn3d+3rU17HctC9ubjcD+dbw+Nwgoou/8e/7X7FZ5xUsEZD4+0HijbGdn+n4ZQg3GuLWpQEASF5mWSegli//GuMxL5feUKTXCPhu6DmM82lZI730eV9f6+s93CMk8MUvH+mUVK2vYvzl/Pz9wOzc3UNj+7D/5JSm5KYSADF0GGr+x0SmWpSl8hBq3Lw1xUSHmDd2kIqyU5bXQ/RFeMsQiyRhCwGKZ5zcNseicTKHtf7OcvDiC7c4gdR6s+Odcm/Mb3PevWN4MAGbptMp5bgecD7zPV5NOMcZbhZza1NynlWc0TiTJW4a42AVutub/z1f9+5Zt/ier2+8IIhwSOcIYq/JfjuWc8OBL5UF1AFcPItybLMYb4YlkCkrWgkR4JNR40FX2SGtTXy3d6rmyhn/adAqznflsRz/DYTBXvO23vxr9ZLtnGrjN0/cMvc6yFWYFrKYPL56SSn5Kw06ylIpBg6wRUDGOqBjX2ATJ1rywzYVhsmuhTN4CcXrBCDfZxDGP9uWHcYnsOik8yqRxJtD4x+CQvfLSsu7ERuDa1nUAybxw2tmnvwYcA4f/896I5s/ds4rvbDpxg/peWQfXATSv3uocSBAQjPCOjc6xLk1ZqyAdt/F0urIYUuNcXf62PR/ZWf0s6xWCGK9ua69gkDXQOBqO8anqVlLwySEuUjHuDmKcrsJroPEHyRthY/RC5K/C08JnohbWSB9iR+n0v0WCA67+L/iiuL9tZRV/tjm/X0SXBe/Zv9ZC+3cPv98tDg7gE74GAdIBi2MIR3g1jPCDj8f4St2a7CLvwo69oHOdomM2OYwEKiPoqTYupFwuwaMEPDIUb8sSxWmLjozwGuP0cozPGuV1iB1Wdn1otC7hTaGtYVW+EpkcxqjJmia2sob3NkcBCjr4hfevtc/+TePaCXrLB/BJn4OAbY5F45gEBLKAMFnRfwg7iyrCVgKgMMI3i/Kw6D7ZrTGI8NQ2uUs4/bxnZZ3AorbLXk9sx8Z6kgg3l+Vl3v2hxrN5mNQ6Z2nUZ54cda/JsO3Cjr2Kg+BwcF3VWH1+ZR3PzVm8eSHTXxndc9THqs6cEpc5WBXheK0OsaaDqtW2rGeI8JKsIQgj3JfM+2rcKdsNZS48jPDlMMbnlcZjtdqZIaPJJEfWFq1JHvsIT5oyrN2yjiTGuzbwTGgaDAJsbQc0hWVdOt9dxx9J9b3vPYfLZHHW936KP5Gv/WTL3yr+TLLzfe95/PnKKv7ZqCOYOAxZbV5XBj5vDwFb2wHtcUzKzhGQBVyyotxahz7Deba+PY1TppRlK0DJYiyjJ3X5lWF/pXEiS9f4scZZUwtCg4O4wTh/Ys8jXFkXyzLPi6OX1fYrq1hfWcV/bpnbFWe86H+V4f2UZt6zcm4NvysjA+91j8B9a7jBaOA3sYV7nsMV7qVhi1YRUCM8YKWz7GgAEEb4uQmFWK1jP4V9GOPrdXiejLZUWpNQxrZkUaEEpnV4lWeTyphTGJThY9a9gwhfrctbkeeHL+IiWc19zzreWejkU4ed/qaOO/2V86aON2j9oogMvKc5BGRUyJjOs7azir9qTiq2bA0B2aOtGiglPKuj9fm8iaxwSZbGiivoq2BTp6BNYhsWnOksOWQxpAlDn0W/1vkR9pngbR6NSeW+X2z5gks74aK/08GAqSBgDeekrsA8/nnNDwS22E8V/ec9w9TPfijXBhfJV5OlXOq1Ol2HzqcInyZW2DdRsVFGHErbjayod71WROOsiRwLQWQ+DbaJ6ZR5Ohi+iItXVvHvW77e8px5em66k87+nQYL2XN1j+X5dfzdPBl4zQ8EVtbwH5ujR4ZsYf8aDvkhHbmwgoAa4uJJch7rw71FnK2P95hIuNPELgzJtVDWaKzNpS8I6mRhZ1lep+9XYzxt2n5MjP5M85n9O8nal3XSaced/uZdm3Uue97UsfDxPP46yzOP/URg//N4aksgmWdDYhdlbGMNrAngp7rNciXb5wKN35vuQLtAT7Yi1kH7/Kr/68rikGxrO4Cr03YHMT6jIqyXpXN+0aFKaRT5lWQ9ZduQIfxsgp9kZ0bJrYOSZ6AIf/PuSVISLwg0ysom2zXntVnn2v51/OWWDrtMx5x25NlnZnX4dc6vA7LDoI6cfNYNAves4h9KjQBkbWfGsQQVbrhnK40jkKQPjvBK2U6y6/fLXvg6ypFh5MIYaZyVLY2z2pN8BIVpxUBSnnkWsZzzgcbJwvQ1ju2KEOSQSU5JTYDCtITXGLtm0SpyXkWIy7RX5F5Jz1yk7Sr3rKzieKkOO8+RZ8/N6MRLffEJjSydNZyTrYZV5OMzbhGQzH21A8qsPW0cswCUWzU235qt3OpFOlwv7yn5FT2twTIr6ovM25eqdjjCE9P8zPpbjXFZGfxlDcksWun5IMJrRWkGcb3aBrJWo2hbJe57PZXF5K98VW9xtFmnW/Q4x1nXDiim214HJOeASdlJyw4C+9dx3xab2u7MtwZ307rOuV/qStjhllS9RiDQSeIgSbzT+7UBdesVFF1UJ+sEihiFbJsrrJcIrxShKffISEdhuhqPFaErBXUK04yxtwjNWfcEI9xdoq2idm2lLPD+NdxfylnP6qyznfase6qczzzzty/iw7Mw53l/EEiKAonepv9nbaTsMcsC+6PgJjiR/eTWE8J4HmTUxb3wAsASuecDjZcLObsSSYxKLQDUuK0ILjKsX4hPqQsR1VtxrDRuK9pWifveLSJn2XtW1vEvW77WMg639nmTtNZwTnYqlJWP97tHYOV53LY5BZA6+vS3qk2s4T33krBF7xAYxLirsCPz3KGX6PyTr8S6yijaXpkFZ0rjmSJ0ZWFnUf4l6U0RmnJP0VK5k10mxb62C44qzJKn7PqIorLOaq/O+f1reGGzs67aOctzDp6tIyefdYdAUgcizyaq2EjmGXcSsCWvEVCHsHMQ4WDRjrMr99XNVFd0BEX2sRc1gEDjN0XwlfuK0pQqfUVoJveM8EARuuoAri5Mc1wvIZCNTItFp2WKYJG9J9mylddZ1/1is0BTEhVleeexnwgkKaQzjrtwcDj/mf/2U1py1RgCkwRCVoruFHYWLkcZxrisDtgqxtGickk540VtlXHUZdIYy4r+onzKuoZFfMr1MjsgZA6/CM1Z96gYewvzX9R+NE7Maq/O+WTLlg/Ofn7nf06cyL1r+OM6svJZNwhsWQNQxrbm32vF/t0gwlasIiAOI9k3vlHUpdgwb9GO16P7pJJiHSDVCE8UdUxFtp0NdPGAomyJ4KJ8yn0yLTQPl/OJea5WJWzj4zG+Mo/eomuSTKgM/0XurZJMaRGfcv38FsC/2TIFUMARF/6iy3boRenOuY8FYYpotPl7koWlWd0XORa9z9G9ZBdsXjJy4DUCaoidSYEh29XjGgoK6uYBkMQ4RZxNek8Q40mpHTCtdME5jPFCel+RX5kXn6Yz7++y1SJDjW/l0ZNRirJrRj4yxIfyaBU9ZyMPgCy2LNp+mfuSFMBrOLug802+wGvdU8QJLLiHeQDKaLa5e5M8APOd+XZ7WqD7lTWwEFRzKm1fy0khmRJfvEWcWNP31M0EmJTWLRu8aJySzHbJwraN1e1HyjpUwa3s+oUq8+hBjFclAJQveDXCvrJBRKLfEjsgZr0VNjIBiiyz2qt7flvilkWdcdnOPe/rrgINZgKsq2k3z688j/+bBItFdZy9b5btrWLdDfdspVMIJHvVxXGN8XTbUwzXTVAjiq3kFMsGDdP3j/F0WaOSojyNBFwRbi7L6/T9NmoByGjMdDum/v7uOv5oZQ3/VesLP9uJFzme1dHPO89aAKZUbpXOyhqe2TKtNE+n07Yy/feFZ//FKtMk3n0EZCuYbDELY/xYxXi3EQcz7RxL/G2iGmCZhXum8Kk6dVFm4Z4JXk3NsyuNX5rgJ0tD0hnbfENXVvFnuV9tsztklOrkp+lM/32ho99Kd+t9rAZo0wgM0V5Zx/+bG0xu1enWuf8ZdsBS0IaUQzIXEFAa10sBmUlxm+K550s47WwnXve47EK6C5JuPZJ9/nV5Kfp8HZ5lysLlqM282gdbEZz/V1FsytwnZZznt1r/qlTbW0nXA0x30jM65i1BQJVnFtHNXl/FP9eXkhRsIzDX+Wf1mR6nv2I/M2xIFhba5pv0e46ALG6TLHThCN9VEX6kYrxeppO2fa+JSnWiYqnM52QERONU7cI6drLqbd8pUqJWwbzXZPcIV1ixAwNTE/P4Tq/t+1csr6xifYtjz3bQRY5ndOKzOve557O0VvHvKZ/89RMB2amR6DOrt3nHci17fZZ9reJv/JSYXHUegSQ3fYSbQ40HJfNdstgswnGlccpKZz9rhEHjjCmwVYxrymyNKytnoPFe1aH/aRmTUZpZmJg5f1Smh6bbrfJ3mSyGZTA1hWVRmZJsbmv4XanOPO28099sx27ieA1MBlNUgQ3dt7KKv5oZPM6ygay9yD0593EHSEMKZbPVEJBV6GU6+KL3Sqnkahxtf8qWs5JhexlJ2d5i9TOTEZntX+51AwCNYzLyU52zrU8m21Dr8pT3vKEAZSu3i/+6Zx1X7v83/MX5qYH9MgybJHlZw51J/gDp7NfxBVk/sH8Nf/p3P0U4XMdHhWrpZDA5nX5e8MFcAIt11uQd96zj7zcDgKxjL3Occ68sVG1SLrZNBEohMND4YlGnXua+/7+96w+R5LjOy6EIkQTFGCWRT7c9bVkIYUIwShQIBCcxxg4xdiKjgGNBECYKRxCHrESa2ZM4xiSe7l45ORAm4SBYNjYE2fivcEzP6cRJhMQEK5iALkFczEk4kdAJcSuOcBzm+LJf79bsm9runp6Zrp7+8f5Yurq6frz6Xu181dWv3pvn9GYhIRl5j+fkI7y7iAx5Zb0I/+uN8NFF5ShSng52vAA38/pf5JkX4GxZb/5Gfno8XESGImW9CD8x7Tfl+kyMT06JoAi5p/zoH3oT3GvneFMw6KKcPK8/XbhRX0V0b5c5fK9eALs4mZo85qXO3Ke9+Vl5Lo6DJa53Q6wccrkX4J94fM+l3hgVspQFS8EYAouMhU6TihD6omW8EOcXkaMOZem3f0oExcn9sIMYSQYxbjJ2QR3GpzIcRmB4EbcOxrgxQ/pFdD+nDANWHe5NcxSBmiPgRyj9ZIGroDCE0o/wh/StvzBBBbi4GeLjVakjIdoRvkI7g0VkTXYPQnxrVcPErHG62vWhY6GsPuucP/UtIEk8Kz2HBMxiYmuC9+o85i7Llnwqon5tHdv3RXQtyjBeRZdx1bE3FAFXTndcG4T1AnyCpJPn8c8L8DbP6a/qnXAV1X5wiNvp3jjZyrd2SqyFwQ82QzzB4FGr9Devrr+NwOq3FJsFekWc13cdnycOYYr++Bcpt08KahBWR21vbGR6lBRkvtBnof05weiC9RyxSqUI5CDgynqd38Jzui31EUMvMwgRbQUSe4EAd5N4S+2kpMb4+YH2B1yUMACQqzf9LHFdOADiguJYgHuy+qxzfmIQxh9x87ciEZh29Ex4PbU+GOOy0dEM0a+ofzX8rKe+Vao5CHgjPOTojfDSnK71ccUI9LZxvwtd7wY5+p+Kh1Jad8mRsP23uCkx2PfLLQp0/pempXIa4q5MouM0fablFV0UxHirHAm1FUWgYgSOfg13lGm1LgmGb+MVD0e7y0HAldviVTwp5ohbyaPEEND8+NvXVRcCYzxQySC0k0II9GOcni7yjK5X1THbUe+PhfDXQjVFgGFcJXGXlfZCnK7pkLsn1hBHnDmFCvBIkwFNjoVJQrBJwb6XZXPSJJwm49Iq2Yc4MqDTqBx9Lb04ONfs+d8qPetgFkfADzEoi/Rn2gnwzuLSaA0XCNDp0Yxu8g0SFzIMdG246AIP2SYdCOX++C9LGjGuyH40vT4EEp8PXMgtuZibzo+U+nRNvb6Rac+KwIoIJG6ESyQESTS0gF9RPK1eAgL0fyD1UlbaC/DjEsRbaxP0EJj5ZphGGikkMCUIe7Ggb4dr1a3pfDDB2Uwd2zpL07kpY65mDoxx2fShV0WgsQjQO15ZpCDbKSt8bWOBrYHgm1/Fr0idlJlu6vl/Wy2Jdbj9425+5G1CSCuXVXaC/7T70vtqEUgWeLYOs/WVv0tgtzPGmWpHo70pAg4Q8COcKZMYZFv05+9AZG2yIAJ+hH+U+igzvU4fCwWHX6gYHblkvsXbZDHv3l4gjPFgISG0kBMEaKQ31a2tO1tXCz7vj/FbToTWRhWBKhHoRfjdMolBtsXIhFWORfs6QIAulF2d8mjD9r9Bij/kCUmkEQJJwfylPU/Lk0SiIYINzJVfGfxpuvWfpSepq0X0rNv/letTO3SIAH/QJXGXma7SDa9DiBrXtOOdnZONAyRH4N3oga9nLgLyyKMAgTx5Dr+d07U+coTAYIwzmTq19WZ0bK7288P3TzsSW5tVBKpHgN77yiR92ZbuAlSvz7tGuNcL8FOph7LSya7CNu6sflTuekxOAxT98TflzFWSQ1qe7gK4U1xGy/TON337p36kjvLSaWVTyp+M8aGMrjVbEWgeAv427nS1XUziaaq/+OZpck9iV/4dEl02MPrfPD3+xQXcMSWMNBK3SUDey/IyX6ZjaJjgeUoo8fmMfwepn3nptOdWnkb/K1FR2lR9EHAVHGj/zfMqQxDXZ7TtlYTHL8t6209rpxfii21Ej6F8c7/3zxL6QWhg5stnaekYO1+Odf5XMW8G5/DIVI9FdDOvjK3PCR6uYhzahyJQKQJe5CY2wJREAnyz0gF1sDMGR3Lm9Y/+IgK84w9xWxuh7U/w2blEbshCkoL1hjglH5m/V/75NuJWpzHtu3c+8PondbBserbelb+c4OfqNGaVRREoDQFXPgHMIqAX4jOlCasNHUKgF+J7BmsXVy9A/1CnLcoYTPBmoUWAJAW5GMhK75fnIqNFcNVuKNNdHKmfRdO2Dnlv8uJ2z//aKVQFqhYBP8LjLohDtHm16jC41SK4vt5oZyFwXsilb8F6V48O8bPrG6H7ngcxjqe+wUsSkYRgiMHOs/PNfYwddR/rRo9bMR6dEvU8fUh9zkub5zF29O3fje601ZogwO1dL8K7BQlhOZIJ8W8bQxypyZBbIYY/wn1+gOsu9eZt41QrwMoZxPAibh3EeGtqEGiI2yYUQwp2foHyWxOd/zkqWOrR1gT37Z7kuD538Sb1tmC6H7d//i8FvlZqFwL+CE+5JJKk7W0E7UJtfaNJFm0BLrnUmRfg2j3P4fb1jbK6nrfGeGJmAZBF6kXz7UVCjJv9GFF1I2p3T8MLuG0wwSUnb/9GxzGu0b6g3Ujq6BSBjY0NEoof4apjQrnZVmvySicRQ/2GmLjUVdcWbAmhMHys+fG3Cbxoviwn3zYP8tWafNV/Fob6HWMys2CTWBdJH+jj4Fs/88yfLthW1ZLWbxoCmyFOOieVCOiN8PtNw6ZO8vYifMO1nrwA/3f0a7ijTuN2LcuMY6AiJJJWRuZJkhH5/RfxaddjaXP7gxjPS6JeKi30kbqQiHFdj3C2eRbp2A4h8ItD/Lwf4e0qyKUtQWUOgeg4wxshcK0ftt92y/80NdHYK7EFMG+BksCLpmU5STKz+de3xvjNNBk0Lx8BfkZZapdG4s+0+ZM6Mmle1fI/XxH6tJ0I+CG+UAXB8HODN8JH24mim1F5I5yoQjdJ0J8hbnEzinq3OhjjwekboSEEmzyK5NsEY9eJscOwtfVGo17SPTXBiaXI38Y+T598thv0Z3ihm/O/XhpXadaCQG8bF6ogml6Ad/1tfGwtg2xYpzTSdOm2eUbfAX6nYfCUKu7K35cN4ZirWQxYxLM1wXsnz+n8L6K8mc8zFo7TBZvBWeKelc5qI8ZNDeRURCNaprUI+AF818fLDOHQ0tzvOOHMm0i9Ef7O4OX66kX43jx52v6cZ/aT42WSPLIIIy9fPpNtmTSvMa4p4eTPqME5/H3ulv08nOXzvPQEoFOhfGn0qSLQAQSqMghMCC3ADX566ACsiw1xiFv8EV5wTfqmfRr+/fKz+KXFhGxn6eRYoCQLQ9oyb9U06/NvjBu7oYn/uJ1ILj8qbsMPJvju9A2/iA4MpkXK2mViXB9OdP4vrzGt2SoEvAAXDTlUdD3RKgBXGAwNMqv6FGN020XDvzwV9Sf40fTN0yZ7+94mk0Wf75V/LE+eLj1LDDIneHkG/0UxTdNJVhssq4Z/XZpiOtZ5CNBIr6pPAYaEdj8/fLPtrmfn4X7sq/hVP8TrU0wYkMfxX2+EH6qnxlnNPPkSPpK8nacRSVqeTS5F7u0yMZ7vuutZ2kXs7oi8fujNfxnMi9RhmTFeVcO/2fmvd4rAhh/guGvysdvvRfjv3jbu7yL8SVwGx+59bbx5IkNjNaTPtpkws5JMDhP3QahgU85cs8rK57NlLnXVOHDfI2O6e99ZjDBdIMh8iWnRdIydkzE+lD4DNFcR6DgCmyG+n0Iabt9KaRcwwlNdeSvlt/dKvPul7CRsBvhUx6d47vBnvkNLsrHTafd2niQl+czOp10At6Q7Ej+D395nTl9IPEzaXCVudpr3dt6ceuqYKXf668OuI8Dv0V6En1S+CNjzGvjDVu8GDHFkM8KfeyO8tw58N0M82/X5PW/8iZvgMS4vSiypb6iSnCQxZeWP8WqrdwPo1jfGYzwSOf3eL3GRaYkR0/a9KWuuWc9Ffj/G6Xn61+eKQOcROBbhN7wAP10HSSXn30N8q20W6vSG6IWVG1pOd270u3/xf+v979I3MklHkErhMrKOJC2Zz/Te/fNts1CnN8RBjNemCyWJQVo6LU9iJZ/LfDtt7ne/+3dlh6X4TNeSikAGAr0AX1rHAsD0yWNqfGP1h/hAhoiNyKbzo16EsRnXOq7ccbgrwrFGAFYTIXejzz2ckLEhEF5XSWcRlsyfTV+nK9ym+6hPFlMTnJ1iaXDMw9KUmcXjwO7Cfp5VzuTH2KG/h5pMLRVDEWgGAv52Nb7oc0kxxPu9EM/w00QzUNuT8u4R7qWjnco8+qV87yeuyUIqwq83Cbu6yLo1wV9NicuQyTziyion68kyNpnJcnvpnf4EzzTttMDWWdybaU8hxy/TcuwyPy0t8/IwjHFtMMYDdZlTKoci0CgEqnROk7cQSFwJR3i87jHr/RHu80J8O28sVT7znsUnGzXhaibsYIzvTLetJUEtkzZEJetKIstKTwB+N6fVfN1j1m9NcF+CWdpY5bhXTcv6EjeZPwGeiXX+1+xfSsVpEgK/dgY/4wX4lypJK7evANd5UqEX4fOUrQ5YJlb9ER7nd/Zc2TPe0l3U4c4DMaoDPk2WYXgRtw5i/GspiwBDVOZKsrIIK7UfWX6MG3Rhy0BGlK0O2NJeITnSN8arM+ORcpedlu1JDE0+r7sY1QEflUERaDQC/A7PqHEuiGqlNgO870c440V46Njf4oNVgkzHSbTo70U4v9IYHC0KvAB/ViUebe6L3+ETZzWGsCXhLJOWdQxhyTw7Le9ny+8MxjgzOIc/qtpWgNENBzGO92Ocn34moZzyz8hqrnIcq6Zlfdm+yY9xvM1zUsemCFSKwNEQnh/hjTqSnZGJVvYMpuON8BC/wZcFEO0PeDKChM9PIus6xmfGOe9Km4myxq7t7CFA5zEMHZv6hm5Ih9ci6TTCyqtrl7f7OKj72tYYX+eCgN/gy9Jd4qp3jAd4hI/f9VOP8RkZ7euBbAdGfKaMPY5F8mVZqw/aTJQ1dm1HEVAE9hHgVvcaYgZMj7LNI76054mnwQjjXoi/2Q96dMIP8AgXCX6A32N0wg9H+BwDFPGteTPEE942TvUifKMX4p/9AO+ktVvXPCV/d/+uiQMbeZRtGQKzyKrQgkL2YxOfuTdX0/7B9RKd7vAM/GCCpxMSP4dHuEigUxxGJ+xP8FkGKNqK8WhiZxDj1CDG8/ufPq7MvNWbdtP6s/Py7uWzRdO2DLL+BE+7mwHasiLQcQS41e4H+I+6EmBX5aLfhl6IL3Z8ejofPo3w6Eu+EHHPEtOBO9usfBKbfGbS5ppPfLN1Tdllr6bPrKuU1ZSZlyefL5OWdew+9+4fdj4BtANFoOsI0BK/TgZvXSV9M24e9VNr/+r+K5MtcRoGSkJylWa7sm1JfFn5psyqV7vvovdp5YwsUuZF07INWTcG4wl8oroZoD0pAh1HgFH8vLCeBnCGGLtw9SK822r3yTX9P0sWAcbBjSSmstKzBHfw/TwvXz5jWv5JuRbJl/XS0kXzbNnS6tll8u5N/RhXWu0+uabzX8VSBBIEvBDPdYFo6zhGL8Cl3ZDKvk7F9SHQ5/dyQ6iGlGzicpFv95nWh8kzVylXXp58JuvYaVsG+Vy2sWw6q57pd4zLT7+E3vq0rz0rAooAwwg/sq7YAXUk5ipkonvhpnlHbOu/Cp3NDGLszGzVSzJ0kc4iR5lv92vfy7IyLcvJ/LR0Wh7ryzaKpu1y9r3pa+96tmneEds6/3VcisDGZoiP1/14XBXE7LoDgGqDAAAEZ0lEQVQPOvjhaQadcvVCgG+iSbAbklYWcbnIN6RYpO1FyppxFGm3rDLF5VNL/3pNf5VGEdjY8E7j7qYdE3RN2GW2T3fIauxX3/80vpH2J/iHVEv+skjSbof3dl4WkRYtZ+qb66L1ipa3y9n3dv8xdtS1b33nv0qmCGzQPa8/wlf8ADfKJL+ut+WF+PfNCEd1itUfgeRcfYwrlS0EbKIkkc4j03llZH0X7ae1mZa3L0d/gh/RGVP9ta8SKgKKwEbiKjfAD7pO3GWMvxfgr3VKNQsBOg1KfPZLInWVdtGuJGO276IPu037fl8GRmVslvZVWkVAEdjYGOKIN8IJL8C1Moiwc22EeMULcLdOpeYiMKDXvaoNBDOItDCJs75sw14MyHu36ZcZXbC52lfJFQFFYCOJIzDCC50j8GUD/dD9cIgv6NRpBwKJgSDDCktSrWNayiSJPStflikzzc8nE6hXv3ZMfx2FIrCHAAPqqAdBZMY24FFKL8RpPd7Xzv+YAQPq5LkRlkRbxzRlsuWy71dcCDBmgR7va+f811EpAslnAb7d+gHe1B2BvcUAXfkyiiF3SnSKtB8BBt5JIgvahLoieSbkXDIhH2qzbBnZHl35jnHmyZfwkfZrX0eoCCgCG/4Qt/kjPOUFeLvDC4GrPDHBAEs6JbqFwPACbtslvv4gxluZpwVck/ky7RetU6RcjB0a+H051vnfrdmvo1UEDAJDHNkM8Qf0bEcnNx1ZDLzhRzjBRZCBQa/dRWAwxoMM2TtdCJi3bHMtQqZ1K5MlO+Uc4zLDEnMR1F2t68gVAUVgBgFavG+GeLaNHgV5EsIL8e3NAJ/i6YiZgeuNIrCxscEt8H6MKDk1kEWg684v0j9J/vCC5NpgjO/Qkc/wAm5RhSsCioAikIoAnQn1Inx+M8T3/QDXm7orwB0NRkz0tvEnjJ6YOljNVAQsBIYXcSt3BRI/AmPcSCHTg+iARQg5q8xhkp7fbjq5H67HPmPc7Mc4z6OQathnKVlvFQFFYD4C9zyH23sB/rS3jQuNWQiEeIX2Df427pw/Qi2hCGQj0H8Rv7AV49GESA355hF33rOshYDML1Jflk9Pv0z7BvXcl61XfaIIKAILIkBXuL0AX/IjnPED/FdtFgQB3mRY5A9H+Jy+6S+oVC1eGAESKhcDtJjfPUnw+tRmwCwM0skYM+XmlZn33O6L5WO8tTXG1+kCWd/0C6tTCyoCisAqCPhDfKAX4jN0lbu/Q1DFiYI3ehHOcxHSC/DYXSPcu8oYtK4isCwCtJ4n6dKSfjAB37pXP1EwbwdgjMvJbgQXITEeU099y2pP6ykCikDpCPANvLeN++lrwNvGKRre+SFeoQMiRir0AvzYj/C2H+J9s4NAo0MvwKXESVGIiT/CCzyXz4WFH+A4DfeOBbindGG1QUWgZAT4Bn7yHD5GXwP9GKdoeJcsDvYcEL22b4HPhcLO1LaAae4osAxPI0zwXe4y7BskHu+/iE9vndWF7v8DSeRRgSKeEuAAAAAASUVORK5CYII=;fontSize=20;" parent="1" vertex="1">
          <mxGeometry x="298.75" y="489" width="82" height="82" as="geometry" />
        </mxCell>
        <mxCell id="Eh2Yhkekkg4GdTQa8Hme-11" style="edgeStyle=orthogonalEdgeStyle;rounded=0;orthogonalLoop=1;jettySize=auto;html=1;entryX=0;entryY=0.5;entryDx=0;entryDy=0;entryPerimeter=0;fontSize=20;" parent="1" source="Eh2Yhkekkg4GdTQa8Hme-5" target="Eh2Yhkekkg4GdTQa8Hme-6" edge="1">
          <mxGeometry relative="1" as="geometry" />
        </mxCell>
        <mxCell id="MJfNLC3vNXRit5m4k24Z-1" value="&lt;font style=&quot;font-size: 20px;&quot;&gt;Bedrock&lt;/font&gt;" style="sketch=0;points=[[0,0,0],[0.25,0,0],[0.5,0,0],[0.75,0,0],[1,0,0],[0,1,0],[0.25,1,0],[0.5,1,0],[0.75,1,0],[1,1,0],[0,0.25,0],[0,0.5,0],[0,0.75,0],[1,0.25,0],[1,0.5,0],[1,0.75,0]];outlineConnect=0;fontColor=#232F3E;fillColor=#01A88D;strokeColor=#ffffff;dashed=0;verticalLabelPosition=top;verticalAlign=bottom;align=center;html=1;fontSize=12;fontStyle=0;aspect=fixed;shape=mxgraph.aws4.resourceIcon;resIcon=mxgraph.aws4.bedrock;labelPosition=center;" parent="1" vertex="1">
          <mxGeometry x="656" y="240" width="78" height="78" as="geometry" />
        </mxCell>
      </root>
    </mxGraphModel>
  </diagram>
  <diagram name="Copy of Page-1" id="VQN5m4xuF_dLJ9b9eslt">
    <mxGraphModel grid="1" page="1" gridSize="10" guides="1" tooltips="1" connect="1" arrows="1" fold="1" pageScale="1" pageWidth="850" pageHeight="1100" math="0" shadow="0">
      <root>
        <mxCell id="fHwz4dTw-e58ZOSodajX-0" />
        <mxCell id="fHwz4dTw-e58ZOSodajX-1" parent="fHwz4dTw-e58ZOSodajX-0" />
        <mxCell id="fHwz4dTw-e58ZOSodajX-2" style="edgeStyle=orthogonalEdgeStyle;rounded=0;orthogonalLoop=1;jettySize=auto;html=1;entryX=0.5;entryY=1;entryDx=0;entryDy=0;fontSize=20;" parent="fHwz4dTw-e58ZOSodajX-1" source="fHwz4dTw-e58ZOSodajX-3" target="fHwz4dTw-e58ZOSodajX-15" edge="1">
          <mxGeometry relative="1" as="geometry" />
        </mxCell>
        <mxCell id="fHwz4dTw-e58ZOSodajX-3" value="" style="dashed=0;outlineConnect=0;html=1;align=center;labelPosition=center;verticalLabelPosition=bottom;verticalAlign=top;shape=mxgraph.weblogos.github;fontSize=20;" parent="fHwz4dTw-e58ZOSodajX-1" vertex="1">
          <mxGeometry x="302.25" y="619" width="75" height="75" as="geometry" />
        </mxCell>
        <mxCell id="fHwz4dTw-e58ZOSodajX-4" style="edgeStyle=orthogonalEdgeStyle;rounded=0;orthogonalLoop=1;jettySize=auto;html=1;fontSize=20;" parent="fHwz4dTw-e58ZOSodajX-1" source="fHwz4dTw-e58ZOSodajX-6" target="fHwz4dTw-e58ZOSodajX-9" edge="1">
          <mxGeometry relative="1" as="geometry" />
        </mxCell>
        <mxCell id="fHwz4dTw-e58ZOSodajX-6" value="Discord Bot" style="sketch=0;points=[[0,0,0],[0.25,0,0],[0.5,0,0],[0.75,0,0],[1,0,0],[0,1,0],[0.25,1,0],[0.5,1,0],[0.75,1,0],[1,1,0],[0,0.25,0],[0,0.5,0],[0,0.75,0],[1,0.25,0],[1,0.5,0],[1,0.75,0]];outlineConnect=0;fontColor=#232F3E;fillColor=#ED7100;strokeColor=#ffffff;dashed=0;verticalLabelPosition=bottom;verticalAlign=top;align=center;html=1;fontSize=20;fontStyle=0;aspect=fixed;shape=mxgraph.aws4.resourceIcon;resIcon=mxgraph.aws4.lambda;" parent="fHwz4dTw-e58ZOSodajX-1" vertex="1">
          <mxGeometry x="300.25" y="360" width="78" height="78" as="geometry" />
        </mxCell>
        <mxCell id="fHwz4dTw-e58ZOSodajX-7" style="edgeStyle=orthogonalEdgeStyle;rounded=0;orthogonalLoop=1;jettySize=auto;html=1;fontSize=20;" parent="fHwz4dTw-e58ZOSodajX-1" source="fHwz4dTw-e58ZOSodajX-8" target="fHwz4dTw-e58ZOSodajX-6" edge="1">
          <mxGeometry relative="1" as="geometry" />
        </mxCell>
        <mxCell id="fHwz4dTw-e58ZOSodajX-8" value="API Gateway" style="sketch=0;points=[[0,0,0],[0.25,0,0],[0.5,0,0],[0.75,0,0],[1,0,0],[0,1,0],[0.25,1,0],[0.5,1,0],[0.75,1,0],[1,1,0],[0,0.25,0],[0,0.5,0],[0,0.75,0],[1,0.25,0],[1,0.5,0],[1,0.75,0]];outlineConnect=0;fontColor=#232F3E;fillColor=#E7157B;strokeColor=#ffffff;dashed=0;verticalLabelPosition=bottom;verticalAlign=top;align=center;html=1;fontSize=20;fontStyle=0;aspect=fixed;shape=mxgraph.aws4.resourceIcon;resIcon=mxgraph.aws4.api_gateway;" parent="fHwz4dTw-e58ZOSodajX-1" vertex="1">
          <mxGeometry x="300.75" y="240" width="78" height="78" as="geometry" />
        </mxCell>
        <mxCell id="fHwz4dTw-e58ZOSodajX-9" value="CloudWatch" style="sketch=0;points=[[0,0,0],[0.25,0,0],[0.5,0,0],[0.75,0,0],[1,0,0],[0,1,0],[0.25,1,0],[0.5,1,0],[0.75,1,0],[1,1,0],[0,0.25,0],[0,0.5,0],[0,0.75,0],[1,0.25,0],[1,0.5,0],[1,0.75,0]];points=[[0,0,0],[0.25,0,0],[0.5,0,0],[0.75,0,0],[1,0,0],[0,1,0],[0.25,1,0],[0.5,1,0],[0.75,1,0],[1,1,0],[0,0.25,0],[0,0.5,0],[0,0.75,0],[1,0.25,0],[1,0.5,0],[1,0.75,0]];outlineConnect=0;fontColor=#232F3E;fillColor=#E7157B;strokeColor=#ffffff;dashed=0;verticalLabelPosition=bottom;verticalAlign=top;align=center;html=1;fontSize=20;fontStyle=0;aspect=fixed;shape=mxgraph.aws4.resourceIcon;resIcon=mxgraph.aws4.cloudwatch_2;" parent="fHwz4dTw-e58ZOSodajX-1" vertex="1">
          <mxGeometry x="474" y="360" width="78" height="78" as="geometry" />
        </mxCell>
        <mxCell id="fHwz4dTw-e58ZOSodajX-13" value="" style="shape=image;verticalLabelPosition=bottom;labelBackgroundColor=default;verticalAlign=top;aspect=fixed;imageAspect=0;image=https://assets-global.website-files.com/6257adef93867e50d84d30e2/636e0a6a49cf127bf92de1e2_icon_clyde_blurple_RGB.png;fontSize=20;" parent="fHwz4dTw-e58ZOSodajX-1" vertex="1">
          <mxGeometry x="298" y="112" width="83.5" height="63.4" as="geometry" />
        </mxCell>
        <mxCell id="fHwz4dTw-e58ZOSodajX-14" style="edgeStyle=orthogonalEdgeStyle;rounded=0;orthogonalLoop=1;jettySize=auto;html=1;fontSize=20;" parent="fHwz4dTw-e58ZOSodajX-1" source="fHwz4dTw-e58ZOSodajX-15" target="fHwz4dTw-e58ZOSodajX-6" edge="1">
          <mxGeometry relative="1" as="geometry" />
        </mxCell>
        <mxCell id="fHwz4dTw-e58ZOSodajX-15" value="" style="shape=image;verticalLabelPosition=bottom;labelBackgroundColor=default;verticalAlign=top;aspect=fixed;imageAspect=0;image=data:image/png,iVBORw0KGgoAAAANSUhEUgAAAgAAAAIACAYAAAD0eNT6AAAAAXNSR0IArs4c6QAAIABJREFUeAHsvQ2oJdWVL35pzEMywX8j+XC676na6RERJwRJMsEnkjFBMpIwSSY4wckTEckTkSD9Mkn31RE5MvbZVaeTNDaDj2bEMTgkOCIo4tx7HYORYBpxRBrGF5okjI1xmk4jTiOhkdD8/r3qnrpd99w659TH3rt2Vf0amlO3PtZe67dW7bVqf6y1tMR/ThFQQ1ysxrg6jPF1NcI+FSEOR3hYRfjRIMJTKsK6ivCS0jgWxvi1inEy0HhPxYDSOBvEOK1ivBlEeGOgcTSM8cJ5ek8HER5XMY6EEX4QjHF/MMatYYRrP3YQH3UqIBsjAkSACBABItB3BMIxPhVq3B5EODxx6qcSRy7O3OF/CSCCGK9KkKFi7FUa1186xCV91w/lJwJEgAgQASJQC4FdQ3wwiHBdMMLdSuMxFeN1lw6+aluBxm9k1GEQ4V6lcSNHC2qZAR8mAkSACBCBriMgw/iDCF+VoftA442qDtjH54IYb0tQICMXu76PD3ddl5SPCBABIkAEiMBcBAYxdg1i3BVoPOej47bFU6DxchjhvmCEq+YCxItEgAgQASJABLqCwOWHcclkDv+FQOOcLSfbGroax2ThogRDXdEx5SACRIAIEAEisImAivE1WVnfGsfscEHhJiYRXgo07pDpkE3geEAEiAARIAJEoG0IyHy3irCiNE5sOrkmHGvL2gxGeCfZeqixp206J79EgAgQASLQYwRkr/xkD73TrXldDDLO74R4QfIb9NicKDoRIAJEgAj4jIAMW0/m9l/roiP2QKY3kyRHh7DTZzsgb0SACBABItATBNQQO0ONB2XY2gMn2ZcRhyPncyOonpgYxSQCRIAIEAGfEEjS70ra3Rjv0vG7zUKY4K3xvqwTkADMJ7sgL0SACBABItBVBIbYoTRuC2K8RcffgOOfXtAY4UygsZ87B7r6wlEuIkAEiIAHCAwifK5rWfo6E8RonAgi3LI0xA4PTIUsEAEiQASIQBcQ2D3CFWGM1c44y+mv6G79/fpyjM92we4oAxEgAkSACDSEQJK1T8rqdstB9mKhYBDjyd0xlhsyHTZLBIgAESACbUVARbhZaTRSapcBh5m1BVKyWMW4m9MCbX0LyTcRIAJEwCECkpNeRVinEzbjhH3AMYjx6uAAPuHQjNgUESACRIAItAkBpXFnoPF7H5wWeTAfgARj3N8meySvRIAIEAEiYBkBmetXGs/Q6Zp3ur5hGkb4OdcGWH6hSJ4IEAEi0AYEzueav07FOOmboyI/FoORCGcGEb7aBvskj0SACBABImABATXCA111tGGMX4cxXggjPDmI8EhSXW+M+1WMvcEYtybliTWuDyN8OYzwzUGMu5LKhRFiFeOIGuEJ2foYjvCq0jjbUZyOWDArkiQCRIAIEAFfEdg1xAe7sK8/1DgdaLwcxng0yYYX42tqhCuXhrjINPYybB4cxA1JoKDxUIKfJN/RONfy4OColG02jRfpEQEiQASIgGcIBBp7VITjbXRagcZvEmcvX/CeFMP5yBAfCkf4kpKRgwivBBp/aBu2gcbJcIxPeWaqZIcIEAEiQARMITDQ+KLSONMWByXD+DIcLylu1RiXmcLBJh0ZXVEaNwYj6IHG0bZgLXwmqYRtgkPaRIAIEAEi4B6BZO67BV+nUmtAtqsta1zuHiXzLSbZFDVuP7/Y8oVWjA6MoZk4yLwdkCIRIAJEwD0CQ+yQYXPPv0TflC9mNcbV7gFy1+LHDuKjoca3Zd2Cz2sHAo3nWF3QnV2wJSJABIiAcQSS/f0RXvLR+QcjvBNEOBxGuNa44C0guCtCIAsXgwhv+KgfFeP1tky7tEDdZJEIEAEi4A6B5R/iUqVxzDfnEmr8dhDhOzJX7g4Nv1uSRYSSoMc3XSmNE0wa5LftkDsiQASIwBYE5MvNu5X+EY6HGrd/+gg+sIVZ/rGJgIpxTajxrE/TA0GMt7uyHmMTaB4QASJABLqIgGyPky83X74mpRBNEOMmLiwrbm3BCFcFER73ZdGg5FtYPoBPFpeAdxIBIkAEiIBTBHaPcIU3JXyllHCEm50C0LHGJKmR8mUNh8YZ5gromIFRHCJABLqBQJKpTjef01++WiXtriTI6QayzUshqYp9qNcgIwF7RriieUTIAREgAkSACCQISCpXyZLX9LC/bG9LUvFSL8YRuHSYVGx8qOlpAVkTwIWBxtVLgkSACBCB8giIY5DkOY06f41TzCJXXndVnpC5eEk53KS+k2CzJZkZq2DMZ4gAESAC3iMgyVpkkV2TziAc4WHJN+A9WB1jUHZUSC6FpnQvQSf13jGjojhEgAi0BIGNDH+rjTmAGKelOl5L0Ookm8l2z7i5egOSu4DbOjtpWhSKCBABnxGQbWJNOX/p+CWtrc/49IY3CQQ1Hmwsd4DGM73BmoISASJABJpGQIrlNOX8pe2m5Wf72xGQ0ZimtoDKro/tHPEMESACRIAIGEUgKekbA84DAI1Tfc3bb1SBFoklxYaaSyn8NYuikTQRIAJEoN8IDGLsUjHede78I6xLbYF+o98S6WVKIMJ9zrcLapyRAkctQYlsEgEiQARahIB07CP3K/5llX+LUCKrEwSUxo1K46zjYPF1LgqkCRIBIkAEDCOgxtAuO/NkUdkI+wyLQXIOEZDUvc63Cmo85FBENkUEiAAR6DYCSuN6p6u8Nd5PCvh0G9ZeSBdo7HFeHErjxl6ASyGJABEgAjYRSBZ2aZx29fUfaPx+EOFzNmUibbcIJKmiI6fZIt+V9SpupWRrRIAIEIEuIbCxoOvnrpy/bCNj2dcuGdAFWaQ4k9PKghFeYQnoC/jziAgQASJQCgE1wgOunL/MFQeHsKcUg7y5dQiEGs86tCndOoDIMBEgAkSgaQSSBVwa55x01hpn+OXftMbdtC/1I1wWExI7diMZWyECRIAIdAQBZxX+NN5XMa7pCGwUowACUsRHRTjuKLg8xqmAAkrhLUSACBABQSAY4W4XnbPsLAgjfJmo9w8BKSQUxHjbhZ0NInynfwhTYiJABIhASQRk1X+g8Z6LjjkY49aS7PH2DiGwe4QrXGSWlJ0lLB7VIcOhKESACNhBQI3whAvnLwsM7UhgjupyjM+qGHuTxZAbCyL3yohFMMJV5lrpNyWZ/nFhb0GMJ/uNNKUnAkSACMxBIKno5qDQzyDCU3PYaOxS4vBH2KcirBcZBUmGsCOsqwg3N8Z0BxoOI3zTSRBwEDd0AC6KQASIABEwjMAQFwUav3HQEb8pe8INc1+d3BA7lMZttbPVaZxQI+yTBW7Vmenvk2GMR23bntj30hAX9RdlSk4EiAARyEFAKrjZ7oCFvnxl5zTfyCkZzlcavzQpt8w3BxEOqyF2NiJUSxtNtgca1kWeXgcR7m0pRGSbCBABImAegd0xlh1VbttrnvvyFC8d4hLbax1CjdMytF2eu/4+IWsrJIDKc9zGzmmcFXvvL8qUnAgQASKQQWAQ4RFjHeyMNQSSAS7TZGOHknDI0VQHEkwjrLNOfXF1hxq327ZFsffiHPFOIkAEiEBHEVAaynaHG8R4Sx1qfkg8jPF1RyMdG84/DYY0zqoIKx01IeNihTF+bNsmGZQZVxsJEgEi0DYEzgcAj9nsbCXZzyDGZ5rG5eMxvhJo/MGmrAtpaxxjatrFlpCsB4jx5kI80wCr2u+RxZzwDiJABIhARxFw8fUfxniwafjUAVxt2Zls/eJf5JA0Hto1xAebxsXn9l3ojKMAPlsAeSMCRMAqAtbn/jVOWBWgAHHZlud0zn+R859cDzV+G47wpQIi9PaWcISHbQZuQr+34FJwIkAE+ovAJOWv7SHxrzWNsMvys1WclWSoY5rafCtJigbFeLcKroWekbUZ3K6ZDz7PEgEi0F0EQo0HC3WSBb9op2mFMVabRk9qDUzz5eXfEc4MYtzVNF4+tm97V4Dkv/BRbvJEBIgAEbCCgCyyCkZ4x5ozlBK/GsoK80WJbmT4O2FNxoqB0QJ+jqoRriwqYl/uC0d4dQFu5dZgZHWncerTR/CBvmBJOYkAEeg5AvK1aa1Dlc7Vg0I/wQg3WZUx60RMH3uAn0+viOycsKlLGWXwSV7yQgSIABGwhkAY49fWOlTJiT/ExdaYL0g4iPCCNRlNO/w8ehGODyJ8rqC4nb9NxThiS59BhDc6DyAFJAJEgAjYrvgn8+5No5ykNs5zqi08Jzs1WGBoaUkWStoKACZ0r2nabtk+ESACRMAqAmGEJ611pLLtb4gdVgUoQFxp3GlNxiaCCI1TLDm8tJQUWbKFv8ZjBUyLtxABIkAE2omA9a8ojTt9QMZ2oZ+mggvZWdHnQjZWR3ZkS6AH6ap9eH/IAxEgAh1EQEqh2nJeQYzTvqymDjTesCVn03QDjfdUjL0+jLQ08YqEMR61qIO7m5CJbRIBIkAErCNgMyPeIMJ3rAtQsAGLDqL6djPDQ9fJ1rgxri4ISWdu2zPCFbb0G8R4tTNAURAiQASIQIqAGlvNh/+uDyv/N2U17GxtOZy6dKW40SDCQZ+wT3Vg89fmFE+fp1hs6oy0iQARaBABm5n/ZGqhQdG2NV3XseY+r3Em97wPwYbGCdndsQ2Ijp4YHMAnrOlihH0dhY1iEQEi0FcElOzPt+CsZE7at21qNuQMI3wzWUMhi8Us4GiCZhjjx7u+jw/3wcaVxjMmMJumIVMrfcCPMhIBItATBGxmUgs0/tE3GKc7dRN/S2ZBkVNSHIdjvGiCpg0akuK5D5ntBhpftIGf0OQ0gG9vNPkhAkSgMgKWh/+9y1ZnwzEEEb6RVUAQ4RbZ+WCjLSM0I7zUeD2GLGCmjzdqPZwygtX2EZ29ptklPSJABIhAIwgEEV6z0VEGMd5qRKAFjVqRdSoAEBaklOx5J/uYjfaM0NQ4K9XufNmeuUBtpS8HEQ4ZwWkqAJA00qWZ4QNEgAgQAd8QWP4hLrXRSSY0x9C+ySv82JB3egQgK/d5h3GdinDcRrsmaEpehOUYn83y3IXjQYzPmMBnmobsrtg1xAe7gBFlIAJEoMcIWK2n7mnp2ukO3cTf8wIAMS/5ypYqiEpKIU99Ufrwd6BxLhzhYd8WbNZ9NQONX9nAdxDhq3V54/NEgAgQgUYRGER4ykYHqTSONSrYnMZtyLsoAEjZWda4XMn8u4dBgPAUxHg7jPH1lN+2/wZj3G8J6yNtx4b8EwEi0HMElKX96+EI3/UVWhsOoWgAkGIiIy+yIt8GLyZohhrPqjEuS/lt629wCHtM4LGNRoTjbcWEfBMBIkAEloIRrtrWsRn4MpXhZCks5CvEVmTOWQS4SH7Zky97823wY4SmxplQ49ttryugYhw1gsfUuyHrZxbpmNeJABEgAl4iEGjcYaNj9D1nuhWZKwQAqVEojettJWIyIavoU7Lrpfy27ddWkauPx/hK27Agv0SACBCBBAFbW9Qk/7zPEJtwitM0yk4BTOMj+frVGFpWmE/T9uJvjfeDEXQb6wqEEa61gqGnu1ymbYt/EwEiQAS2IWBra1oY4cvbGvPohA1nUDcASOGRL2354rbBowmaScVIjetTflvxu5EUyHyK5ggvtUJ+MkkEiAARyCJgc///pUNckm3Lt2MTjnCaRpoK2JSsgxh3SR2F6Xa8+VsSHA2x05S8tumoCOumsQs0fm+bb9InAkSACBhHIIzxedMdotCTrILGmTVM0JLcW1IBm2BZVuEHMZ60wa8JmpLqWFIem5DVNg3JeGhC5mkae0a4wjbvpE8EiAARMIqAirF3ujMz8XcY4QdGGbVAzISc0zRMTQHkiRuO8CVJqzzdpi9/S/GjXRGCPN59OZdkY5xaxW8Cvy7lTPBFV+SDCBABywiEMR410QFO02hDhrRpnk38bTMAEFOQ1LMSXPm6SFCGw9UI+7zdMmhrHcAID1h+VUmeCBABImAWAalrbsLxZWnI/v825EjP8mzq2HYAkGp/+QA+qWK8bopv43QivDKIsSvl16dfKeJjXN4xnvZJRvJCBIgAEViIgNIwvipaVogvbNiDG4w7AVn7MMJNLkWTKZzkq9vCsHZdfCTDoawxcYlHkbZUhLiubNueZ0bAItDzHiJABHxBYHeM5W0dmQlHEmHdFxnn8WFDdlcjAFm55Es7SdlrQneGachURRjhm1l+mz62kfhK5GxaLrZPBIgAESiMgK0FUUGEw4WZaPDGrgQAKYQSfKgYJ23IVZdmkko4ZbTh30GEz9WVJ+953xdANgw7mycCRMAnBIIxbs3ryOqeC0a42yc5Z/FSV86855sYAcjKJ2V8JQCTdRh5/DV1TvhZjvHZLK9NHcuIiQ0cJLBoSia2SwSIABEohUBSl97wkK90rAONL5ZipKGbbTgB12sAZkEnzjbQeMOGjFVpyhZGCVBm8ezyvI3kShJQu5SBbREBIkAEKiOgIvyoamc+77lAY09lphw+OE+Gqtd8CQBSGAON/TYWelbGx5PpIRs7KIIx7k9x5y8RIAJEwGsELKVFbc1iqKpObN5zTU8B5BmczE3b0PU8HGZdS6YCDuCTeXy6PGcjs2I4wsMuZWBbRIAIEIHKCEi63lkddeXzGr+szJDjByvLOGfaxMcAIIVVRbhZaZyyIXcZmrJjIeWpqd+kouEcPZaRZ/PeEZ5oSh62SwSIABEohYCN2vOSDrYUEw3evNlxG3QEPgcAArXMwasYR5pcJChtyxbUBlW/pGLcbVr/YYwXmpSJbRMBIkAECiNgYyGU0nimMAMN32jaAQg93wOAFPJkC6jGL21gUIRmqPFgyksTv5Z2wLzehCxskwgQASJQGoEiHXXZe4IIj5dmpKEHyspW5P62BAAC+aeP4ANJdTwL2SAXYSU7FBpSe9KsFO9ZxGPp6xonmpSJbRMBIkAECiNQuoMrMFTepoVQNuT3bRdAEWOQUrYydWMDj3k0m9wtEhzEDfN4q3JNRtSK4M17iAARIAKNI1Clk1v0zCDCwcYFK8jAIlmqXG/TCMA0TDIsHmqcriJ3pWc0bpvmwdXfKsY1lXheFAQPcbErGdgOESACRKAyAjY6QBlSrsyQ4wdtyN/mAEDg3/V9fNhWfohpvKWssWOVbzY3qaaIaZ5q/z3GZZuN8IAIEAEi4CsCtTu7/K+hvb7KO82XDfnbHgCkGEkVP6nqaAOjlGag8VzanuvfJDdCvv3WCgqCEa5yLQvbIwJEgAiURiDtiE3+hhq3l2akoQdMyp3S6koAICpRQ1wcxnhQabyfymfyd6BxtCHVLy3/EJealCWlxXoATWmU7RIBIlAKgbTTMvob4eZSTDR4s1G5J1+TbVwEuEgFaoQrA42XTePV9E4A0/IIvUGEry7Ck9eJABEgAo0jIDXMTXeCbSqIYlp2odelEYDUQHePcEXXAgAZ3bChf9lemOLGXyJABIiAtwjYKBIziHGXtwJPMWbDAXQpAEic5Bja1hSABBVTKnH258cO4qM29B+O8CVnQrAhIkAEiEBVBJTGGeOd4Aj7qvLj+jnjsssIwAg3uZbDRntK40YbqaK3YN5g1kilobbwYmhBoOQXsKEP0iQCRIAIGEUgGOEd453gCA8YZdIiMeOyd2AKQI1xWRjhSRvYTNPs4jZASbFs0WRJmggQASJgBoEgxtvTnXLdv5vs1MuiUlfWvOfbPAWgYuy1Uh9ixtd1EOGWsjozdX8Y4do8/dU9txzjs6Z4JB0iQASIgDUEZBV23Q4v5/kj1hg2TDiH91p7wIVeG6cAxGkpjWM28JhLU0MZVmlhcgONL87lbUbQsugZ5gEorALeSASIQJMI2FjZHcb4cZMylWl7UWde5XqbRgAuHeKSIMLhJkoDN70FMIhxUxX9LnyGmQDLvIK8lwgQgaYQCDWeXdihlf0SanBhV1kcjcveohEAGalQMU7awKAITUkwVFZfJu+3VA4YJnkkLSJABIiANQSkdG+RzrrMPUGMV60xbJhwGbmK3uv7CICkwD2/UO2FovLYuE9GHAYxdhlWZylyKsKKBdneLcUEbyYCRIAINIVAEOGQ6U6wTSVRTcsu9HxeAxCMcb8NmUvTHOPppmw+bTeM8WhpvheNhkU4ntLnLxEgAkTAawTCEb5rvBOMAUmy4rXgE+ZsyO5jACD56VWE4zbkrUIzHONTTdtHGOHnVXif94zQbFoutk8EiAARKISAinDzvA6t6rW27IWuKt+853yaAkgK3kT40Tx+G7jmxS6RIMZp07LLlFqhF483EQEiQASaRkActelOUOi1pSKgDdl9CQACjTtUZCHT46Jh8DnXQ43fqkPY2bTdCw82dK9alASraR2wfSJABBpGwFo61BF0w6IVat6GE2g6AJDKfSrCKzZkq0NTFv5J8p1CirF8U5L3YE6gUllOjdsss07yRIAIEAFzCFTu7OZ0oIMIT5nj0B4lG7I3tQZACvcEI2gbMhmh6VGNiDDCN43INPUOyFoLe9ZKykSACBABwwjYyAbYdJKXohDZcAJNBABSgc564Z4pZ1cSu71FdeLiPhmqL8l/oQyRu2Msu+CfbRABIkAEjCBgrfDLEBcbYdAiERtOwGUAIHvpZbTFhhxGaGqcHUT4qkUVViJtBTONM5WY4UNEgAgQgaYQCDUeNNLZT30hhjE+35RMRdu1IbeTNQBD7HBduKc0VhonfM2Lb6MKpqTVLmp3vI8IEAEi4AUCtrYCtmFFdGmnNhXk5D1vewSgscI9BWRP8RhEeMSH1f55L9jgAD6R8mnyNxzh4bz2eI4IEAEi4C0C8pVmsiPcpBXhJW+FnjC2yWsJ57boGVsjAFK4R5xME4V7FsmcXg9j/FrFuMZnvYca3075Nfk7iHGXz3KTNyJABIjAdgSG2BFo/N5kZyi0Ao0/LA2xY3uD/pwxLXMid4RvmJZwMkrTWOGehThpnA0j3PfpI/iAadlN07O15qUtya9M40l6RIAItBwBFePowk6+wley79uibMhscgRACveoCC/Z4NMUTSksJHy25RWwNP9/TrZhtgUD8kkEiAAR2ERAhpZNOYQsHSk+s9mIhwdZXk0dmwgA5Es6KdyjcdYUX6bpBBonZWTCQ7XOZMnW/L+K8frMRnmBCBABIuAzArZqo8vXoc9ym3aKQq/uIkDZPeFT4Z48jCRglDUJPus2jzdb8/9BhMN57fEcESACRMB7BGylBFYa7/u6GlyUkufc6p6rOgIghXukmEzd9q0+r3FMHcDV3hv0DAZVhHUb+EhmwRlN8jQRIAJEwH8Eghhv2+gcpSiNr9JbkbfsIsCNRZh32JibNiafTooK7fV9Uec8O5MS1bIw1Rgm2TUxGmpe27xGBIgAEfAaAWWpbGw4xou+Cm7DGZSZApAtmJJAxgYfBmn+RI1xma86LMqXinG3QUw2UwMHMd4qygPvIwJEgAh4iYDSuM1GByk0JWWtj0LbkLdIALBriA8OIhy00b4xmhonlMaNPuqtCk+2drqoGEeq8MNniAARIALeICBfecacR3Z4VAKACN/xRtAMIzbkXbQGYKDxRVvTLUbkkXUbY+gubWuTANQINlN2PaH5tYxJ8ZAIEAEi0E4Eghiv2ugogwiv+YiIJVlzEwElTmiMp220aYqmTEfsHuEKH3VVhydJUmQKoyydZE0B9//XUQ2fJQJEwBcEbHWU0mkGh7DHFzlTPrKduanjbSMAQ+yQEZBA4z1TbZimE2qcDjVuT3Hp2m+g8RvTmAk937e5dk2PlIcIEAGLCCwfwCdtdJQJzREesMh6JdI2ZM2uAZC8+IHGGzbaMUVTCvfIFsRKALbgIZs2HYxwdwsgIItEgAgQgWII2PpaUhoninHg7i5TTjRLRwKAtHBP9rx3xxGO+56q2YQlSJIeW9j7urjVBG6kQQSIQA8RCEbQtjpMyTjoE6RW5JTtlBqnrNDOX4S2uSWtcJsRVnzSgy1edn0fH7ZR6EpwDiP83BbfpEsEiAARaASBpN68KUczTSfC8UaEmtGoLedQ2BFP42P577YV7pmhtsKnwxgPWtTF3sKM8EYiQASIQFsQkOF6ix2nN9umvP9SNxQQyLbD7NqEtthhHT4l14KthZeBxjnJLFiHPz5LBIgAEfASAavTADFe9UVo2Z5oMdApPzRvyOFnZQoiHGpj4Z66NhKO8N0sDiaPfc5uWRc3Pk8EiEDPEdgzwhUmO8xttDSu9wHiMMaPt/FmwQk30obGMVkB7wPOrnlIyinHOG0N95aVQXaNP9sjAkSg5QjIIidbHWgYY9UHeGR/vi0Zm6I7Gfbu9fY0KUBlC3/JmeCD7ZIHIkAEiIA1BGzWBpDOWQrhWGO+IGHhwZajaITuCE90oXBPQfXl3zbEDptrWKSGQ37DPEsEiAAR6AgCkgve1iIqcY5hjBd8gEpFON6IszY41SC5G4KDuMEHPJvmYRDjLpv6XNa4vGkZ2T4RIAJEwDoCtivW+bAyPdDYb9NhWKWt8X6o8WCXCvfUMWrJaKhivGsLc1+mrupgxGeJABEgAoUQsFxFDaHGb2W7ViFmLN1kM1mMLUeU0I3wkhrhSkuwtJKs0njMJuYcZWmlWZBpIkAEqiIQRHjcZqfqw5zqIMK9NmU0STuQ1e0at1XVZ1efk7oLJnHeRsuzJFZd1SPlIgJEwCMEbBZT2exkPfiSbcNaAAnGuly4p47ZK41jm/ZkcH3FJk0GXXXUw2eJABFoKwLKdh37CC81jU0Y4drNzt6GA6lBUyoKCn9NY+Rr+yrGXqu60zjlq+zkiwgQASJgFYHzAcDVVjvYjdrqt1gVogBxNcIDtuUsQz+pVSCFe4a4qAD7vbxFUvIqjTNlcC17L8v+9tK0KDQRIAIpAg5GAc7sjrGcttfUr4qwXtZB2LhfVpz7gEdTeijabqDxnA38U5pBjLeK8sL7iAARIAKdRMDFKIDyYCpAttQJH6kDcP0baJz0YXtkG4zYRSbHUOP2NmBBHokAESACVhFQMX5i2yHKvnaCs3JAAAAgAElEQVSrQhQgLrnklWTVqzFvX/bZQOMPUrjnI0N8qACLvb9lEOMzgllZnMvcLwmWlobY0XuwCQARIAJE4Pw+a1WmA616ry/7rZXGnVVlKPNcEONVGWGhhRVDQB3CTpvpflPdhTG+Xowj3kUEiAAR6AECSuOhtIO09SsFV3zJaS/bIMMRXrUhq6RaltS1PTAboyJaX48ii1I1XjbKNIkRASJABNqOgGTOs73qWpytL7UCUn0FEW4ZaBw1EQiI4w9G0NzTn6Jb/FfFuNuEDhbRkCmG4lzxTiJABIhATxBwsfhKOmjJ0OcbpDIiIHP1Kqq09ex1cWCXH8YlvsnVBn7UAfvbUcXuJOFSG/Agj0SACBCBRhBwlTlvEOGrjQhYoFFJPyvFhAKNf0y2D0Y4nuzdl33pEY6HY7woUyZSn96H8scFRPL2lqQuhcaJRV/uda+L/qQtb4EgY0SACBCBphGQhXp1O9tCz0vFO2bBa1rdjbYvIyauAk7JKtiosGycCBABItAGBEKNZws58brb6WS43YN6AW3QSdd4lLwMsiDPkZ290jX8KA8RIAJEwAoCMlQqC9pcdM5BjLd92RlgBUwS3Y7AEDuUxjNO7EtyCjDI3K4DniECRIAIzEJA5rdddNBJGxGOcwHdLE107/wgwiPObGuEB7qHICUiAkSACFhGIIzwc2cddYRXZFjYskgk3zACTgszaRxjxr+GFc7miQARaCcCuyIErqYCJNBIAo5D2NlOtMj1IgQkHbSzgFLWp3Dof5FKeJ0IEAEiMBsB2a7ntNPW+CXXBMzWRyuvDLHD6bD/xuJUrvpvpbGQaSJABLxCwEWa4C1BhsaJ4BD2eAUCmamEgBRgkhLIW/Rbd/fIouc9qD5ZCSw+RASIABHwEQFbefNnOYZghHeWY3zWRyzIUzEEJvv8nZZgFrvZHWO5GIe8iwgQASJABBYiIJ2qdK6zHLaN85K9zZcKggsB4g1bEPjYQXw0iPCGDbuYRTPQOBdEuG4LI/yDCBABIkAE6iMgnat0srM6YBvnk9rwEW6uzz0puEIg0NgTxHjLhj3MpTnCPlcysh0iQASIQO8QcFUwKNvRS9AxiHBwaYiLegd4ywQOR/hSxYJKyOq87LFkr2wZVGSXCBABItA+BFSMn5TtoE3cL6ljWdDFX3tJqikuWqBn47rGsV1DfNBfZMgZESACRKAjCCQru0d41YRTL0sjWYegcWNHoOyEGLI+xPUi0dRuJJW0rDfoBJAUgggQASLQBgR2fR8fDjROph2xy99ksdcImlnemreUpHqkFHWy8WW/mOa7u0e4onkUyAERIAJEoGcILB/AJ2WlfkOdP2RKQLIV9gx2b8SVdRlN6V5pnFUxrvEGDDJCBIgAEegbAvIFmKzUX/y1VmuR1yxHIwHIIMK9Mi3RN+ybkjfU+EKg8ZtZOrF9XuwtjPDlpuRnu0SACBABIjBBIIzxddfbA6edTBjj1wONL1Ip9hCQuX5XZXyn9Zv+ndgZt4XaUzIpEwEiQATKIhCMcWvaSTf6O8bTzARXVnvz75cqjcEY9zc53ZPalJSpns8trxIBIkAEiIBzBAYx7ko76qZ/xWE5B6CDDSqNG5sc7s/akUz1dBBiikQEiAAR6AYCXgUBMd5WI+y7dIhLuoGuIymG2DGZ1nk564AbPmZ1P0fqZzNEgAgQgcoINJEtcK5z0jgjK9aZRGi+SpOhfo07VITjc/F0uOAzmfPXuHM+57xKBIgAESAC3iAgX96+OJEtfET4UTDCVd4A5QEjaoidyRy/42JPW/QyI6iQtSUeQEQWiAARIAJEoAwCSuO2Ip18E/dIjXoZ5i4jT9fuHcT4TBDh8GRPvZVtmnV023f9dM3eKA8RIAI9Q0AWkfnqYMQ5TUocHxlE+FwfMgtK4qQwwn1K45d1nLPNZye5HT7Xs1eF4hIBIkAEuoeAZGwLYpy26TRM0JbUxsEIWo1wZZe0sPxDXBpqfFvFOGoCJ5s0koDsAK7uEv6UhQgQASLQawRkAV4QN1NAqJLDinA8HOHhj8f4ShsrzUnQpUZ4IIzw80ryz5iTt0lLthsGh7Cn1y8KhScCRIAIdBEBSdcbRHjcphOxQlvj/XCMF1WEFTU+/3U6xA7f9KPGuCzUuF2N8MRkWsO7Of15ugk1nuV2Td+sivwQASJABAwjoDTunOcMfL8mDnYSyNwt6YddFyQSRxlGuFYWWSYFeTSO+Y7ZPP6CEe42bGIkRwSIABEgAr4iEI7xKaVxYp5jaNu1IMJr8gUexngwiHCLLCxcjvFZqZq4Z4QrJFCQL3V1CDtlz32qm8sP4xKpaS8pjOW+wQF8YrJC/zopehNo7A9jPCrD+aH2fy1FCb29KXaQ4sBfIkAEiAAR6AkCsv9ctuOVcBitGtamXJiprzDGj/s+5J+U045xUzK1pPGYTDPJOpkgwhvJegiNkyrCmdSOZHdEMvoU460kWZPGsYHG0WRLa4QfyEJPGZFSGqonXQjFbDECpe1/hHek6FuylizCunxsqRhH1BhaxbhbPpa6toC7xeotzvpkhfpMZ5F2gPyd7VDbgk2g8V7fkvvICI84Zkm2pKTjcjTyFWi8IZ1kkp6bOyuKd0i80ygCTdh/EOMtCagHER4JR/iujMQaFYrEzCKwrHG5fM20xZGRzwrBSIRX+vB1mmy7jPBN2UWiPFqfIcFXEoCM8EBwEDeYfYNJjQhsIOCr/Us+Ghktk6JiQYTrqC8PEfA2hXAD2+I6E2RonFUxOl3MR7aKyrqPNk1pyXqSJBNkjGs87ArIUosQaKP9J/1rhHV5b1sEdfdZ3S0L4Tga0IkpERmGc71LwtkbMsRFMu8o6xmSr+sWB4kytyp5I2Qkzhl+bKjdCHTI/pXGKUkC19m+qo2W5l1VwRZ38K5HE5JcBBq3tdHuFvEsuzVCjQel03CNq4v2kt0mEb65CAde7ycCnbf/GC+oCDf3U7ueSZ1sndtY7dmJL2IXHXiTbUj5Xll4I1sdPTOleuwMsWNS1+KZQOMPTWLsrO3JV5F0+PXA49OtR6CH9h9q/FYWEH5kiA+1Xn9tF0D21Pu0oMpZJ9ymUQdJnxzh2rbb2jT/sn5BtuX1WudjPM2V1NOW0Y+/e2//GmeSGjFjXNYPjXss5aTE8Ju97oz9CwpOylZOj82mEmvBCDclc+P+4d3YaJisd+CIQCVzat1DtP/tO51kdJPrZJo25SEukkCAnfN2A3UaGMl+do07pcZD0yZhsn1JUMJFqHNsS7ZTaTzYxiJZJu2kq7Ro/3NsX0rIa5xLEhB1bZqzjQYtSWUCjV85dXw9/yKU4fDz82PfaqO9zOM5SdMc4Ue0pfkd4CY+skZA4455mPJaexCg/Re0+0n/n5S47+hC5/ZYrXAqC1Qi3CwpVDc7p547aRs4SGa5ZM+sh9UQaxnsEDvEkWXT7trAr8M0j3JYtJYFNvsw7b/WlFqg8TJTEDdrwputhzG+fj7L0wsd7mxrGWsVXMIRXlUxvrYJcocOJOeEbHurgguf2frFFEa4r0Om0QtRaP9bbbjOO51UZs0UeeuFAfkqpFTVUxoP8auuooFL9j6Nx9QYV/uq4zp8yboFcViSHrTOS89nt9qXjBKxwmMdy3TzLO1/q90ae48jHJegyo0W2cpCBJIUlTK8G+N1Y0ru8PTCZBplb+f28WcsJckt4VGO/k7a5QgPZCDnoUcI0P4tOf+MX+DaGI8MPmVFxbgmiPC40hdKrHay880YYiH5IrwkWReDQ9iTYtXVX7EByYFfCJeyOPL+rdNTYzzNnQJ+vUm0f/vOf7NvGeGJvpc898v6M9xINagkuUMfRwYkABrhCVnQJ6U6M7B0+nCSQ2Krk6LTtopHEOG1QYxdnTaslghH+3fo/Cf9SrJjaoxPtcRE+snmxw7io7KdMHGKI7yzGcF1yDlMVvAfCjW+0EcthxF+0EW9tkImjVPMItjsW0f7d+/8s++mFA1r1gLYemEEpLOaFCL6SWtTwGock5dedkVIfe7CwnfsRjXExW0q0ZvtNLp2HMS4qWPm5b04tP9mHf+Wd5gFhrx/X3IZVEPs9HproSxo03gsGOFumdpg8YoNNcr8W7JHt0MjOVs6lDbKxcQpuX2MjZO0f4+c/+Rd7WICNRu26x1NmR5orPOVsrPyRR9jNYhwWBy9VKbjdpPZZiKjHjL/3JjO2uicXfGscedszfGKCQRo//45/0xftNeEjknDIQLWAoCNr/frlcbW/wdwtaTmdChiZ5pK1nTodmWFlLoWEuDJtM0gwr0qToK826Qgy6QM8fUfj/GVJOOlxh3Jro0x7g9jPJokMpIg0ZUDN9HOCPs6Y3CeCUL799r5J4tuwxgPemY2ZGceArYCgEDjvXnt8lo5BGSPs++1ISYLMg/L+gxJWFVOwtl3y9RPsn4lxl1BjCeV50GBFBSaLQ2vVEGA9o/PDtpi/8ycWcXEm3nGVgAgX21cIW1Gp7JWw8sKkRt5J47IIjjh0Yy0xagEI1yVdIiepscONPYXk4R3LUKA9r8dId/tX6qpbueaZ7xDwGYAIMO53gncMoYktamKcdSbYXApmRvhSfnK96VcclLtLcZen9ZGSGlVwahl5uYdu7T/xSrx1f65O2ax7hq/w2YAcD7f/tONC9hyBpIhbxNz0zVpBDHeki9u3xMsSfWypKZ5TXmNBFwb9RiuabkJNso+7b8c/F7ZfwwEB3FDOQl4t1MEbAYAgcbvZb+uU4E61JiKEBtxRDWcoczrS6a1pSEuahO0yYKxEXTT6bGDEd6R+es2YecLr7T/6prwxv413utq4bXq2vHoSZsBQOK8mCSikrZlX22jzn9ji+ZtlZj36KHJtrHDjWIZ4bjrNRIeqaASK7T/SrBte8gH+5cgeHeM5W3M8UTzCFgPADgNUFrJgxifCTT+0IjT0jgrtSS6VuxGdiWEMV5oBNMYkLZLG0JPH6D9m1d80/avIryyNMQO85KRYi0ErAcAGu8zg19xFckc+/mvn9824ahkvrXrw9XhCF9S8kVeY1qk8rPMEbDwRaD9L4So1g1N2r98WNRing+bR8B6ABADsnjMPOfdpNhEfn8ZopOOoZuIbpdKVpYHEQ5VduQVgwcZ1eHW2O36yJ6h/WfRsHPcoP2f62vRNjuaNEDVRQAge9gNsNp5Ekkq5IrOpYYzO9rXzIyyQlmCnxrYlS45LLspOCKW/yrT/vNxsXW2Ifs/LQsUbclEuiURcBEASAfL7SDzFbN8AJ9UGu+7ckaTfeoP9n1eToKfJOWww8BrEOGp+dbQv6u0/2Z03oT9y/vW936nGW3ntOoqAFAaz+Q0z1MTBBqYl/4awb+AgIrwI1fBVxIQj3HrhdZ5RPtv1gZc27+KwcJBzap8o3VnAYB8YY1wpQ8y+8aDGuEBZ85HVvkzOUeuCUhFSld6SPIDfB8fzmWkZydp/34o3Kn9b+QHYFG4plXvNADglsBt6pbSx862/Gmc4SK0bSrYcsKxM3psS+M9/IP275fSXdp/EOFxv6TvITdOAwDZDz3Gp3oI80yRA42XXXx1hhqnBwfwiZmM8MImAjI86UInkzZ6nSqY9r9pdt4cuLT/MMK13gjeR0acBwCyAIT/EgRCjdudOBqNM1I9jLAXR8BZJxjheNvSLBdHcf6dtP/5+DR51Zn9a/ySCwIb1LTrAEAcHqukLS0lKTpdbEFjQZrKb9cgwkEXAdogwr2VmWzpg7R//xXnyv5l+6f/aHSUwyYCABXjpO9V5WyrW42hXTiXMMKXbcvSZfoyT2lbT4EsiBpiZ5dxnJaN9j+NiJ9/u7B/KdjVd3/QmPYbCgDQ5wUgYuxJp2977zkLMdV/r4bY4SI7XTDG/fWZbQcF2n879JRw6cj+wwj3tQiV7rDaVACQTAVofKE7SBaXxMVKW0l1W5wj3jkPASlprWK8aXkk4N2uFWCahSntfxYyfp53Yf9JRk6WjndvAE0GAEpKzo7Rq72g0slb//rXONbXhWW23iAnmeoirNji3xe6tH9fNFGODxf2P4jwnXJc8e7aCDQaAEiK4Aiv9clZyVCXzS/JQOP3Xa/oV9voKxKwvTI6iHFavrYqsteKx2j/rVBTLpO27V8+CKVQUW7jPGkHgaYDgIkzPGJHOr+oJl8/tlf+c97fqtJDjWdtBnDSyVoVoEHitP8GwTfUtG37Z+VYQ4oqSsaTAACBxh1FeW7rfbb3PbPIjH3LkEpmsmrZVhAQaPzKvhTNtED7bwZ3k63atn+lccIkv6S1AAGPAoBzXc8PoGIcteU4lMbZ3TGWF6iblw0gYLts7SDC5wyw6R0J2r93KqnEkG37/3iMr1RijA+VR8CXAEAco+TE72qhmj0jXGHN+cdAH5PJlLd2Q08MsUNpHLOmT43O1Qig/RuyPR/IWLb/MMKTPojZCx58CgAmQcDvu5gfOozwA1sOI4zx614Yq0dCio3a0qcs5PzIEB/ySNzarND+a0PoFQGb9p+8V4f6lRirMeX6FgBkgoBOZbCTYjzWHAbL+y4ta1wu60iSkqZjPC2LlcIRHpZFRbbqICiNx6zptGNrYmj/drv4rtm/0rjTLmKkniDgYwAwCQLOBWPc2gU1BTFusuUowjFe7AJGVWWQ/clhhJ8XwPd10yNLgxi7bJVyHmgcrYqJb8/R/u1ppKv2H8R41R5qpLyJgK8BQNqhd2FuO4jxZCqP8V+NGzeV2bODKhnlZITAJEw2RwG6sqiT9m/S4i7Q6rr9qxGuvCAtj6wg4HsAkDjMEZ6QPcRWAHBA1Nq2Mcn419N/tfYjR3jJFGzSSRkP6tIaER0ZBqX9m7K2C3T6YP+hxoMXJOaRFQRaEQBIhxjhuMxzWQHBIlHZ1WDLQYQRvmmRdS9JS6YwI8V5NB4yJWCtzjh19jm/IqcpHpuiQ/s3i3yv7H/EaQCz1pNDrTUBwMY2wfdCjW/liOHtKSnKYyUA0DjlrdAWGTPpbE2tCbDp5No88iVmQPs3+zL0zf4vHeISswiS2hYE2hQApI5UFkipMa7eIoinfwQav0n5Nvnbx2p/Jjs/0UWg8bIpszkfmP7WpH5TWmGEVu+Gof2bsrClJdq/OSxJaYJAGwOAtHNUMY4s/xCX+qpMm/PD4Rif8lVuG3wpjWcyeoep4+AQ9pjgdxDhoCmepui0tk4G7d+EZW3Q6Kv9S/4IcyiS0jYEWh4AiCN419cykrIHfaozN+O4IhzfpsgOn7DV+YluJK2pCeiScqk58/h19S9f0Cb4a4IG7d8M6r22f6kWy3/2EOhAAJA4VSmiomJ8zR5S5SnLCEVdB5D3vJRULc9N+54wtuBpjmOWZEGmkJnYoJkgL8NzW+dBaf/1LIv2n0zTnVNDZgWsZ0lznu5KALDpKDWOSUY4H+qqyxzzJl+ZDr3uOfnanKPSzlyy+eWT6sBkBcVgBJ3SNfrb0lwPtP96ryLtH0kwPYjw1XpI8umZCHQuAEgdrcYZSfrSpLO0sf85iHF6pjI7dMFF5ydOOojwuCnYbO0GaOuID+2/umXR/jecf/KOjnF/dST55FwEOhsApIGAdPIx3pLhSCk37KrIyvkMccroV+BEHpNfrHMNo6mLG5XGrCz4y9OHyUVGMupkJTWwxjNNqaNqu7T/isjR/vOm0H5SEU0+tgiBPgQA2Y4/KTkc4TUZHQgi3GJqFfg0zjJslW3X1HGo8e3ptjrzt+POT3QSRPiGSfysDHu3MOcD7b+CVdH+85y/nHu9App8pAgCNgKAQOO5ggVaZinc7XmZLtB4OYzxqBphn+y9Xo7xWakiJ/nYLz9cPhmF1DAw5fSzdGxVtitiK7bvOZ/b4emsrLaPpeyu6bUikr7UCt9jXGYbf5P0af/l0aT9Xxj2z75D8p6WR5NPFELARgAgNF2sYM0aSS+ONc4WUmrbbmrgy0fsxUYyJZlm6oUtZqbYnMlL+zf6YdQm+98VIWhbt9YKfm0FAKnwssjKWQfRRKfkss2OFv9x/eWTOH/5+rfwVS0jNLT3/C+52rjQ/o0FAMnoV4vsXxbYpj6FvwYRsB0ACKuy17r2y+/S0fra1ghPGFT9JqlwhC/J14BM2wQaJxNdaZwIY7wgJUcHMT6zebPhgyac/0Q+a2WUaeuWAgDav7EAQFncWmrD/ju99slwn1qKnIsAQBgKY0tzo746awt8CYallLvg5iDCdbLAptALK6l4NdQCkqUuN+b8I9xcitGSN9vKf19ITxbszpd2af+GAqs22v8YuuRryNuLIOAqABBeVISbk6GnDndSNjvLYIxbi+h04T1D7AjGuD/QOFeKX40zH4/xlYX0F93Q1Jy/xh9kjn4Re3WvqwjrpXDl+1Doy5b2Xy8AkB1QLbb/1tbEqNufWH3eZQAggkiBEH4hVXuRTc2D1c5Yp3FnZaPsuPNPbFzjMQYA1Wx8Hm60/+qYunL+1uzf0vRP5X6sKw+6DgAEN8lt7irT1bwOpW3XZGtiXbsztT9bCr1U4UUSGTWCu+VhzywWSuOhRmTs+EgC7b96ACCjr1kbtXlsw/7DGKs2ee4t7SYCgBTscITvWsmc1tGOsG4OANmaGcR425hz0rgt1eXC3x58+acYWMsF0FG7LmqPtP/yAYDLL3+r9h/hlZQ+fw0i0GQAIGIMInxO8tsX7QT6fJ8kJaqjeimbbBq/UOP2Ijx1dcFfnuyBxn7TOJMeQPsvHwC4/PJP3wUr9t+zEugpltZ/mw4ARMDlH+LSQYRHSi9K69sX0aF6ZTFtpKkVnYURvjnTUHv05Z9iINMjdNgVnNWi95n2X2ixpNheE1/+Vu2/hemwUzy8/vUhAEgBCiNcG2i8wc4zv/NMcaryu2uID9rEdVYQEEZ40ma7M2k7nPOc1ofUmJjJ1yInx+szndw0zmX+pv2XQavevVbsv6tZIOtBXf9pnwKARBr5Yoyx10Yp0dZ3ykNcXFXje0a4wqb82744evjln+pGadxmE+ve0qb9zwyOUpvY9h6mRunw14b9sx6AJQV6FwBM5JQ0rUHc0Nejp19hMlVS1QxUjGvSTsLmb7rPuI9f/qluOAWQP4JV1+5o/wVwbXDky7L9n0zp89cgAr4GAKmI4RifUjF+Urfz6MLzdQpiLB/AJ11h0FQlSNOlfVMbLPsrFSVdYd2ndmj/8wOATts/FwGW7YaK3e97AJBKEWjsUTGOKI2zfer0srLW2QYlIypZWl069mHYM7VT+eU2wPmOqqrt0f7zce2D/QcRXsu+Yzw2hEBbAoBU3I8dxEeTTHYaZ6p2JG19rm4iFBVPCv14OsVRRS++dX5ip1JYqYosfCbfwaW40P6349Mb+4/wUuoD+GsQgbYFAKnoaoiLZcgr1Hg27SC6/itZ/FL5q/wOIhzsHEYezHlO64JTVtsdlQm7o/3n4NoX+9d4Zvo9498GEGhrAJAVXQ2xUxLSnK9u90KXcwlIIp+s3GWPZQ5VvhhMdMZN0/DxyyfVhwxXNo1PF9un/V8IAPpm/2GMH6fvF38NItCFACALx+WHcUkY4cvytWsj8U2THWs4wsNZWascC40mZTDWtodfPqk+Ao33jMnZoemaupjQ/i8EAE1k+Evte9GvDfuXabVF7fJ6BQS6FgBMQyBTBWGMz6sRHkjKtGqcqtsRNfV8OMaL0/KV/TuZOtF4uSkZjLTrsfOXNSpGZKTj37bnnfY/CQB6aP9Vi4+V7R97d3/XA4A8hcp+4iQokIRDMY5Mtq29633HrXEiT56y55JRkhFe9V7eHCfoy1anWZifn4a6ro24toJn2j/6av+mSkHPem97e76PAcA8ZUupYvmKk/lyyZ432T9/jRQtUhrXF/0vtQ1sdKrC2zz+i16TICCI2xUE+N75CfZJFsucwKWuLUiq5aK258N9tP/McL0he+iz/dctBFW0X+zdfQwA7KhcMuLV7fTzng9i3GSK47aMBPi84GlaF1aqHmq8vzTEjum2fP6b9m8uAKD946zPtt5q3hgA2FFfcChJXLRtHjPPqZc5F0Q4bJJjKZISejwd0KbOT/QSjPBOGX0WureFtdBp/2YCANp/guPrJvs80sogwAAgA4bhQylgUaiDLzNEqHHMMJtLvgYB0vmZHPEwjds0PYvplo9Mt9WGv2n/9YIA2v8EvxGeaIO9t5JHBgD21KYivGQ8AIiBOkVRZkn7kSE+1FQO/5kYebzaOQ9HW0WAAo078trz/Rztv14A4PNWvzzbs2b/Y9yf1x7PGUCAAYABEGeQkOH6mc6tzFf/1L3BGLfOaLLWaV+2CLZt2DMFPdlmOqUrE/qvmwI35c/1L+2/WgBA+9+K20Dji65ttzftMQCwp2rJTmjCAUzTkIyHtrhuOghoa+e36/v4sI0slEJzaYiLbOnbJl3a/1ZHNv0e5/1N+9+KmeDx6SP4gE077TVtBgD21D+pYGh+IaDGOVPbAfOkbyoIkJe9TXP+WewkTW1eh1733EDjaLadNh3T/rc6s0W2QPvfjpdMS7bJ5lvHKwMAuypTEY4vevErXR9hn03OJQiQzGuVeKswDN7WL59UB0rjmA2swgj3pW208Zf2v92p5dkJ7X8GTiM80Ea7bw3PDADsqiqM8IO8F77uuUDjDbucLy3J0JuLIKDNXz6iA0kYVVefM58f42rberZJn/Y/w7FlgmTa/xyMNK63aZ+9p80AwK4JhBpfmNm5ZzqBSvc4eDlsBwFt//IR67FVYCnQOGnXOu1Tp/3PcW4xQPufg48+nwCoZQmw7L9RhltgAGAY0GlyQ+ywUR1LAoYwxup0czb+liDAxgr3tn/5CNayJVNpvF8pgFscALZy//8WG6T9z1wDRPuf4/w3+jdri5232Gif/2AAYF/7QYwnLTkIBCNcZV+C8y0McZHJIKALXz6Cu4oQ29KtlLV2olvLjdD+tzs62v92TKbfo1Dj25ZNk+QZANi3AUnoMW3cxv52nCUr1HjWBHE3o0oAACAASURBVO9tKGyyyDLUIey0NbqjIpyRhZiLeGjDddr/dmdH+9+OyXS/YiPhWRveF6c8MgCwD7d05CqGlXLDsk9cKhfal2LSQs2RgK58+Qgagwj3Tndapv6WdQXOdGq5Idr/BWdH+7+Axbx3JYzwpGWzJHlBgAGAGzuwtVBMXiIZYnUjxaSVIXYMIhyc9wLnXtM41ZW63pO5/zO5ci6e2585L5zSC8f4lFOdWm6M9g8o2v9Cu9+0/45Mf1l+reqTZwBQH8MiFNQBXJ0at41fWW1dhA+T90iKzsL7vDUeU2NcZrL9JmmFMR61oceEpoWCT01iJW3T/mn/hd8XjVNN22tv2mcA4E7VtpLFJC9WhOPuJNnakszxSnribS+4xhn58pMqeVufaPdfKsY122Q18NWf0uzq4ifaf7vtPuXetv3L6GLaFn8tI8AAwDLAGfLSsaedvI3fQGN/prlGDtUIV0oHsTvGciMMOGhUxXjdhv42aR7CTgdiOG+C9u8ccisN2rZ/ZzubrKDTMqIMANwpTA2xU2mc3ezoDX41pjT58tjVp6TmTbG28RtEeNyuBM1Rp/03h72plq3bv8ZzpnglnQIIMAAoAJLBW2ylRt10RlJ7oCPbxwzCboRUGOFaGxX/Ut0ltEe40giznhKh/XuqmAJs2bZ/eQ/aWvq6AHx+3sIAwK1eZCGcxcxxySrbQYRH3ErV/dYuP4xLZBV36qxt/PZh6xPtv53vihP7H+PFdqLTYq4ZALhXns0tURnH9DX3knW3RUm7nMG28HamUs90/Os/tQ7af4pEe35d2H8Y4/PtQaQjnDIAcK9I+QqShCClnEPJ9QKSoa5rq+/da2qjxWCM+23qKqGt8UxT8rlul/bvGvF67Tmx/xhH63HJpyshwACgEmy1Hwo0/tG6U4lx8mMH8dHazPaYQBjj6w70BNXysr9lTYT2XxaxZu53Zv8aNzYjYc9bZQDQjAFI+l4njiXG67uG+GAzUra7VVn05ERHPfr6Ty2C9p8i4e+vK/sPI/zcXxQ6zhkDgOYU7GhoDVLFj3W1y+lZHFQwwju2A4BA4/eDGLvKcdeNu2n//urRof3/YXAAn/AXiY5zxgCgWQUHGr+y7WQm9NtfW96RqmTapHCK45JrM7bpeoR9jsTyshnav39qcWn/QYTD/iHQI44YADSrbKVx/TanUNepzHh+EOGppSEualZiv1sPNPYojRMudBJovNH3kRnav1/vg1P7j3H6I0N8yC8EesYNA4DmFa4i/MiFw5E2wjFe5JqAfJ3LrgkXw/6iB0n607WKf/moLj5L+1+MkYs7XNp/8g6McasLudjGHAQYAMwBx9GlpLRsjHddBQFBhNekTUfitaIZKVMs8/GudCB74VsBjAMmaf8OQF7QhGv7D2K8uoAlXnaBAAMAFygvbsPZdpt0emBjmPuaxZx1/w4VYcWV45d2whi/5ijMVrui/W/Fw+Vfru1f3gHmKHGp4TltMQCYA47jS44ypG1msZNkRIMI33EspjfNqUPYKTskXDp/SQPNzi/fBGj/+bjYOtuI/UsArPFtWzKRbkkEGACUBMzi7VLEJ4jwhlOHtPFFuiqV2iyK5h1pKToSaJx0jjU7v5m2QPufCY3xC03Z//mEV08bF4YEqyPAAKA6djaeXNa43OVc9KYD1DgV9GBRjnz1yJemzap+m5im0y2TX8mnbsNmukST9m9Xm03av4rxJlf929VvaeoMAEpDZv0BpXHbLCdi+3yg8XInh6iH2BFq3G67ot8s/YQav5WKataNpwMN0P4tKLFh++fUlwWdmiDJAMAEiuZpOMqVvrkeYJvj0njo0mE3HFayvUnj5W0yTn2hW7uucZZb/sq9I7T/cnjNu7tx++e8/zz1NHuNAUCz+M9r3fkCtSmHKHviQ40HpXrbPD59vRZEuE6SH1lz7FN4zWrn4zG+4itGPvNF+6+nHV/sX2k8Vk8SPm0NAQYA1qCtTViGjCVb3CzH4uy8xvvyEgcjXFVbKNsEhtgRxLhJxTjqDJ/5gcBe2yJ3lT7tv4JmfbN/1iGpoESHjzAAcAh2haakUIyK3a9Wn+U8BzpxrHfv+j4+XEEca4+oA7h6EOFgEOPtWbw3cJ71F2pqnPZfDEAf7V/WE8nOjmIS8K5GEGAA0AjspRqdzOE5y1JX1FHKqnYV4eamsgoKLmGE+5TGL4vy7Oy+Hpb4LWXUJW6m/eeD5bn9H+vKGqJ89DtylgFAOxQ50PiiM+c1f0g7f+GgxjGp7BWMcJNUE7OBqpQNHcS4S+b1XeXsr4R5hJeY6c+sBdD+l5baYv+S6dJWH2DWqkhtiQFAe4xgEOFzgcZ7lZxSFade75mTKsJLgwiPBBr7BxG+Gka4Vr5azq8nUEnJ0cnwoMz1ykLDPSNcIavlEznHuFWN8MDEPl9vi9zc62/vfaL9Iz/4rveemqUpKcY1lD0rIGWjCDAAMAqndWLiIJXGmZYEAWY7F586ujxeJMvZEDusG0GPG6D9+xsESBZTfvm37OVkANAyhS0tLSVzfxqnGQT40xkGER6n83fzLtH+/bH7zT4owkvM8ufG/o22wgDAKJzOiMlwuWcr3vv1tZ8ZAWBpX2dmv9kQ7d+fICCM8eNNxfCgXQgwAGiXvrLcynBbEOG1zSg845R4zn4HKdUUVQzu888apcNj2r99G1/Uj4QRfuBQ5WzKNAIMAEwj6pae7LOVCHzRi8rrhjtLjTPBQdzgVttsbRoB2r9huy7xERFo3DGtD/7dMgQYALRMYTPYHUS4t4kKd30MLAKNXwWHsGeGKni6AQRo/04DgZNSTrgBNbNJ0wgwADCNaHP0ZKtdI6WES3w1tD5giPASq/o1Z+PzWqb92w8CJLufb1lA59kEry1AgAHAAoBadln24HqUB78zCwMlsBpE+A5X+vv9QtD+7QUBkmqb9u+3/ZfmjgFAacha8cD5+vPfUhHzBZgYcThfVe2FXRGCViieTCYI0P6NBgLvhjG+TtPqIAIMADqo1IlIkl0v1HjWhBPsI41Q43Qwxq3dtZBuS0b7rx8ESH4LJvfp8HvCAKDDyp2IFkT4xvkvot/20YlXlTmM8SjnOrvxbtD+KwQCEY5L6uVuWAClmIkAA4CZ0HTqgmyXUhFWmEZ4fmcYRvh5MMJVnVI+hVmi/c+3+zRQTmpujLBvaYiLaDY9QIABQA+UnBFRhvNUjCPpC8/fSceocUIqGWag4mEHEaD9zwkENB4bxNjVQbVTpFkIMACYhUy3z0tp0UDjud4HABqnpMRwt7VN6aYRoP1vBALyxR9EOETHP20hPfmbAUBPFD1DzCSneoRDKsa7vQoGIrykItz86SP4wAxoeLoHCPTV/gMNKde9cukQl/RAzRRxFgIMAGYh06/zMkcqqT2VxrGuBgKTr53DnOPvl20XkbYP9j95r48yhW8Ri+jJPQwAeqLoEmIOYnxGaTwk2+C6EAzIPv5Q4/ZdQ3ywBAy8tacIdM3+lcYJNcIDTF/dU4OeJzYDgHno9PzaEDuUxo2yFzhZHdyilL9SJVEy98le8J5rkeJXRaDN9j/CO7LYN4xwbVXx+VwPEGAA0AMlGxAxGSKNcMskGPiNbyMDk+H9F4Ix7l/WuNyAyCRBBDYR8N3+J+/j68EIWmlcv8k4D4jAPAQYAMxDh9dmISDbqSQ9qOQHlwIhSuN9x0HBm1IGWVbwqzGuZo7yWZrieRsIeGD/CGKclncgiHCL8GNDTtLsOAIMADquYFfiDXHR7hGuCCN8WcXYG47wsMy9BzHeqlymWOOMDOWrGD9J5jAj3CJlSLly2ZVS2U5hBGzYv0y5aZySAFtG3pJ3YIxbZVifU1uFNcMb5yHAAGAeOrxmCoGPDPEh+UqRojqy9Uq+2lWMayTdqDj1ZF/2IeyRjk0dwk5T7ZIOEfABgUX2v3wAn5T3YneMZUlBLff7wDd56DgCDAA6rmCKRwSIABEgAkQgDwEGAHmo8BwRIAJEgAgQgY4jwACg4wqmeESACBABIkAE8hBgAJCHCs8RASJABIgAEeg4AgwAOq5gikcEiAARIAJEIA8BBgB5qPAcESACRIAIEIGOI8AAoOMKpnhEgAgQASJABPIQYACQhwrPEQEiQASIABHoOAIMADquYIpHBIgAESACRCAPAQYAeajwHBEgAkSACBCBjiPAAKDjCqZ4RIAIEAEiQATyEGAAkIcKzxEBIkAEiAAR6DgCDAA6rmCKRwSIABEgAkQgDwEGAHmo8BwRIAJEgAgQgY4jwACg4wqmeESACBABIkAE8hBgAJCHCs8RASJABIgAEeg4AgwAOq5gikcEiAARIAJEIA8BBgB5qPAcESACRIAIEIGOI8AAoOMKpnhEgAgQASJABPIQYACQhwrPEQEiQASIABHoOAIMADquYE/E2zXEB3d9Hx/eHWN59whXqDGuVjGuCSJct3wAn5Tzco8n7JINImAUge+u44/+9kV8eN+/Yvme53DFvc/j6ntW8T/3r+K6/Wv4Uzkv9xhtlMSIwCIEggiPqxgw+l/jmUXt8nr3EAg09iiNG4MR7g4iHFYR1lWMN0vblsYpFeG4inF0EOEpFSFWGncGB3FDcAh7uoccJeoCAt/7Kf5k/7/hL/at4+57VvEPK6tYX1nFf66sA6X+r+F3K6s4vrKGX+x/Hk/tX0O8soY771vDDdJGF7CiDJ4gMIjwSOkOekHAEI7xoifikQ1LCKghdoYRvhxqPCj6VhpnTdvRPHqBxm8CjefUCPtkJMGSmCRLBHIR+D9ruHT/Ov7ynnX8/co6flbKwZcNCPLu3wgsnltZw34ZSchlkieJwCIEVIwj8zraKteCGK8uapfX24dAGOPrib1o/LKKXdh8JtD4/fnphBcGEe4dRPhc+9Alx74jcP6r/G9W1vBPydd5nlNu8twa3tu/hhdW1vF333sef+47luTPEwSSodoFX/SlO+4Ixz0Rj2zUQWCIHUrj+kDjH4MR3iltB6btqgw9jTPhCA8HI1xVBwI+22MEhtixso4vJE5/Df/t/Cu/TkAh/D6P/yvrC3qsQYq+CAE1hjbdsQcx3l7ULq/7i4A4zUGEg0GMt0zbRhP0BhpHgzFuVUNc7C/q5MwXBGSB3v41HFpZw3+1yunPCBjuWccrK8/jtuGLtH9fbMwbPsIRvmu8U9Y4442AZKQwAmGEbwYaLxu3hzJf7hbvDTTeS6YwRriyMCi8sTcIiJNMnOUaznXB8W+TYQ3vraziyD3rtP/eGPUiQZXGbVY6fH5tLYLei+u7IgTBCFrJynuLztc72hrPyPSGF0ogE40hkKzcX0N8zzreWemq458eGdiQ8zmuFWjM7Pxp+OMxvmKjc+bcqz86zuNEttMlW+z65PRzZA1HeDWI8I08jHiuuwjIXvyVNTyz7St52ll2/O/J9MBfd1fTlGwuAssxPmsjAJAV43Mb5sVGEFj+IS4NI/zAhs7bTHOyrfCORpTCRp0hIMl4ZBi8744/R/5f3bOG/+1MEWzIDwTUGJdZ6bgjrPghIbkQBD59BB9QMfa2bjV/zle7FXudtBNovMG8At17Z4Zv4H/InvmVtq3mdz0CsYb/YF6B7tn/XIlsJHEJYzw6t1FedIZAOMKXlMYJm46za7QlQZaMljhTEhuyhoAk7FlZx4mcr95yGfpcO+MG29u/jkck2ZE1pZCwPwgoC4ldZDW5PxL2kxPJva9i/KRrztmVPMloicadS0Ps6KcFtVvq/f+G/y/Zw591pOlCP/5u7HSYhYNgJqMla7T/dr8FBbhPUqoaHmoNNU4XaJq3WEJgsrvjXVfOssvtyELBPSNcYUlVJGsBgUkCn637+FNnlwYE03/z/IUREcFmgo8sFJRFkxbURJI+ICBJX2x04Ow03WtXtvUlufkNB3Q27KNNNCXVsARV7jXKFssgIMlukkI8qXOf/t34sr2wz3/6evp39r555+Zdy6PRtvtTGdZwVvIklNEF720JAkmWNAsOYxDjrpZA0Ak2k0p8G8luzFZ3tGAbbXL+W3gd4QlmFPTzdZG0t5MqehccfOrA5Hfe8fS16b/zHPcimtlnpulN/529N3tc9b6qz2XbTo/TX6G5in9m2WI/7b8yV+pAUpvdvNMY4+nKTPHBUgioCCuBxrktzoqO27xNx0AY49fLB/DJUgrizVYRWFnFX51f5X92c6Ff6rTS36IOMb0//S373Kz7q9Jz/ZzwPy3D9r9/JemSrSqUxN0iYMVxMCWwEyWqCD+yoj8GEHMDiFDj204UzEbmIpDk7c86qazTzHNo2euzjqs+Z5peVT6yeJQ9niVDev7CL+1/rmW26KKK8boNJyKJhloEQ6tY/dhBfFQWqNnQG2lirvNP8QkiHGqV0XSI2eE6PppkskudZPb3gpO6MB2QniviEGfdW+TZWffMorno/KLrs9qrcl6emffc1HUJvjpkUv0VRWk8lHZqJn+lPnt/UbUn+bLG5dzbX8xJm7TnPFpSdtiepkk5D4Fkvn8Nv9virFJHmf5OOast985zctnnTRxnaVRpt8oz2Tazx0VoZe/PO86eE3qrOJKnI55rEQLBCDfldW51z0lmtRbB0ApW1QhXyjbLurrh8wYDiBGeYL4AN6+PzD9P9qjnf91nnVzWWTV17BM/RTDI8lv0eB3/Qvt3Y/9WWpGsZ7YcAhdMmVNZOManVAzu7/dxfYIseh3iInPaJqVpBCRN7YqUtRXHNMs5ZZ3cvPtmPW/y/DSt6b+zvJY9rkKryDNl+UjvX8Mzwxdp/9M225q/gyjJg15o7rNMsCB5BloDgseMhhGundS0N66jMvoseO9JFeElSakbaOwfRPiq8C/BoNJQsn4h3U53+WFcIjUpJG+EBDiDCJ+TramhxoNqhCeSin2yD99Hpz/FU5KDgaWwrbxF+/8Nf7G50j91OtMOLft3ek/6m71m+3gNkoToZ5JSN6lBsIq/kuBFRi/+7qcIZf1Cup1OMhbeu4Y/lmQ7yejGOr6wso7/dc86/n5lHf+ysop/X1nF+2linpmBTxGZimAxj868axu0fya5GKwYAInaRUBFiG10skGMt+1y3n3qwUHckCSjmXI4NvRViabGMZkLlyqQtnLoS4lpyS0hQUEQ+zsFEmo8232LdCvhJJ+/pKfNH/ZPz6e/4qiy/7PnTR8LvY0iOv8g2xFt5dCfrHv4dhIUyPqHInJMO+zpv/No5J0r99xzbq2DrRlBQGlcX6nzL+CUxIEZYbKHROSr2EfnH8ZYDSLcoobY2YRaBgfwiTDCfSrCcVt2W5VuEOHxJjDpYpvJsH8RZ57ekzqw6d8iTqzMPatYly91Ww5/kS4lINi/hvuT5EfTss+TY9G1eddTTKfvkb+z51bxz4v453UPEbA2xBzhRx6K6z1Lu2Msqxgnqzoi089JkSelcacUGvIJvEGMz4QRfiCjTaZlrkqPWwTrW8j3foo/2SzhO8v5pOfT36wjmnZMZa7l0Eu2Ha7h2zKEX186cxRk6iDJh7Ax9bB4pGQah1TW9HfW9Vnnc56TlMzmJCQlJwjYqh4XaPxB5nmdCNGRRpK5cQuVGss6tER3Muw+wlXeQzvEDhXhZlt5LcpiJxkavcfMUwaTan6r+M8tX5azHFD2fI4zmkmj+L3/Il/cnkK1ha3zIwJ/s38drxeaIsjKXxVDeS77bPr3xrn9W5jjH34jIHO4pTu5AlMAQpP7pUvofsORvWRLF4XoapxVMY5IgaESnHtzq9RGkIWIhWQtaMNVaIUat3sDSksYkdXkK2v4ReJYtjqU+WsA0nuzji17vOGULtDIuz+9RxbereKILNprCWxb2EwWTa7jZ5sYZnHIO86ey8Mle33RcfY6iwht0Yv3f1ibBoiBQYxd3gPgAYOyer6KszH1TBjhSZl+8ACK2izI+pOm1wkEEa6rLUiPCCQL3VJHnP2dPp7+O+t48o4Lntv/PJ7a96/dsP/71nDD5jqBPPkFw/R/ej39nT5fFO+p+/av0v5b8/qGMX5sypFM0wkiHG4NEA0xGmp8axo3V3/LVlDZrteQ6PaaHeIiFWOvinDGFZZT7Zy0tTvCHmjNUL5nFd/JHVLOOqX0OP2dcjgzh7/zHFr22Y3V/P+zGcnttTp8A/8jwXUN/70N2xTD9Hcao+z5qsdr+K+mFkvaQ7WjlJOhU1tDohrvcy3AbMORLH9qY+jd6V7/JLOgxp1dz+YlixcDjX9sonJiGOOF2ZrnFUEg2QcvQ+9FnVDWeRc5znNgck4c4xru7HoiG1m8KNMamwFSFo8sfrPOT+sl+8y843Vg/xrtvzVveRDjrakvGJMOibmjcyxBEuNI6mSLuOfqUByTJObJYamzp8IYn28kl8AI+zoLak3BJDHOiiz6S51P+jvP6WTvKXKc76R+1rev0+89jz9fmVVLYRrvIrguuie9vgYuCqz5njh5PMnCZmkUQL6+ZG+7E0Fa1IjreX/RQzDG/V3/6p9lAkk2QseLBGVHBStk5mtkZQ3PbH75F3VC0w59+u/U8eSdX8M52Uefz033zyajAekiwVk4TeshD8dF92SvSzur+LPuo9tyCQONPTa/RIMIr7UcIqPsT7au5X6hW9GDxilJuWtUiJYSUyM8YAXjGQF0Mrp2qJnkSb6q6J41/O9tX/5Zp5R1IvOOs8/MO17D7+Qr2Fc8XPI1STm8fStfil/6K7hXPc4+t44TssXTpYxsqwICkunNZscYjHB3BbY694h8idrceTGtQ1no17ch/0VGk6x7cbv2gtNgE6XIavvcHP9Zh7PVgcx2RNlnZh2v4T98S+SzyD5tX0+2DKZrL7JYmzqe1gVLCNtWaX36ocYXpp2H0b81ztARLS1JbnujuM748pQ2JJPfR4b4UH3r6B6FpNKio10CMv3CKpkbNrQiKXXzHE32XNaBZM+XP/5FWoSnexZcTyIZmt/MupjF28bxxvRLKxIr1UO15U/LUL1V5yQlVHv8z+qOi6lAQPb29xjqQqLLLozz2zB/a9XmJ3oJYrxaiKkO37TyPP56c94/68zF6WQdz/S17N/Fj5+T7XAdhrO2aFKRcEXSCRfHdKuesjrLHmfppbpdxb/XZpgE7CIQRPiG7c4w0LjDrhR+UpdV/0rjhG18J/Q55FzQDGSbqqvdGH3OEpis+p/lbFKHkf6mTiP7d5ljDjkXtP6lpclWweNbArCsM69yPK2/VHfMElhYL83cOMSOQONXVp2UxtlW5Jk3rIFBhINWcZ18afLLv7zikiDAQWEh2YooNR/Kc9j+J6RYTKGv/yoOJ3Uwsv/8eTzVfrTcSnDvGv44GQmYxn767wzOC0cN8u5dw++4INCtbku35mSFeoTju4b4YGnmWvpAkvBnaojeRjDA5DPVDUSCUheZA/uYHTNJ+DPLmeQ5iln3LjjP5DPV7V+KH1lfE7AOsGpgdR05e9LJkKjGY84EarghW1UXtwQRGsdkmqFhUVvdvOzZt52ZURYEtrXgUlXlyld57te/Qee/Iqv9X6T9V9WRPJcsDJTdAale0t/pwGv671n35Z1fw7m2Flyqg22rnrVZJTDrtIIxbm0VMBWY3T3CFVmZbRwHI7zDlMsVlJPziIsRMElPnNN0J0/ds44r584v13Em8uzG87/jVj8z5rNloeYs3eQ59ln35pzfv45HzHBLKtYQcFFaVTKlDTS+aE0IDwgHER634fRTmvJFySQ/ZhUtZZFTfG38it33JWDbrPSX4wjmBgZFnczGfV8wawH9ppbUD5ilLzk/fW3670W6W8X7su6g3yh7Lr3MWycdle25a42znaxIt7S0JCV2xUHbcCIpzTDCfZ6bUuvYc1GnoQ9rAb73U/yJ7eHkPqf3tfViyVSKTKkkjr6Ic1/k8KdpcC2ALdWZpas0HkodjdVfjTNd3BlgO99/OMaLZjVOaikCwSHsUdpiOWGN96VaYdpeF39XVvHP274WyzqLWfeLU1nHz7qImw8yTYK39zYDuGknntXL9LXpv7P3psereP9vX+y2/fugx1o8SBa5wMH2qCS40DglNQlqMezRw4MYu2wGTZLAhjXn7Src+lqYCLFdCZqjvuXrv4hDmHdP3jXWnLeu3M31AKnTztPDrHMFzu9f6679W1eOqwYGEb5q05FlaQcaJ/eMcIUr2Wy2I0PzWdlMH388xlds8k/aGwgEMZ40rbuUntSEuHTYzbwAm0VnFjmPAo4i7yt0/zr+kjZqH4GFazhEf0V0mHfPGs4yL4B9HdZuYRDhqbTTsv0bapzuQt50m1n/uN+/tkkXJiDrOGxuDexqZszNxDJ5Hf8ipzH9zNT93O9f2Hxr3yhb9lbSwkHTekmDu/R31vU556UyZG0mScAuArJi2UWSlM3gQuNMmxcGBgdxw6YsNhZRjnClXY2TehYBmyWEwwg/z7bVheOk2tycTj/vi37LV2SeQ0nPcR+5cxORhZZb9DOt2+m/U13J+XnX5L41/MK5QGywPAIuC9mI8ww0fi9tlue0+SfCGD+2FgBoPNS8hP3i4NNH8AGZnrKoU9UlREsn/pl2EtN/ZxzK/jUc6hJWbZBFiipVHtHJ6G5L4JfRMRMDtcEKlpaWnO0K2PrVvLcl8CRsqiF2WnMUMdD1leO+6lqG6q3pdYQHfJW7LF//Zw2XbhkyznT0M78GZzmJ6fOreF/ol+WJ99dHYGUNd85y4DP1Krqfpf+MbmW9SH0OScEJAirG69Y6wq2OH5vtRFj/2EF81ImANRsZxLhrk+9Z8lQ/zyp/NfVT9fFJNcdTVnSrcaIqX749t28ddyed/qyOP88pzLs34ygkQY1v8vaFn0lugN/NdOizdJjVX/Y4e/8q/rMvOLZezmRRVGRxf/QM5yiLA9uQNVD25ttwEklCIY1ODRW37WUIxrjfhm6FZqjRiWx2sjd/y5dittNPj9PfrBNYdMy5/8Zfl821AIt0Jdez//P0nT23cW8nvHMEowAAIABJREFU7L9xJblgQByxrY5wEV3JoOZrJUHJm7CI/8rXx3jahW7ZxmwEZPolWZsyI0itrNsNeq3/upUtXQudf+oYsg6g2PEzszXDKy4QkHoLpfU7S7diB+k1+eXojgsVmmvD5tfQoo5UkhP5OBpgs5BMEOE6c9ojpaoIhCM8vMg+q1wPNH5VlSdfnltZxV9tfvmlnXu2o69xvH+V9u+DnpM6AYt0m70+T+dy7cL/1tu/D/pxyoMa4YkqnZ2xZ8Z4WjLuORV6TmPWCv9o/HJOs7zkEAFJWW3MfqdGEtqyzmUW3FLlrfQc8TwHkTqSVRyf1SbPu0Vg/xr+dNNpp/qZ1mHq1GddT89P/bKio1td1m9tiB3nv0xfsNUhFqEr2dQGEb6zNMSO+gLVo2Atd3yElXqc8WmTCCiNY0Vss+w9QYRbTPLpmtbKGjYWiU07hLSjn3d+3rU17HctC9ubjcD+dbw+Nwgoou/8e/7X7FZ5xUsEZD4+0HijbGdn+n4ZQg3GuLWpQEASF5mWSegli//GuMxL5feUKTXCPhu6DmM82lZI730eV9f6+s93CMk8MUvH+mUVK2vYvzl/Pz9wOzc3UNj+7D/5JSm5KYSADF0GGr+x0SmWpSl8hBq3Lw1xUSHmDd2kIqyU5bXQ/RFeMsQiyRhCwGKZ5zcNseicTKHtf7OcvDiC7c4gdR6s+Odcm/Mb3PevWN4MAGbptMp5bgecD7zPV5NOMcZbhZza1NynlWc0TiTJW4a42AVutub/z1f9+5Zt/ier2+8IIhwSOcIYq/JfjuWc8OBL5UF1AFcPItybLMYb4YlkCkrWgkR4JNR40FX2SGtTXy3d6rmyhn/adAqznflsRz/DYTBXvO23vxr9ZLtnGrjN0/cMvc6yFWYFrKYPL56SSn5Kw06ylIpBg6wRUDGOqBjX2ATJ1rywzYVhsmuhTN4CcXrBCDfZxDGP9uWHcYnsOik8yqRxJtD4x+CQvfLSsu7ERuDa1nUAybxw2tmnvwYcA4f/896I5s/ds4rvbDpxg/peWQfXATSv3uocSBAQjPCOjc6xLk1ZqyAdt/F0urIYUuNcXf62PR/ZWf0s6xWCGK9ua69gkDXQOBqO8anqVlLwySEuUjHuDmKcrsJroPEHyRthY/RC5K/C08JnohbWSB9iR+n0v0WCA67+L/iiuL9tZRV/tjm/X0SXBe/Zv9ZC+3cPv98tDg7gE74GAdIBi2MIR3g1jPCDj8f4St2a7CLvwo69oHOdomM2OYwEKiPoqTYupFwuwaMEPDIUb8sSxWmLjozwGuP0cozPGuV1iB1Wdn1otC7hTaGtYVW+EpkcxqjJmia2sob3NkcBCjr4hfevtc/+TePaCXrLB/BJn4OAbY5F45gEBLKAMFnRfwg7iyrCVgKgMMI3i/Kw6D7ZrTGI8NQ2uUs4/bxnZZ3AorbLXk9sx8Z6kgg3l+Vl3v2hxrN5mNQ6Z2nUZ54cda/JsO3Cjr2Kg+BwcF3VWH1+ZR3PzVm8eSHTXxndc9THqs6cEpc5WBXheK0OsaaDqtW2rGeI8JKsIQgj3JfM+2rcKdsNZS48jPDlMMbnlcZjtdqZIaPJJEfWFq1JHvsIT5oyrN2yjiTGuzbwTGgaDAJsbQc0hWVdOt9dxx9J9b3vPYfLZHHW936KP5Gv/WTL3yr+TLLzfe95/PnKKv7ZqCOYOAxZbV5XBj5vDwFb2wHtcUzKzhGQBVyyotxahz7Deba+PY1TppRlK0DJYiyjJ3X5lWF/pXEiS9f4scZZUwtCg4O4wTh/Ys8jXFkXyzLPi6OX1fYrq1hfWcV/bpnbFWe86H+V4f2UZt6zcm4NvysjA+91j8B9a7jBaOA3sYV7nsMV7qVhi1YRUCM8YKWz7GgAEEb4uQmFWK1jP4V9GOPrdXiejLZUWpNQxrZkUaEEpnV4lWeTyphTGJThY9a9gwhfrctbkeeHL+IiWc19zzreWejkU4ed/qaOO/2V86aON2j9oogMvKc5BGRUyJjOs7azir9qTiq2bA0B2aOtGiglPKuj9fm8iaxwSZbGiivoq2BTp6BNYhsWnOksOWQxpAlDn0W/1vkR9pngbR6NSeW+X2z5gks74aK/08GAqSBgDeekrsA8/nnNDwS22E8V/ec9w9TPfijXBhfJV5OlXOq1Ol2HzqcInyZW2DdRsVFGHErbjayod71WROOsiRwLQWQ+DbaJ6ZR5Ohi+iItXVvHvW77e8px5em66k87+nQYL2XN1j+X5dfzdPBl4zQ8EVtbwH5ujR4ZsYf8aDvkhHbmwgoAa4uJJch7rw71FnK2P95hIuNPELgzJtVDWaKzNpS8I6mRhZ1lep+9XYzxt2n5MjP5M85n9O8nal3XSaced/uZdm3Uue97UsfDxPP46yzOP/URg//N4aksgmWdDYhdlbGMNrAngp7rNciXb5wKN35vuQLtAT7Yi1kH7/Kr/68rikGxrO4Cr03YHMT6jIqyXpXN+0aFKaRT5lWQ9ZduQIfxsgp9kZ0bJrYOSZ6AIf/PuSVISLwg0ysom2zXntVnn2v51/OWWDrtMx5x25NlnZnX4dc6vA7LDoI6cfNYNAves4h9KjQBkbWfGsQQVbrhnK40jkKQPjvBK2U6y6/fLXvg6ypFh5MIYaZyVLY2z2pN8BIVpxUBSnnkWsZzzgcbJwvQ1ju2KEOSQSU5JTYDCtITXGLtm0SpyXkWIy7RX5F5Jz1yk7Sr3rKzieKkOO8+RZ8/N6MRLffEJjSydNZyTrYZV5OMzbhGQzH21A8qsPW0cswCUWzU235qt3OpFOlwv7yn5FT2twTIr6ovM25eqdjjCE9P8zPpbjXFZGfxlDcksWun5IMJrRWkGcb3aBrJWo2hbJe57PZXF5K98VW9xtFmnW/Q4x1nXDiim214HJOeASdlJyw4C+9dx3xab2u7MtwZ307rOuV/qStjhllS9RiDQSeIgSbzT+7UBdesVFF1UJ+sEihiFbJsrrJcIrxShKffISEdhuhqPFaErBXUK04yxtwjNWfcEI9xdoq2idm2lLPD+NdxfylnP6qyznfase6qczzzzty/iw7Mw53l/EEiKAonepv9nbaTsMcsC+6PgJjiR/eTWE8J4HmTUxb3wAsASuecDjZcLObsSSYxKLQDUuK0ILjKsX4hPqQsR1VtxrDRuK9pWifveLSJn2XtW1vEvW77WMg639nmTtNZwTnYqlJWP97tHYOV53LY5BZA6+vS3qk2s4T33krBF7xAYxLirsCPz3KGX6PyTr8S6yijaXpkFZ0rjmSJ0ZWFnUf4l6U0RmnJP0VK5k10mxb62C44qzJKn7PqIorLOaq/O+f1reGGzs67aOctzDp6tIyefdYdAUgcizyaq2EjmGXcSsCWvEVCHsHMQ4WDRjrMr99XNVFd0BEX2sRc1gEDjN0XwlfuK0pQqfUVoJveM8EARuuoAri5Mc1wvIZCNTItFp2WKYJG9J9mylddZ1/1is0BTEhVleeexnwgkKaQzjrtwcDj/mf/2U1py1RgCkwRCVoruFHYWLkcZxrisDtgqxtGickk540VtlXHUZdIYy4r+onzKuoZFfMr1MjsgZA6/CM1Z96gYewvzX9R+NE7Maq/O+WTLlg/Ofn7nf06cyL1r+OM6svJZNwhsWQNQxrbm32vF/t0gwlasIiAOI9k3vlHUpdgwb9GO16P7pJJiHSDVCE8UdUxFtp0NdPGAomyJ4KJ8yn0yLTQPl/OJea5WJWzj4zG+Mo/eomuSTKgM/0XurZJMaRGfcv38FsC/2TIFUMARF/6iy3boRenOuY8FYYpotPl7koWlWd0XORa9z9G9ZBdsXjJy4DUCaoidSYEh29XjGgoK6uYBkMQ4RZxNek8Q40mpHTCtdME5jPFCel+RX5kXn6Yz7++y1SJDjW/l0ZNRirJrRj4yxIfyaBU9ZyMPgCy2LNp+mfuSFMBrOLug802+wGvdU8QJLLiHeQDKaLa5e5M8APOd+XZ7WqD7lTWwEFRzKm1fy0khmRJfvEWcWNP31M0EmJTWLRu8aJySzHbJwraN1e1HyjpUwa3s+oUq8+hBjFclAJQveDXCvrJBRKLfEjsgZr0VNjIBiiyz2qt7flvilkWdcdnOPe/rrgINZgKsq2k3z688j/+bBItFdZy9b5btrWLdDfdspVMIJHvVxXGN8XTbUwzXTVAjiq3kFMsGDdP3j/F0WaOSojyNBFwRbi7L6/T9NmoByGjMdDum/v7uOv5oZQ3/VesLP9uJFzme1dHPO89aAKZUbpXOyhqe2TKtNE+n07Yy/feFZ//FKtMk3n0EZCuYbDELY/xYxXi3EQcz7RxL/G2iGmCZhXum8Kk6dVFm4Z4JXk3NsyuNX5rgJ0tD0hnbfENXVvFnuV9tsztklOrkp+lM/32ho99Kd+t9rAZo0wgM0V5Zx/+bG0xu1enWuf8ZdsBS0IaUQzIXEFAa10sBmUlxm+K550s47WwnXve47EK6C5JuPZJ9/nV5Kfp8HZ5lysLlqM282gdbEZz/V1FsytwnZZznt1r/qlTbW0nXA0x30jM65i1BQJVnFtHNXl/FP9eXkhRsIzDX+Wf1mR6nv2I/M2xIFhba5pv0e46ALG6TLHThCN9VEX6kYrxeppO2fa+JSnWiYqnM52QERONU7cI6drLqbd8pUqJWwbzXZPcIV1ixAwNTE/P4Tq/t+1csr6xifYtjz3bQRY5ndOKzOve557O0VvHvKZ/89RMB2amR6DOrt3nHci17fZZ9reJv/JSYXHUegSQ3fYSbQ40HJfNdstgswnGlccpKZz9rhEHjjCmwVYxrymyNKytnoPFe1aH/aRmTUZpZmJg5f1Smh6bbrfJ3mSyGZTA1hWVRmZJsbmv4XanOPO28099sx27ieA1MBlNUgQ3dt7KKv5oZPM6ygay9yD0593EHSEMKZbPVEJBV6GU6+KL3Sqnkahxtf8qWs5JhexlJ2d5i9TOTEZntX+51AwCNYzLyU52zrU8m21Dr8pT3vKEAZSu3i/+6Zx1X7v83/MX5qYH9MgybJHlZw51J/gDp7NfxBVk/sH8Nf/p3P0U4XMdHhWrpZDA5nX5e8MFcAIt11uQd96zj7zcDgKxjL3Occ68sVG1SLrZNBEohMND4YlGnXua+/7+96w+R5LjOy6EIkQTFGCWRT7c9bVkIYUIwShQIBCcxxg4xdiKjgGNBECYKRxCHrESa2ZM4xiSe7l45ORAm4SBYNjYE2fivcEzP6cRJhMQEK5iALkFczEk4kdAJcSuOcBzm+LJf79bsm9runp6Zrp7+8f5Yurq6frz6Xu181dWv3pvn9GYhIRl5j+fkI7y7iAx5Zb0I/+uN8NFF5ShSng52vAA38/pf5JkX4GxZb/5Gfno8XESGImW9CD8x7Tfl+kyMT06JoAi5p/zoH3oT3GvneFMw6KKcPK8/XbhRX0V0b5c5fK9eALs4mZo85qXO3Ke9+Vl5Lo6DJa53Q6wccrkX4J94fM+l3hgVspQFS8EYAouMhU6TihD6omW8EOcXkaMOZem3f0oExcn9sIMYSQYxbjJ2QR3GpzIcRmB4EbcOxrgxQ/pFdD+nDANWHe5NcxSBmiPgRyj9ZIGroDCE0o/wh/StvzBBBbi4GeLjVakjIdoRvkI7g0VkTXYPQnxrVcPErHG62vWhY6GsPuucP/UtIEk8Kz2HBMxiYmuC9+o85i7Llnwqon5tHdv3RXQtyjBeRZdx1bE3FAFXTndcG4T1AnyCpJPn8c8L8DbP6a/qnXAV1X5wiNvp3jjZyrd2SqyFwQ82QzzB4FGr9Devrr+NwOq3FJsFekWc13cdnycOYYr++Bcpt08KahBWR21vbGR6lBRkvtBnof05weiC9RyxSqUI5CDgynqd38Jzui31EUMvMwgRbQUSe4EAd5N4S+2kpMb4+YH2B1yUMACQqzf9LHFdOADiguJYgHuy+qxzfmIQxh9x87ciEZh29Ex4PbU+GOOy0dEM0a+ofzX8rKe+Vao5CHgjPOTojfDSnK71ccUI9LZxvwtd7wY5+p+Kh1Jad8mRsP23uCkx2PfLLQp0/pempXIa4q5MouM0fablFV0UxHirHAm1FUWgYgSOfg13lGm1LgmGb+MVD0e7y0HAldviVTwp5ohbyaPEEND8+NvXVRcCYzxQySC0k0II9GOcni7yjK5X1THbUe+PhfDXQjVFgGFcJXGXlfZCnK7pkLsn1hBHnDmFCvBIkwFNjoVJQrBJwb6XZXPSJJwm49Iq2Yc4MqDTqBx9Lb04ONfs+d8qPetgFkfADzEoi/Rn2gnwzuLSaA0XCNDp0Yxu8g0SFzIMdG246AIP2SYdCOX++C9LGjGuyH40vT4EEp8PXMgtuZibzo+U+nRNvb6Rac+KwIoIJG6ESyQESTS0gF9RPK1eAgL0fyD1UlbaC/DjEsRbaxP0EJj5ZphGGikkMCUIe7Ggb4dr1a3pfDDB2Uwd2zpL07kpY65mDoxx2fShV0WgsQjQO15ZpCDbKSt8bWOBrYHgm1/Fr0idlJlu6vl/Wy2Jdbj9425+5G1CSCuXVXaC/7T70vtqEUgWeLYOs/WVv0tgtzPGmWpHo70pAg4Q8COcKZMYZFv05+9AZG2yIAJ+hH+U+igzvU4fCwWHX6gYHblkvsXbZDHv3l4gjPFgISG0kBMEaKQ31a2tO1tXCz7vj/FbToTWRhWBKhHoRfjdMolBtsXIhFWORfs6QIAulF2d8mjD9r9Bij/kCUmkEQJJwfylPU/Lk0SiIYINzJVfGfxpuvWfpSepq0X0rNv/letTO3SIAH/QJXGXma7SDa9DiBrXtOOdnZONAyRH4N3oga9nLgLyyKMAgTx5Dr+d07U+coTAYIwzmTq19WZ0bK7288P3TzsSW5tVBKpHgN77yiR92ZbuAlSvz7tGuNcL8FOph7LSya7CNu6sflTuekxOAxT98TflzFWSQ1qe7gK4U1xGy/TON337p36kjvLSaWVTyp+M8aGMrjVbEWgeAv427nS1XUziaaq/+OZpck9iV/4dEl02MPrfPD3+xQXcMSWMNBK3SUDey/IyX6ZjaJjgeUoo8fmMfwepn3nptOdWnkb/K1FR2lR9EHAVHGj/zfMqQxDXZ7TtlYTHL8t6209rpxfii21Ej6F8c7/3zxL6QWhg5stnaekYO1+Odf5XMW8G5/DIVI9FdDOvjK3PCR6uYhzahyJQKQJe5CY2wJREAnyz0gF1sDMGR3Lm9Y/+IgK84w9xWxuh7U/w2blEbshCkoL1hjglH5m/V/75NuJWpzHtu3c+8PondbBserbelb+c4OfqNGaVRREoDQFXPgHMIqAX4jOlCasNHUKgF+J7BmsXVy9A/1CnLcoYTPBmoUWAJAW5GMhK75fnIqNFcNVuKNNdHKmfRdO2Dnlv8uJ2z//aKVQFqhYBP8LjLohDtHm16jC41SK4vt5oZyFwXsilb8F6V48O8bPrG6H7ngcxjqe+wUsSkYRgiMHOs/PNfYwddR/rRo9bMR6dEvU8fUh9zkub5zF29O3fje601ZogwO1dL8K7BQlhOZIJ8W8bQxypyZBbIYY/wn1+gOsu9eZt41QrwMoZxPAibh3EeGtqEGiI2yYUQwp2foHyWxOd/zkqWOrR1gT37Z7kuD538Sb1tmC6H7d//i8FvlZqFwL+CE+5JJKk7W0E7UJtfaNJFm0BLrnUmRfg2j3P4fb1jbK6nrfGeGJmAZBF6kXz7UVCjJv9GFF1I2p3T8MLuG0wwSUnb/9GxzGu0b6g3Ujq6BSBjY0NEoof4apjQrnZVmvySicRQ/2GmLjUVdcWbAmhMHys+fG3Cbxoviwn3zYP8tWafNV/Fob6HWMys2CTWBdJH+jj4Fs/88yfLthW1ZLWbxoCmyFOOieVCOiN8PtNw6ZO8vYifMO1nrwA/3f0a7ijTuN2LcuMY6AiJJJWRuZJkhH5/RfxaddjaXP7gxjPS6JeKi30kbqQiHFdj3C2eRbp2A4h8ItD/Lwf4e0qyKUtQWUOgeg4wxshcK0ftt92y/80NdHYK7EFMG+BksCLpmU5STKz+de3xvjNNBk0Lx8BfkZZapdG4s+0+ZM6Mmle1fI/XxH6tJ0I+CG+UAXB8HODN8JH24mim1F5I5yoQjdJ0J8hbnEzinq3OhjjwekboSEEmzyK5NsEY9eJscOwtfVGo17SPTXBiaXI38Y+T598thv0Z3ihm/O/XhpXadaCQG8bF6ogml6Ad/1tfGwtg2xYpzTSdOm2eUbfAX6nYfCUKu7K35cN4ZirWQxYxLM1wXsnz+n8L6K8mc8zFo7TBZvBWeKelc5qI8ZNDeRURCNaprUI+AF818fLDOHQ0tzvOOHMm0i9Ef7O4OX66kX43jx52v6cZ/aT42WSPLIIIy9fPpNtmTSvMa4p4eTPqME5/H3ulv08nOXzvPQEoFOhfGn0qSLQAQSqMghMCC3ADX566ACsiw1xiFv8EV5wTfqmfRr+/fKz+KXFhGxn6eRYoCQLQ9oyb9U06/NvjBu7oYn/uJ1ILj8qbsMPJvju9A2/iA4MpkXK2mViXB9OdP4vrzGt2SoEvAAXDTlUdD3RKgBXGAwNMqv6FGN020XDvzwV9Sf40fTN0yZ7+94mk0Wf75V/LE+eLj1LDDIneHkG/0UxTdNJVhssq4Z/XZpiOtZ5CNBIr6pPAYaEdj8/fLPtrmfn4X7sq/hVP8TrU0wYkMfxX2+EH6qnxlnNPPkSPpK8nacRSVqeTS5F7u0yMZ7vuutZ2kXs7oi8fujNfxnMi9RhmTFeVcO/2fmvd4rAhh/guGvysdvvRfjv3jbu7yL8SVwGx+59bbx5IkNjNaTPtpkws5JMDhP3QahgU85cs8rK57NlLnXVOHDfI2O6e99ZjDBdIMh8iWnRdIydkzE+lD4DNFcR6DgCmyG+n0Iabt9KaRcwwlNdeSvlt/dKvPul7CRsBvhUx6d47vBnvkNLsrHTafd2niQl+czOp10At6Q7Ej+D395nTl9IPEzaXCVudpr3dt6ceuqYKXf668OuI8Dv0V6En1S+CNjzGvjDVu8GDHFkM8KfeyO8tw58N0M82/X5PW/8iZvgMS4vSiypb6iSnCQxZeWP8WqrdwPo1jfGYzwSOf3eL3GRaYkR0/a9KWuuWc9Ffj/G6Xn61+eKQOcROBbhN7wAP10HSSXn30N8q20W6vSG6IWVG1pOd270u3/xf+v979I3MklHkErhMrKOJC2Zz/Te/fNts1CnN8RBjNemCyWJQVo6LU9iJZ/LfDtt7ne/+3dlh6X4TNeSikAGAr0AX1rHAsD0yWNqfGP1h/hAhoiNyKbzo16EsRnXOq7ccbgrwrFGAFYTIXejzz2ckLEhEF5XSWcRlsyfTV+nK9ym+6hPFlMTnJ1iaXDMw9KUmcXjwO7Cfp5VzuTH2KG/h5pMLRVDEWgGAv52Nb7oc0kxxPu9EM/w00QzUNuT8u4R7qWjnco8+qV87yeuyUIqwq83Cbu6yLo1wV9NicuQyTziyion68kyNpnJcnvpnf4EzzTttMDWWdybaU8hxy/TcuwyPy0t8/IwjHFtMMYDdZlTKoci0CgEqnROk7cQSFwJR3i87jHr/RHu80J8O28sVT7znsUnGzXhaibsYIzvTLetJUEtkzZEJetKIstKTwB+N6fVfN1j1m9NcF+CWdpY5bhXTcv6EjeZPwGeiXX+1+xfSsVpEgK/dgY/4wX4lypJK7evANd5UqEX4fOUrQ5YJlb9ER7nd/Zc2TPe0l3U4c4DMaoDPk2WYXgRtw5i/GspiwBDVOZKsrIIK7UfWX6MG3Rhy0BGlK0O2NJeITnSN8arM+ORcpedlu1JDE0+r7sY1QEflUERaDQC/A7PqHEuiGqlNgO870c440V46Njf4oNVgkzHSbTo70U4v9IYHC0KvAB/ViUebe6L3+ETZzWGsCXhLJOWdQxhyTw7Le9ny+8MxjgzOIc/qtpWgNENBzGO92Ocn34moZzyz8hqrnIcq6Zlfdm+yY9xvM1zUsemCFSKwNEQnh/hjTqSnZGJVvYMpuON8BC/wZcFEO0PeDKChM9PIus6xmfGOe9Km4myxq7t7CFA5zEMHZv6hm5Ih9ci6TTCyqtrl7f7OKj72tYYX+eCgN/gy9Jd4qp3jAd4hI/f9VOP8RkZ7euBbAdGfKaMPY5F8mVZqw/aTJQ1dm1HEVAE9hHgVvcaYgZMj7LNI76054mnwQjjXoi/2Q96dMIP8AgXCX6A32N0wg9H+BwDFPGteTPEE942TvUifKMX4p/9AO+ktVvXPCV/d/+uiQMbeZRtGQKzyKrQgkL2YxOfuTdX0/7B9RKd7vAM/GCCpxMSP4dHuEigUxxGJ+xP8FkGKNqK8WhiZxDj1CDG8/ufPq7MvNWbdtP6s/Py7uWzRdO2DLL+BE+7mwHasiLQcQS41e4H+I+6EmBX5aLfhl6IL3Z8ejofPo3w6Eu+EHHPEtOBO9usfBKbfGbS5ppPfLN1Tdllr6bPrKuU1ZSZlyefL5OWdew+9+4fdj4BtANFoOsI0BK/TgZvXSV9M24e9VNr/+r+K5MtcRoGSkJylWa7sm1JfFn5psyqV7vvovdp5YwsUuZF07INWTcG4wl8oroZoD0pAh1HgFH8vLCeBnCGGLtw9SK822r3yTX9P0sWAcbBjSSmstKzBHfw/TwvXz5jWv5JuRbJl/XS0kXzbNnS6tll8u5N/RhXWu0+uabzX8VSBBIEvBDPdYFo6zhGL8Cl3ZDKvk7F9SHQ5/dyQ6iGlGzicpFv95nWh8kzVylXXp58JuvYaVsG+Vy2sWw6q57pd4zLT7+E3vq0rz0rAooAwwg/sq7YAXUk5ipkonvhpnlHbOu/Cp3NDGLszGzVSzJ0kc4iR5lv92vfy7IyLcvJ/LR0Wh7ryzaKpu1y9r3pa+96tmneEds6/3VcisDGZoiP1/14XBXE7LoDgGqDAAAEZ0lEQVQPOvjhaQadcvVCgG+iSbAbklYWcbnIN6RYpO1FyppxFGm3rDLF5VNL/3pNf5VGEdjY8E7j7qYdE3RN2GW2T3fIauxX3/80vpH2J/iHVEv+skjSbof3dl4WkRYtZ+qb66L1ipa3y9n3dv8xdtS1b33nv0qmCGzQPa8/wlf8ADfKJL+ut+WF+PfNCEd1itUfgeRcfYwrlS0EbKIkkc4j03llZH0X7ae1mZa3L0d/gh/RGVP9ta8SKgKKwEbiKjfAD7pO3GWMvxfgr3VKNQsBOg1KfPZLInWVdtGuJGO276IPu037fl8GRmVslvZVWkVAEdjYGOKIN8IJL8C1Moiwc22EeMULcLdOpeYiMKDXvaoNBDOItDCJs75sw14MyHu36ZcZXbC52lfJFQFFYCOJIzDCC50j8GUD/dD9cIgv6NRpBwKJgSDDCktSrWNayiSJPStflikzzc8nE6hXv3ZMfx2FIrCHAAPqqAdBZMY24FFKL8RpPd7Xzv+YAQPq5LkRlkRbxzRlsuWy71dcCDBmgR7va+f811EpAslnAb7d+gHe1B2BvcUAXfkyiiF3SnSKtB8BBt5JIgvahLoieSbkXDIhH2qzbBnZHl35jnHmyZfwkfZrX0eoCCgCG/4Qt/kjPOUFeLvDC4GrPDHBAEs6JbqFwPACbtslvv4gxluZpwVck/ky7RetU6RcjB0a+H051vnfrdmvo1UEDAJDHNkM8Qf0bEcnNx1ZDLzhRzjBRZCBQa/dRWAwxoMM2TtdCJi3bHMtQqZ1K5MlO+Uc4zLDEnMR1F2t68gVAUVgBgFavG+GeLaNHgV5EsIL8e3NAJ/i6YiZgeuNIrCxscEt8H6MKDk1kEWg684v0j9J/vCC5NpgjO/Qkc/wAm5RhSsCioAikIoAnQn1Inx+M8T3/QDXm7orwB0NRkz0tvEnjJ6YOljNVAQsBIYXcSt3BRI/AmPcSCHTg+iARQg5q8xhkp7fbjq5H67HPmPc7Mc4z6OQathnKVlvFQFFYD4C9zyH23sB/rS3jQuNWQiEeIX2Df427pw/Qi2hCGQj0H8Rv7AV49GESA355hF33rOshYDML1Jflk9Pv0z7BvXcl61XfaIIKAILIkBXuL0AX/IjnPED/FdtFgQB3mRY5A9H+Jy+6S+oVC1eGAESKhcDtJjfPUnw+tRmwCwM0skYM+XmlZn33O6L5WO8tTXG1+kCWd/0C6tTCyoCisAqCPhDfKAX4jN0lbu/Q1DFiYI3ehHOcxHSC/DYXSPcu8oYtK4isCwCtJ4n6dKSfjAB37pXP1EwbwdgjMvJbgQXITEeU099y2pP6ykCikDpCPANvLeN++lrwNvGKRre+SFeoQMiRir0AvzYj/C2H+J9s4NAo0MvwKXESVGIiT/CCzyXz4WFH+A4DfeOBbindGG1QUWgZAT4Bn7yHD5GXwP9GKdoeJcsDvYcEL22b4HPhcLO1LaAae4osAxPI0zwXe4y7BskHu+/iE9vndWF7v8DSeRRgSKeEuAAAAAASUVORK5CYII=;fontSize=20;" parent="fHwz4dTw-e58ZOSodajX-1" vertex="1">
          <mxGeometry x="298.75" y="489" width="82" height="82" as="geometry" />
        </mxCell>
        <mxCell id="fHwz4dTw-e58ZOSodajX-16" style="edgeStyle=orthogonalEdgeStyle;rounded=0;orthogonalLoop=1;jettySize=auto;html=1;entryX=0;entryY=0.5;entryDx=0;entryDy=0;entryPerimeter=0;fontSize=20;" parent="fHwz4dTw-e58ZOSodajX-1" source="fHwz4dTw-e58ZOSodajX-9" edge="1">
          <mxGeometry relative="1" as="geometry">
            <mxPoint x="640" y="399" as="targetPoint" />
          </mxGeometry>
        </mxCell>
        <mxCell id="fHwz4dTw-e58ZOSodajX-17" style="edgeStyle=orthogonalEdgeStyle;rounded=0;orthogonalLoop=1;jettySize=auto;html=1;entryX=0.5;entryY=0;entryDx=0;entryDy=0;entryPerimeter=0;fontSize=20;" parent="fHwz4dTw-e58ZOSodajX-1" source="fHwz4dTw-e58ZOSodajX-13" target="fHwz4dTw-e58ZOSodajX-8" edge="1">
          <mxGeometry relative="1" as="geometry" />
        </mxCell>
        <mxCell id="0IVg8jKRWWq1H40FZw9m-4" style="edgeStyle=orthogonalEdgeStyle;rounded=0;orthogonalLoop=1;jettySize=auto;html=1;fontSize=20;" edge="1" parent="fHwz4dTw-e58ZOSodajX-1" source="0IVg8jKRWWq1H40FZw9m-2" target="0IVg8jKRWWq1H40FZw9m-3">
          <mxGeometry relative="1" as="geometry" />
        </mxCell>
        <mxCell id="0IVg8jKRWWq1H40FZw9m-5" value="Alert" style="edgeLabel;html=1;align=center;verticalAlign=middle;resizable=0;points=[];fontSize=20;" connectable="0" vertex="1" parent="0IVg8jKRWWq1H40FZw9m-4">
          <mxGeometry x="0.2093" y="-3" relative="1" as="geometry">
            <mxPoint as="offset" />
          </mxGeometry>
        </mxCell>
        <mxCell id="0IVg8jKRWWq1H40FZw9m-2" value="Slack Alert Bot" style="sketch=0;points=[[0,0,0],[0.25,0,0],[0.5,0,0],[0.75,0,0],[1,0,0],[0,1,0],[0.25,1,0],[0.5,1,0],[0.75,1,0],[1,1,0],[0,0.25,0],[0,0.5,0],[0,0.75,0],[1,0.25,0],[1,0.5,0],[1,0.75,0]];outlineConnect=0;fontColor=#232F3E;fillColor=#ED7100;strokeColor=#ffffff;dashed=0;verticalLabelPosition=bottom;verticalAlign=top;align=center;html=1;fontSize=20;fontStyle=0;aspect=fixed;shape=mxgraph.aws4.resourceIcon;resIcon=mxgraph.aws4.lambda;" vertex="1" parent="fHwz4dTw-e58ZOSodajX-1">
          <mxGeometry x="640" y="360" width="78" height="78" as="geometry" />
        </mxCell>
        <mxCell id="0IVg8jKRWWq1H40FZw9m-3" value="" style="shape=image;html=1;verticalAlign=top;verticalLabelPosition=bottom;labelBackgroundColor=#ffffff;imageAspect=0;aspect=fixed;image=https://cdn2.iconfinder.com/data/icons/social-media-2285/512/1_Slack_colored_svg-128.png;fontSize=20;" vertex="1" parent="fHwz4dTw-e58ZOSodajX-1">
          <mxGeometry x="645" y="622.5" width="68" height="68" as="geometry" />
        </mxCell>
      </root>
    </mxGraphModel>
  </diagram>
</mxfile>
